<svg width="198" height="200" viewBox="0 0 198 200" fill="none" xmlns="http://www.w3.org/2000/svg">
<path fill-rule="evenodd" clip-rule="evenodd" d="M195.638 199.181H1.57668C0.705601 199.181 0 198.476 0 197.605V1.57634C0 0.705446 0.705601 0 1.57668 0H195.638C196.509 0 197.215 0.705446 197.215 1.57634V197.605C197.215 198.476 196.509 199.181 195.638 199.181Z" fill="#D6E9ED"/>
<path fill-rule="evenodd" clip-rule="evenodd" d="M155.088 194.014C155.891 201.995 80.8063 198.42 69.2319 199.252H57.6777C46.1033 200.085 34.1417 193.612 32.8321 182.452C31.5217 171.28 39.8386 161.555 51.413 160.722L63.5963 159.846C75.1707 159.014 151.765 162.756 153.075 173.927L155.088 194.014Z" fill="#B42918"/>
<path fill-rule="evenodd" clip-rule="evenodd" d="M74.1579 184.711C72.7677 195.534 62.2592 200.756 50.9377 199.003C39.617 197.248 31.7563 189.184 33.1515 178.355C34.5417 167.529 44.8527 160.178 56.1743 161.936C67.4958 163.688 75.5481 173.885 74.1579 184.711Z" fill="#D73F15"/>
<path fill-rule="evenodd" clip-rule="evenodd" d="M54.1113 197.601C49.3065 196.86 44.7193 194.36 41.513 190.296C36.3041 183.69 37.4919 174.448 44.1607 169.692C49.5829 165.815 57.4562 167.035 61.6974 172.409C65.1615 176.794 64.3703 182.941 59.9376 186.109C56.3004 188.7 51.0184 187.889 48.1734 184.285C47.0368 182.843 46.5286 181.086 46.758 179.331C46.9814 177.578 47.9138 176.044 49.3678 175.004C49.8273 174.672 50.4943 174.773 50.8614 175.235C51.2217 175.69 51.1402 176.33 50.6749 176.661C49.6694 177.379 49.0243 178.445 48.8706 179.66C48.7118 180.87 49.0638 182.09 49.8534 183.09C51.9088 185.692 55.9988 186.323 58.6246 184.448C60.3307 183.234 61.4118 181.434 61.6764 179.395C61.9393 177.337 61.3521 175.29 60.0232 173.602C56.4978 169.138 49.9701 168.132 45.4677 171.347C39.7246 175.447 38.6939 183.411 43.1863 189.095C48.8899 196.319 59.468 197.964 66.7617 192.75C67.2271 192.423 67.8941 192.527 68.2603 192.98C68.6274 193.44 68.54 194.081 68.0747 194.411C63.962 197.344 58.9279 198.35 54.1113 197.601Z" fill="#B42918"/>
<path fill-rule="evenodd" clip-rule="evenodd" d="M149.72 116.283C149.72 116.283 160.629 109.379 159.551 97.744C158.756 89.1662 150.176 83.5159 150.176 83.5159C150.176 83.5159 150.737 113.457 149.72 116.283Z" fill="#EC7078"/>
<path fill-rule="evenodd" clip-rule="evenodd" d="M175.332 199.321C163.562 186.471 143.397 184.174 143.397 184.174C142.489 185.111 141.734 191.951 141.173 199.321H175.332Z" fill="#F2A091"/>
<path fill-rule="evenodd" clip-rule="evenodd" d="M70.1949 199.321C67.5531 192.177 64.7576 186.863 64.7576 186.863C55.7167 188.286 48.0542 193.876 42.5068 199.321H70.1949Z" fill="#F2A091"/>
<path fill-rule="evenodd" clip-rule="evenodd" d="M48.0045 112.127C48.0045 112.127 41.2786 135.217 35.5708 139.666C35.5708 139.666 65.3766 168.84 107.441 156.097L66.3804 112.119L48.0045 112.127Z" fill="#823958"/>
<path fill-rule="evenodd" clip-rule="evenodd" d="M154.661 109.92C154.661 109.92 162.572 132.603 168.501 136.729C168.501 136.729 140.246 167.515 97.5825 157.126L136.312 110.932L154.661 109.92Z" fill="#823958"/>
<path fill-rule="evenodd" clip-rule="evenodd" d="M48.0104 110.135C48.0104 110.135 47.7954 128.429 63.5983 132.472C79.4004 136.517 66.4274 53.52 58.5692 51.6522C50.7119 49.7845 46.5505 101.652 48.0104 110.135Z" fill="#823958"/>
<path fill-rule="evenodd" clip-rule="evenodd" d="M143.185 199.321C142.927 190.952 143.397 184.173 143.397 184.173L131.954 180.629C131.954 180.629 127.912 191.141 119.942 199.321H143.185Z" fill="#D4DAB4"/>
<path fill-rule="evenodd" clip-rule="evenodd" d="M78.4162 199.321C71.5316 191.96 69.6508 183.027 69.6508 183.027C65.7902 185.144 57.6816 189.469 57.6816 189.469C59.7195 192.646 61.3482 195.964 62.6813 199.321H78.4162Z" fill="#D4DAB4"/>
<path fill-rule="evenodd" clip-rule="evenodd" d="M143.185 199.321C142.927 190.952 143.397 184.173 143.397 184.173L131.954 180.629C131.954 180.629 127.912 191.141 119.942 199.321H143.185Z" fill="#EEEAB4"/>
<path fill-rule="evenodd" clip-rule="evenodd" d="M78.4158 199.321C71.5312 191.96 69.6504 183.027 69.6504 183.027C65.7898 185.144 61.9888 187.165 61.9888 187.165C64.7944 191.539 66.7096 195.576 68.0763 199.321H78.4158Z" fill="#EEEAB4"/>
<path fill-rule="evenodd" clip-rule="evenodd" d="M134.065 199.322C135.819 190.221 134.439 181.551 134.439 181.551C134.439 181.551 113.18 175.486 108.456 166.168C103.733 156.849 113.504 149.372 113.504 149.372C113.504 149.372 96.5971 138.494 94.288 138.211C94.288 138.211 100.711 155.52 94.0805 165.073C87.4478 174.626 69.6499 183.027 69.6499 183.027C69.6499 183.027 71.8709 190.868 77.2368 199.322H134.065Z" fill="#F2A091"/>
<path fill-rule="evenodd" clip-rule="evenodd" d="M91.0705 199.322H114.321C127.863 197.502 129.377 194.425 159.139 199.322H174.231C163.967 187.573 141.471 183.569 141.367 183.546L131.953 180.63C131.953 180.63 131.934 180.678 131.905 180.751C126.129 178.817 112.174 173.502 108.456 166.168C103.733 156.849 113.504 149.372 113.504 149.372C113.504 149.372 96.5969 138.494 94.2877 138.211C94.2877 138.211 100.711 155.52 94.0802 165.073C87.4476 174.626 69.6496 183.027 69.6496 183.027C67.6588 184.119 64.5441 185.795 61.9888 187.165C61.9888 187.165 58.3264 188.238 52.0508 191.072C69.9445 189.61 76.9425 196.729 91.0705 199.322Z" fill="#EF8886"/>
<path fill-rule="evenodd" clip-rule="evenodd" d="M143.422 49.5661C143.422 49.5661 139.812 27.3798 107.032 20.0205C74.2486 12.6595 48.07 43.2935 44.7016 67.3442C41.3324 91.3999 54.0995 107.993 61.4613 118.672C68.8248 129.351 156.37 77.8603 143.422 49.5661Z" fill="#823958"/>
<path fill-rule="evenodd" clip-rule="evenodd" d="M143.422 49.5659C143.422 49.5659 139.812 27.3796 107.032 20.0203C74.2487 12.6593 59.4227 37.3071 63.5664 59.5539C68.0369 83.555 64.9255 96.9014 72.2881 107.58C79.6508 118.259 156.37 77.8602 143.422 49.5659Z" fill="#914860"/>
<path fill-rule="evenodd" clip-rule="evenodd" d="M60.3934 67.723C54.4361 81.4103 53.7557 115.699 64.8345 134.779C75.9166 153.86 115.617 171.198 144.244 152.231C165.716 138.002 154.019 124.314 155.269 98.4838C156.519 72.6544 166.118 57.3151 133.931 42.5209C103.312 28.4489 71.3252 42.6024 60.3934 67.723Z" fill="#EF8886"/>
<path fill-rule="evenodd" clip-rule="evenodd" d="M156.329 86.6119C155.763 92.4293 155.575 91.6046 155.221 98.8413C153.948 124.843 161.524 135.009 139.796 148.95C116.218 164.078 79.9263 147.819 68.8609 128.622C61.7461 116.282 62.0183 108.893 61.542 96.2017C61.542 96.2017 63.8512 54.9491 88.4355 44.2347C108.863 35.3352 165.859 33.4758 156.329 86.6119Z" fill="#F5B19C"/>
<path fill-rule="evenodd" clip-rule="evenodd" d="M136.518 75.1552C136.499 75.1476 136.064 74.8209 135.341 74.485C134.622 74.1466 133.597 73.8442 132.554 73.7913C130.444 73.6452 128.506 74.4674 128.493 74.4598C126.59 75.1728 125.387 76.3318 125.539 76.5627C125.7 76.8264 127.102 76.1201 128.841 75.4726C128.865 75.4718 130.67 74.7252 132.513 74.8663C133.428 74.9158 134.311 75.1795 134.933 75.4743C135.557 75.7666 135.935 76.0496 135.946 76.0521C137.459 77.0784 138.402 78.3272 138.646 78.1802C138.913 78.0601 138.267 76.3536 136.518 75.1552Z" fill="#C26268"/>
<path fill-rule="evenodd" clip-rule="evenodd" d="M96.3017 70.1822C96.279 70.1637 94.2437 69.2407 92.0588 69.2517C89.8807 69.1845 87.8362 69.9655 87.8219 69.9697C85.8067 70.6768 84.5392 71.9575 84.7298 72.1902C84.902 72.422 86.3149 71.6342 88.1629 70.9884C88.1898 70.9775 90.0907 70.2603 92.0672 70.3283C94.0497 70.3233 95.8884 71.1622 95.9002 71.1748C97.6852 71.9508 99.0401 72.8956 99.235 72.6554C99.4198 72.4539 98.2841 71.0539 96.3017 70.1822Z" fill="#C26268"/>
<path fill-rule="evenodd" clip-rule="evenodd" d="M112.78 96.2488C119.176 94.2517 117.145 105.274 122.813 109.126C130.149 114.113 125.134 124.366 114.518 119.991C101.955 114.819 108.216 97.6765 112.78 96.2488Z" fill="#F1968D"/>
<path fill-rule="evenodd" clip-rule="evenodd" d="M60.2274 91.3403C60.2274 91.3403 44.5673 97.7691 45.5669 107.664C46.3053 114.958 58.1283 119.374 58.1283 119.374C58.1283 119.374 58.6709 93.8052 60.2274 91.3403Z" fill="#EC7078"/>
<path fill-rule="evenodd" clip-rule="evenodd" d="M122.744 111.168C124.649 111.608 125.347 116.394 123.365 115.971C121.381 115.548 120.116 110.561 122.744 111.168Z" fill="#F4AFA2"/>
<path fill-rule="evenodd" clip-rule="evenodd" d="M58.8466 101.78C58.8466 101.78 55.3926 98.2889 51.7276 100.332C48.0627 102.375 47.9149 103.879 49.9947 102.96C52.0746 102.042 56.703 102.472 57.6597 104.195C58.6131 105.918 53.6773 104.705 50.6499 106.841C47.6268 108.974 53.5353 107.394 56.0276 107.61L58.5199 107.829L58.8466 101.78Z" fill="#EB6782"/>
<path fill-rule="evenodd" clip-rule="evenodd" d="M55.6116 88.6706C55.6116 88.6706 52.003 101.33 55.5318 107.087C59.0615 112.845 66.2385 112.816 66.2385 112.816C66.2385 112.816 62.3291 107.58 60.5114 100.292C56.8044 85.4373 62.855 77.5137 62.855 77.5137C62.855 77.5137 56.8044 85.4373 55.6116 88.6706Z" fill="#914860"/>
<path fill-rule="evenodd" clip-rule="evenodd" d="M90.1613 83.3216C87.9714 83.4912 86.9458 94.8867 91.2399 94.3123C92.9266 94.0864 94.1857 83.0109 90.1613 83.3216Z" fill="#AF4A5B"/>
<path fill-rule="evenodd" clip-rule="evenodd" d="M129.364 84.8419C127.174 85.0115 126.148 96.407 130.442 95.8325C132.129 95.6066 133.388 84.5311 129.364 84.8419Z" fill="#AF4A5B"/>
<path fill-rule="evenodd" clip-rule="evenodd" d="M59.1432 90.523C59.1432 90.523 84.7724 63.2096 83.3889 35.3176C83.3889 35.3176 54.0628 37.2761 53.6126 66.3346C53.1623 95.3922 49.6444 84.436 59.1432 90.523Z" fill="#914860"/>
<path fill-rule="evenodd" clip-rule="evenodd" d="M75.1879 47.4531C75.1879 47.4531 130.071 68.7542 159.915 58.154C159.915 58.154 135.221 2.33224 83.0923 27.9626C50.4323 44.0207 74.4899 48.6633 75.1879 47.4531Z" fill="#914860"/>
<path fill-rule="evenodd" clip-rule="evenodd" d="M80.374 48.891C80.374 48.891 131.015 60.7483 153.058 48.6096L157.279 58.6706C157.279 58.6706 129.462 67.4929 80.374 48.891Z" fill="#823958"/>
<path fill-rule="evenodd" clip-rule="evenodd" d="M107.56 134.138C91.4677 133.46 87.1039 117.852 87.061 117.694L88.3126 117.359C88.4756 117.965 92.4866 132.206 107.615 132.842L107.56 134.138Z" fill="#EC7078"/>
<path fill-rule="evenodd" clip-rule="evenodd" d="M57.5175 186.698C57.5175 186.698 62.7104 193.321 61.3974 199.321L85.1199 200C85.1199 200 85.7617 177.387 75.491 173.396C75.491 173.396 56.234 175.391 57.5175 186.698Z" fill="#C45A45"/>
<mask id="mask0_5622_2472" style="mask-type:luminance" maskUnits="userSpaceOnUse" x="132" y="176" width="29" height="24">
<path fill-rule="evenodd" clip-rule="evenodd" d="M160.51 200H132.566L132.566 176.352H160.51V200Z" fill="white"/>
</mask>
<g mask="url(#mask0_5622_2472)">
<path fill-rule="evenodd" clip-rule="evenodd" d="M132.622 181.377C132.622 181.377 137.815 193.322 136.502 199.322L160.224 200C160.224 200 162.792 185.368 152.522 181.377C152.522 181.377 131.338 170.071 132.622 181.377Z" fill="#C45A45"/>
</g>
</svg>
