<svg width="175" height="175" viewBox="0 0 175 175" fill="none" xmlns="http://www.w3.org/2000/svg">
<mask id="mask0_5622_5169" style="mask-type:alpha" maskUnits="userSpaceOnUse" x="0" y="0" width="175" height="175">
<path fill-rule="evenodd" clip-rule="evenodd" d="M0 174.224V0H174.196V174.224H0Z" fill="white"/>
</mask>
<g mask="url(#mask0_5622_5169)">
<path fill-rule="evenodd" clip-rule="evenodd" d="M173.656 86.8421C173.656 134.804 134.781 173.684 86.8281 173.684C38.8739 173.684 -0.000732422 134.804 -0.000732422 86.8421C-0.000732422 38.8801 38.8739 0 86.8281 0C134.781 0 173.656 38.8801 173.656 86.8421Z" fill="#EDF2F7"/>
<path fill-rule="evenodd" clip-rule="evenodd" d="M53.8829 107.37C53.8829 107.37 63.1484 117.146 61.5601 127.027C61.5601 127.027 47.8218 131.992 43.3979 128.799C43.3979 128.799 35.2126 111.963 53.8829 107.37Z" fill="#EEE9B3"/>
<path fill-rule="evenodd" clip-rule="evenodd" d="M41.1962 159.476C39.7478 147.082 42.7956 136.422 42.7956 136.422L40.8293 135.791C38.2578 142.116 36.6491 147.454 35.6902 151.897C37.0104 154.729 38.9007 157.246 41.1962 159.476Z" fill="#F2A091"/>
<path fill-rule="evenodd" clip-rule="evenodd" d="M75.7135 131.126C54.7117 150.468 41.6449 159.779 41.6111 159.803C42.9085 160.955 44.3202 162.029 45.8275 163.029C63.6973 149.909 81.8749 131.879 81.8749 131.879C77.6206 127.737 71.8498 126.317 71.8498 126.317C71.8498 126.317 76.1689 130.708 75.7135 131.126Z" fill="#F2A091"/>
<path fill-rule="evenodd" clip-rule="evenodd" d="M71.1799 172.503C60.592 154.666 49.4549 132.488 49.113 121.952C48.8703 114.374 52.9493 109.42 60.0241 108.697C62.2542 108.469 66.8789 110.795 67.9324 111.483C68.3089 111.801 68.8166 111.978 69.3588 111.948C70.4447 111.889 71.2763 111.019 71.2138 110.005C71.182 109.502 70.9038 109.001 70.4926 108.675C70.0571 108.335 63.7528 104.608 59.5968 105.035C50.3946 105.975 44.8697 112.5 45.1762 122.064C45.5742 134.357 58.3334 158.107 65.9934 171.314C67.7305 171.766 69.4649 172.161 71.1799 172.503Z" fill="#D73F15"/>
<path fill-rule="evenodd" clip-rule="evenodd" d="M58.3929 100.485C55.0586 108.33 93.8391 118.965 102.371 122.035L111.352 125.266C119.884 128.335 129.502 124.459 132.837 116.613C136.174 108.761 131.964 99.9108 123.432 96.8419L114.451 93.6109C105.919 90.5413 67.4724 78.4391 64.1354 86.2921L58.3929 100.485Z" fill="#B42918"/>
<path fill-rule="evenodd" clip-rule="evenodd" d="M84.4546 173.65C95.3275 173.997 108.553 171.864 119.555 166.65C119.636 165.524 119.702 164.389 119.733 163.243C120.551 133.717 107.969 109.825 83.777 116.918L81.8752 173.521C82.7583 173.579 83.6235 173.624 84.4546 173.65Z" fill="#B42918"/>
<path fill-rule="evenodd" clip-rule="evenodd" d="M84.851 173.651C103.22 174.242 128.45 167.565 137.534 150.501C132.53 131.092 119.632 117.199 104.135 116.844L66.4802 171.097C73.0502 172.666 79.5356 173.48 84.851 173.651Z" fill="#D73F15"/>
<path fill-rule="evenodd" clip-rule="evenodd" d="M131.353 142.897L131.611 152.262C131.68 154.799 130.192 156.897 128.294 156.939L121.226 157.107C119.325 157.155 117.73 155.132 117.655 152.592L117.402 143.228L131.353 142.897Z" fill="#21414F"/>
<path fill-rule="evenodd" clip-rule="evenodd" d="M122.533 160.613C122.599 162.007 123.89 163.092 125.422 163.026C126.943 162.962 128.128 161.783 128.057 160.389L127.669 152.421C127.598 151.029 126.305 149.946 124.782 150.004C123.257 150.067 122.075 151.25 122.142 152.654L122.533 160.613Z" fill="#1FA2BF"/>
<path fill-rule="evenodd" clip-rule="evenodd" d="M100.982 108.806C99.7249 117.224 106.062 125.004 115.129 126.17C124.195 127.337 132.567 121.454 133.822 113.03C135.08 104.61 128.744 96.8392 119.676 95.6751C110.61 94.5076 102.24 100.386 100.982 108.806Z" fill="#D73F15"/>
<path fill-rule="evenodd" clip-rule="evenodd" d="M113.292 122.637C117.099 123.107 121.114 122.287 124.413 120.073C129.774 116.473 130.836 109.683 126.781 104.934C123.487 101.067 117.247 100.3 112.884 103.227C109.32 105.615 108.616 110.131 111.309 113.293C113.521 115.88 117.705 116.4 120.631 114.437C121.802 113.651 122.561 112.513 122.76 111.222C122.962 109.935 122.581 108.655 121.697 107.618C121.418 107.287 120.891 107.221 120.514 107.472C120.143 107.719 120.069 108.19 120.352 108.52C120.963 109.236 121.227 110.126 121.085 111.017C120.949 111.907 120.422 112.698 119.61 113.243C117.496 114.66 114.255 114.26 112.66 112.389C111.622 111.176 111.183 109.677 111.416 108.178C111.653 106.667 112.534 105.338 113.902 104.418C117.528 101.988 122.7 102.627 125.437 105.835C128.927 109.929 128.017 115.781 123.398 118.876C117.531 122.811 109.146 121.785 104.715 116.582C104.431 116.254 103.902 116.19 103.528 116.435C103.151 116.685 103.081 117.157 103.365 117.487C105.866 120.415 109.475 122.17 113.292 122.637Z" fill="#B42918"/>
<path fill-rule="evenodd" clip-rule="evenodd" d="M84.7071 173.651C89.3663 173.803 94.47 173.472 99.6384 172.618L97.01 147.839C97.01 147.839 87.9995 146.404 82.9969 145.963C77.9948 145.522 72.4167 145.147 65.7999 145.284C55.0248 145.508 46.3263 141.712 46.3263 141.712C44.7358 142.451 42.6075 149.412 40.427 158.658C51.4167 168.854 71.6219 173.222 84.7071 173.651Z" fill="#D3D9B3"/>
<path fill-rule="evenodd" clip-rule="evenodd" d="M84.9935 173.651C88.1343 173.751 91.4758 173.64 94.9018 173.305C94.8121 166.534 93.1355 160.259 88.5508 155.047C86.1052 152.267 74.4705 147.791 69.142 149.03C55.9322 151.705 48.2668 156.208 43.98 161.765C55.4521 169.758 72.9937 174.279 84.9935 173.651Z" fill="#EEE9B3"/>
<path fill-rule="evenodd" clip-rule="evenodd" d="M63.725 170.134C65.9384 168.553 67.5626 167.301 67.6067 167.26C71.2063 164.499 73.7309 161.953 73.5788 161.849C73.4212 161.735 70.6695 164.085 67.0954 166.829C67.0671 166.857 65.297 168.221 62.9272 169.904C63.1929 169.982 63.4592 170.059 63.725 170.134Z" fill="#D3D9B3"/>
<path fill-rule="evenodd" clip-rule="evenodd" d="M62.5278 106.186C62.5278 106.186 73.4674 107.161 80.5514 107.611C85.2062 107.906 95.0402 106.631 101.595 109.742C101.595 109.742 105.875 112.015 108.467 113.709C116.024 118.647 97.7229 150.003 97.7229 150.003C97.7229 150.003 59.1068 147.462 49.6593 145.468C40.2118 143.474 35.3574 131.567 39.6119 125.135C44.1448 118.281 57.0543 108.625 62.5278 106.186Z" fill="#D3D9B3"/>
<path fill-rule="evenodd" clip-rule="evenodd" d="M61.8783 106.186C61.8783 106.186 72.8504 107.143 79.9556 107.584C84.6242 107.874 94.4875 106.623 101.062 109.676C101.062 109.676 105.355 111.907 107.954 113.569C115.534 118.416 83.4153 136.626 83.4153 136.626C83.4153 136.626 66.5678 139.422 57.0915 137.464C47.6173 135.508 34.627 131.096 38.8941 124.783C43.4405 118.056 56.3884 108.58 61.8783 106.186Z" fill="#EEE9B3"/>
<path fill-rule="evenodd" clip-rule="evenodd" d="M74.7872 91.5088C74.7872 91.5088 80.1069 96.8053 78.1404 100.79C76.1733 104.775 65.199 107.69 65.199 107.69C65.199 107.69 51.0123 118.608 63.0062 122.794C80.2965 128.831 94.9014 109.233 94.9014 109.233C94.9014 109.233 84.2443 105.631 83.9262 100.894C83.7274 97.927 89.6253 90.6071 89.6253 90.6071C89.6253 90.6071 79.9631 87.8399 74.7872 91.5088Z" fill="#F4B09C"/>
<path fill-rule="evenodd" clip-rule="evenodd" d="M89.1452 107.37C87.366 105.659 86.1041 103.748 85.9735 101.706C85.6612 96.8539 94.9018 84.8812 94.9018 84.8812C94.9018 84.8812 78.1415 84.3528 70.033 90.3537C70.033 90.3537 79.9889 95.0194 76.9089 101.537C76.2401 102.95 74.908 104.28 73.2324 105.498C78.4586 104.75 83.8432 105.735 89.1452 107.37Z" fill="#E07779"/>
<path fill-rule="evenodd" clip-rule="evenodd" d="M102.394 171.749C93.6782 154.004 85.8191 134.503 86.0716 124.771C86.285 116.713 90.9267 111.673 98.488 111.289C100.872 111.168 105.642 113.888 106.718 114.676C107.098 115.034 107.626 115.25 108.204 115.247C109.361 115.243 110.299 114.364 110.296 113.285C110.293 112.749 110.029 112.202 109.612 111.834C109.171 111.449 102.703 107.15 98.2609 107.379C88.425 107.878 82.1496 114.505 81.882 124.676C81.5829 136.195 90.9274 157.679 98.1615 172.503C99.568 172.292 100.981 172.04 102.394 171.749Z" fill="#D73F15"/>
<path fill-rule="evenodd" clip-rule="evenodd" d="M110.412 170.134C112.801 169.374 115.142 168.486 117.402 167.472C116.112 146.963 109.17 120.396 109.17 120.396C103.359 120.696 99.0974 123.636 99.0974 123.636C99.0974 123.636 105.155 123.443 105.275 123.996C110.896 149.518 112.036 163.742 112.036 163.742C100.485 157.286 93.0289 148.634 93.0289 148.634L91.3491 149.671C99.0854 160.711 105.738 166.971 110.412 170.134Z" fill="#F2A091"/>
<path fill-rule="evenodd" clip-rule="evenodd" d="M93.7173 149.045C93.7173 149.045 90.8343 142.413 90.6998 139.601C90.4703 134.805 86.5426 133.108 86.0051 136.086C86.0051 136.086 85.5555 134.401 84.8072 135.455C84.0582 136.509 84.6302 138.197 84.6302 138.197C84.6302 138.197 83.9682 136.172 83.2912 136.812C82.6135 137.451 83.4041 139.733 85.8886 142.912C88.3736 146.091 92.9439 151.187 92.9439 151.187C92.9439 151.187 93.6519 150.771 93.7173 149.045Z" fill="#F2A091"/>
<path fill-rule="evenodd" clip-rule="evenodd" d="M109.079 115.659C109.079 115.659 118.89 125.95 117.208 136.351C117.208 136.351 102.662 141.578 97.9775 138.217C97.9775 138.217 89.3108 120.494 109.079 115.659Z" fill="#EEE9B3"/>
<path fill-rule="evenodd" clip-rule="evenodd" d="M52.9399 73.0271C52.9399 73.0271 46.7144 68.7616 47.6228 62.0655C48.2932 57.1283 53.4534 54.0793 53.4534 54.0793C53.4534 54.0793 52.4115 71.3684 52.9399 73.0271Z" fill="#EC7078"/>
<path fill-rule="evenodd" clip-rule="evenodd" d="M116.339 73.4766C116.339 73.4766 119.911 86.4508 123.323 89.0572C123.323 89.0572 107.524 103.528 81.8752 95.4383L104.995 73.0272L116.339 73.4766Z" fill="#833A59"/>
<path fill-rule="evenodd" clip-rule="evenodd" d="M49.7606 69.4744C49.7606 69.4744 44.2391 81.888 40.427 84.0375C40.427 84.0375 57.3083 101.832 84.2436 97.0936L61.2065 70.4824L49.7606 69.4744Z" fill="#833A59"/>
<path fill-rule="evenodd" clip-rule="evenodd" d="M117.009 71.5584C117.009 71.5584 116.667 81.7603 106.362 83.6296C96.0564 85.4989 106.608 39.552 111.728 38.7028C116.849 37.8528 118.173 66.8656 117.009 71.5584Z" fill="#833A59"/>
<path fill-rule="evenodd" clip-rule="evenodd" d="M59.1569 35.6197C59.1569 35.6197 61.9391 23.4199 82.3415 20.1374C102.745 16.8534 118.122 34.4523 119.597 47.8537C121.071 61.2566 112.781 70.1378 107.973 75.8737C103.164 81.6097 50.4612 50.9756 59.1569 35.6197Z" fill="#833A59"/>
<path fill-rule="evenodd" clip-rule="evenodd" d="M58.1205 35.7815C58.1205 35.7815 60.9794 23.5231 81.9437 20.2246C102.909 16.9249 111.67 31.0016 108.471 43.28C105.019 56.5277 106.647 64.0304 101.705 69.7933C96.7642 75.5574 49.1854 51.2113 58.1205 35.7815Z" fill="#914860"/>
<path fill-rule="evenodd" clip-rule="evenodd" d="M109.469 47.5671C112.83 55.3375 112.386 74.4572 105.008 84.8171C97.6271 95.1775 72.4809 103.871 55.1435 92.6076C42.14 84.1578 49.767 76.8163 49.6425 62.3958C49.518 47.9751 43.9318 39.1957 64.3389 31.737C83.7509 24.6427 103.301 33.3062 109.469 47.5671Z" fill="#EF8785"/>
<path fill-rule="evenodd" clip-rule="evenodd" d="M49.3396 53.8939C49.5151 56.8876 49.6567 56.468 49.6575 60.186C49.6622 73.5458 44.6492 78.6267 57.7239 86.1592C71.9126 94.3338 94.9477 86.632 102.401 76.9799C107.194 70.7753 107.249 66.9803 107.929 60.4791C107.929 60.4791 107.742 39.2791 92.7947 33.3514C80.375 28.4271 45.0272 26.472 49.3396 53.8939Z" fill="#F4B09C"/>
<path fill-rule="evenodd" clip-rule="evenodd" d="M58.0537 46.0993C58.0654 46.0924 58.3037 45.8444 58.7262 45.5551C59.1452 45.2649 59.766 44.9576 60.4296 44.7959C61.7681 44.4449 63.1188 44.6884 63.1261 44.6824C64.4396 44.8659 65.3606 45.4002 65.2921 45.5559C65.2221 45.7324 64.2313 45.4905 63.0307 45.3251C63.0146 45.3273 61.76 45.1123 60.5921 45.4265C60.0107 45.5709 59.476 45.8369 59.1138 46.0895C58.7495 46.3406 58.5427 46.5555 58.5354 46.5577C57.6932 47.3552 57.245 48.2122 57.0695 48.1557C56.8823 48.1182 57.0811 47.0276 58.0537 46.0993Z" fill="#C26368"/>
<path fill-rule="evenodd" clip-rule="evenodd" d="M87.4547 42.3068C87.4704 42.2992 88.7563 42.0712 89.9887 42.4847C91.2294 42.8459 92.2693 43.7392 92.2764 43.7443C93.3104 44.5834 93.8365 45.6607 93.6948 45.7776C93.5637 45.898 92.8815 45.1174 91.9331 44.3503C91.9194 44.3384 90.9521 43.5129 89.8248 43.19C88.706 42.8187 87.5429 43.0272 87.5351 43.0332C86.4123 43.2112 85.5071 43.5791 85.4326 43.3858C85.3575 43.2188 86.206 42.511 87.4547 42.3068Z" fill="#C26368"/>
<path fill-rule="evenodd" clip-rule="evenodd" d="M74.9097 56.6946C72.9511 55.4299 72.7276 59.3979 70.5341 60.207C67.6956 61.2548 68.5239 65.2281 72.4006 64.6871C76.9874 64.049 76.3069 57.5975 74.9097 56.6946Z" fill="#F1968C"/>
<path fill-rule="evenodd" clip-rule="evenodd" d="M69.6902 72.0417C69.7051 72.0496 69.9992 72.404 70.5242 72.7993C71.0427 73.1947 71.8347 73.5893 72.6764 73.5914C73.5264 73.6036 74.3713 73.3259 74.9491 73.0268C75.5348 72.729 75.8851 72.4442 75.896 72.4421C77.3014 71.3988 78.1616 70.1921 78.303 70.2896C78.4488 70.3635 77.7741 71.8071 76.2474 72.9457C76.2301 72.9522 75.8489 73.2628 75.202 73.5907C74.5584 73.9193 73.6257 74.2278 72.6461 74.2106C71.647 74.2019 70.7293 73.7321 70.1585 73.2922C69.5768 72.851 69.2659 72.4728 69.253 72.4685C67.9702 71.0515 67.5432 69.5284 67.6928 69.4775C67.8495 69.4014 68.5074 70.7423 69.6902 72.0417Z" fill="#EC7078"/>
<path fill-rule="evenodd" clip-rule="evenodd" d="M109.112 61.1848C109.112 61.1848 119.468 65.0784 118.525 70.4701C117.829 74.4455 109.757 76.5798 109.757 76.5798C109.757 76.5798 110.092 62.5711 109.112 61.1848Z" fill="#EC7078"/>
<path fill-rule="evenodd" clip-rule="evenodd" d="M87.0624 67.7671C90.4335 66.2871 101.452 67.3292 97.677 70.5181C93.9045 73.7075 80.8936 70.4773 87.0624 67.7671Z" fill="#EE8382"/>
<path fill-rule="evenodd" clip-rule="evenodd" d="M51.7952 68.1945C54.0518 65.7014 66.9597 64.3953 63.5381 68.9254C60.1173 73.4534 48.0594 72.3224 51.7952 68.1945Z" fill="#EE8382"/>
<path fill-rule="evenodd" clip-rule="evenodd" d="M69.6623 61.185C69.0581 61.1692 68.4963 62.3431 69.1222 62.3687C69.7486 62.3937 70.4957 61.2073 69.6623 61.185Z" fill="#F3AEA1"/>
<path fill-rule="evenodd" clip-rule="evenodd" d="M110.296 66.9812C110.296 66.9812 112.394 65.1076 114.484 66.3439C116.573 67.5794 116.624 68.4264 115.433 67.8597C114.241 67.2943 111.531 67.4215 110.932 68.3649C110.335 69.3083 113.243 68.7486 114.958 70.0211C116.671 71.2916 113.262 70.2608 111.802 70.321L110.344 70.3824L110.296 66.9812Z" fill="#EA6881"/>
<path fill-rule="evenodd" clip-rule="evenodd" d="M112.001 59.4649C112.001 59.4649 113.718 66.8041 111.63 70.0118C109.542 73.2204 105.56 73.0249 105.56 73.0249C105.56 73.0249 107.847 70.1246 109.021 65.9967C111.413 57.5839 108.235 52.8953 108.235 52.8953C108.235 52.8953 111.413 57.5839 112.001 59.4649Z" fill="#914860"/>
<path fill-rule="evenodd" clip-rule="evenodd" d="M88.8676 50.5352C90.5618 50.6781 90.9992 56.839 87.6832 56.4283C86.3805 56.2674 85.7525 50.2736 88.8676 50.5352Z" fill="#AF4A5C"/>
<path fill-rule="evenodd" clip-rule="evenodd" d="M63.2468 51.7193C64.3763 51.8621 64.6679 58.0231 62.4572 57.6124C61.5888 57.4515 61.1701 51.4577 63.2468 51.7193Z" fill="#AF4A5C"/>
<path fill-rule="evenodd" clip-rule="evenodd" d="M109.722 61.185C109.722 61.185 94.6503 45.027 96.1974 29.2108C96.1974 29.2108 114.176 31.0515 113.727 47.5762C113.277 64.1011 115.714 57.9617 109.722 61.185Z" fill="#914860"/>
<path fill-rule="evenodd" clip-rule="evenodd" d="M100.854 36.2138C100.854 36.2138 65.9485 46.6264 47.5322 40.0704C47.5322 40.0704 64.4152 9.91494 96.4016 25.2873C116.441 34.9189 101.26 36.8973 100.854 36.2138Z" fill="#914860"/>
<path fill-rule="evenodd" clip-rule="evenodd" d="M98.4545 37.0342C98.4545 37.0342 66.3443 42.3437 52.8086 35.1318L49.9011 40.5688C49.9011 40.5688 67.1469 46.0942 98.4545 37.0342Z" fill="#833A59"/>
<path d="M60.1265 146.3C60.1265 146.3 52.5317 147.04 49.6002 137.296C46.6689 127.554 44.7368 125.27 44.7368 125.27C44.7368 125.27 44.8701 124.531 46.6689 125.471C48.4676 126.412 60.1931 129.57 61.3258 135.55C62.525 141.596 61.1925 145.024 60.1265 146.3Z" fill="#5A9B73"/>
<path d="M61.3927 148.583C61.526 148.65 61.6592 148.516 61.7924 148.382C61.9257 148.247 62.1256 148.18 62.1922 148.315C62.1922 148.382 62.1922 148.382 62.1922 148.449C62.1922 149.725 62.1256 151.003 62.1256 152.279C62.1256 153.555 62.0589 154.832 61.9257 156.041C61.9257 156.175 61.859 156.378 61.7259 156.445C61.5926 156.512 61.4593 156.512 61.3261 156.445C61.0595 156.378 60.7931 156.311 60.5267 156.175C60.3934 156.108 60.2601 156.041 60.1935 155.907C60.1269 155.772 60.1269 155.638 60.1269 155.504C60.1935 153.69 60.2601 151.875 60.1935 149.995C60.0602 146.837 58.9277 143.813 57.7951 140.924C56.5293 137.766 54.9969 134.541 52.6652 132.055C52.332 131.719 51.5326 131.047 51.8657 130.778C52.1989 130.442 53.1982 131.249 53.4647 131.584C58.7278 137.363 61.526 148.449 61.6592 148.987C61.6592 149.121 61.7259 149.188 61.6592 149.322C61.5926 149.658 61.3927 149.928 61.0596 150.062C60.5932 150.196 60.1269 149.928 59.9936 149.457C59.9936 149.457 60.1935 148.784 59.927 147.709C59.927 147.709 59.927 147.709 59.927 147.642L61.3927 148.583Z" fill="#73A56D"/>
<path d="M62.5916 147.575C62.5916 147.575 67.3219 149.457 70.9861 143.813C74.6503 138.168 76.3158 137.093 76.3158 137.093C76.3158 137.093 76.3824 136.624 75.05 136.892C73.7175 137.161 65.6562 136.959 63.8575 140.588C61.992 144.149 62.1919 146.567 62.5916 147.575Z" fill="#5A9B73"/>
<path d="M61.0596 149.188C60.9929 149.39 61.1262 149.658 61.326 149.792C61.5925 149.926 61.9257 149.859 62.1255 149.591C62.1255 149.591 62.1255 149.121 62.5253 148.516C63.7245 146.433 66.9224 141.865 70.1201 139.916C70.3867 139.782 71.0529 139.513 70.853 139.244C70.7197 138.975 69.9203 139.311 69.6538 139.445C65.2567 142.133 61.3926 148.65 61.1928 148.987C61.0596 149.054 61.0596 149.121 61.0596 149.188Z" fill="#73A56D"/>
</g>
</svg>
