<svg width="183" height="400" viewBox="0 0 183 400" fill="none" xmlns="http://www.w3.org/2000/svg">
<path fill-rule="evenodd" clip-rule="evenodd" d="M182.671 391.714C182.671 396.29 141.778 400 91.3359 400C40.8926 400 0 396.29 0 391.714C0 387.138 40.8926 383.429 91.3359 383.429C141.778 383.429 182.671 387.138 182.671 391.714Z" fill="#69B2B0"/>
<path fill-rule="evenodd" clip-rule="evenodd" d="M96.4868 389.521C96.7042 385.969 99.4868 383.176 102.877 383.224L126.691 383.557L126.6 389.944L96.4868 389.521Z" fill="#529697"/>
<path fill-rule="evenodd" clip-rule="evenodd" d="M44.0083 388.888C44.2368 385.336 47.1866 382.545 50.7842 382.597L76.0537 382.951L75.9634 389.337L44.0083 388.888Z" fill="#529697"/>
<path fill-rule="evenodd" clip-rule="evenodd" d="M97.1073 137.466C97.1073 137.466 70.4051 170.988 48.14 188.287C45.45 190.375 39.8268 176.074 50.7866 142.321L53.2905 143.258C53.2905 143.258 50.0798 158.158 52.6127 175.615C52.6127 175.615 67.0484 162.885 90.0103 136.261C90.5075 135.685 85.3103 129.43 85.3103 129.43C85.3103 129.43 91.998 131.56 97.1073 137.466Z" fill="#F4B09C"/>
<path fill-rule="evenodd" clip-rule="evenodd" d="M66.8856 111.015C66.8856 111.015 80.6124 123.79 78.997 137.288C78.997 137.288 59.8879 144.76 53.4287 140.662C53.4287 140.662 40.7788 118.245 66.8856 111.015Z" fill="#CED87C"/>
<path fill-rule="evenodd" clip-rule="evenodd" d="M95.3207 207.656C94.6997 207.489 94.1479 207.128 93.7811 206.6L93.6362 206.39C87.4088 197.597 56.2731 152.687 54.583 131.816C53.5674 119.21 60.7736 110.312 73.3933 108.593C79.0912 107.812 88.0086 112.402 88.6296 112.83C89.2159 113.239 89.6307 113.885 89.7065 114.548C89.8547 115.881 88.7622 117.073 87.2706 117.208C86.5248 117.276 85.8146 117.069 85.2773 116.668C83.7823 115.815 77.2673 112.986 74.2083 113.403C64.5071 114.725 59.195 121.475 59.9988 131.465C61.2374 146.746 81.3643 179.975 98.2237 203.781L98.4199 204.069C99.2002 205.216 98.7855 206.714 97.5068 207.407C96.8246 207.777 96.0264 207.845 95.3207 207.656Z" fill="#47B6AF"/>
<path fill-rule="evenodd" clip-rule="evenodd" d="M166.081 176.723C166.886 219.206 142.9 254.028 112.495 254.497L110.635 112.097C145.351 100.571 165.272 134.229 166.081 176.723Z" fill="#249F9C"/>
<path fill-rule="evenodd" clip-rule="evenodd" d="M48.6407 240.142C48.6407 240.142 43.7143 284.138 47.5526 306.487C51.3909 328.837 66.6461 382.336 66.6461 382.336C66.6461 382.336 73.6862 382.928 79.6616 382.291C79.6616 382.291 78.0061 321.236 79.5836 287.371C81.161 253.505 87.3984 247.828 87.3984 247.828C87.3984 247.828 95.3136 269.551 95.9 296.957C96.4853 324.361 110.152 383.058 110.152 383.058C110.152 383.058 116.616 384.712 125.307 383.256C125.307 383.256 132.31 298.576 134.441 272.768C136.575 246.962 131.101 222.001 131.101 222.001L48.6407 240.142Z" fill="#83648F"/>
<path fill-rule="evenodd" clip-rule="evenodd" d="M58.7703 158.364C58.7703 158.364 70.9352 162.927 85.6976 162.074C94.7633 161.551 102.437 161.757 109.324 162.08C116.211 162.404 128.658 163.833 128.658 163.833L141.991 248.299C142.145 249.269 141.356 250.154 140.265 250.229C131.76 250.807 96.5849 252.829 41.3223 251.03C41.3223 251.03 51.8773 161.785 58.7703 158.364Z" fill="#CED87C"/>
<path fill-rule="evenodd" clip-rule="evenodd" d="M117.058 173.27C113.547 169.644 97.4045 164.201 90.2207 166.148C27.8555 181.149 59.066 222.764 57.2377 251.458C83.6332 252.019 104.523 251.706 118.985 251.238C122.797 225.338 135.94 192.782 117.058 173.27Z" fill="#CED87C"/>
<path fill-rule="evenodd" clip-rule="evenodd" d="M77.6694 108.907C77.6694 108.907 92.8198 109.656 102.619 109.895C109.058 110.052 122.541 107.816 131.779 111.681C131.779 111.681 137.827 114.531 141.511 116.686C152.247 122.97 129.001 166.321 129.001 166.321C129.001 166.321 75.578 164.897 62.4199 162.692C49.2628 160.487 41.8091 144.64 47.2684 135.723C53.0844 126.218 70.276 112.492 77.6694 108.907Z" fill="#B9C165"/>
<path fill-rule="evenodd" clip-rule="evenodd" d="M77.6689 108.907C77.6689 108.907 92.8193 109.656 102.619 109.895C109.058 110.052 122.54 107.816 131.779 111.681C131.779 111.681 137.827 114.531 141.51 116.686C152.247 122.97 109.261 149.728 109.261 149.728C109.261 149.728 86.2731 154.454 73.1149 152.249C59.9589 150.044 41.8086 144.64 47.2679 135.723C53.0839 126.218 70.2755 112.492 77.6689 108.907Z" fill="#CED87C"/>
<path fill-rule="evenodd" clip-rule="evenodd" d="M94.3386 89.8031C94.3386 89.8031 101.881 96.6391 99.469 102.087C97.0543 107.535 82.3688 112.008 82.3688 112.008C82.3688 112.008 63.835 127.385 80.351 132.39C104.161 139.607 122.713 112.56 122.713 112.56C122.713 112.56 108.045 108.272 107.315 101.93C106.858 97.9593 114.389 87.834 114.389 87.834C114.389 87.834 101.12 84.615 94.3386 89.8031Z" fill="#F4B09C"/>
<path fill-rule="evenodd" clip-rule="evenodd" d="M115.107 109.607C112.557 107.47 110.705 105.045 110.401 102.389C109.674 96.0801 121.637 79.9929 121.637 79.9929C121.637 79.9929 98.574 80.1746 87.7993 88.4178C87.7993 88.4178 101.767 93.9828 97.9341 102.639C97.1024 104.515 95.3533 106.318 93.1248 107.994C100.261 106.746 107.721 107.752 115.107 109.607Z" fill="#EA8082"/>
<path fill-rule="evenodd" clip-rule="evenodd" d="M145.164 217.363C144.508 217.152 143.94 216.736 143.58 216.149L143.439 215.916C137.327 206.147 106.831 156.284 106.383 133.782C106.118 120.191 114.439 111.015 128.103 109.832C134.274 109.292 143.549 114.691 144.188 115.182C144.791 115.651 145.194 116.367 145.231 117.083C145.304 118.523 144.053 119.745 142.443 119.811C141.637 119.846 140.888 119.585 140.336 119.128C138.787 118.133 131.976 114.752 128.664 115.039C118.159 115.95 112.012 122.92 112.223 133.688C112.551 150.164 131.989 186.905 148.535 213.355L148.727 213.674C149.49 214.947 148.947 216.533 147.529 217.211C146.771 217.572 145.91 217.604 145.164 217.363Z" fill="#47B6AF"/>
<path fill-rule="evenodd" clip-rule="evenodd" d="M143.862 126.441C143.862 126.441 156.774 166.966 158.575 194.653C158.793 197.998 143.538 194.297 121.414 166.211L123.637 164.748C123.637 164.748 134.336 175.848 150.475 183.823C150.475 183.823 148.033 165.005 138.783 131.418C138.583 130.692 130.344 131.259 130.344 131.259C130.344 131.259 135.966 127.138 143.862 126.441Z" fill="#F4B09C"/>
<path fill-rule="evenodd" clip-rule="evenodd" d="M123.637 164.749C123.637 164.749 119.409 156.389 119.061 152.789C118.467 146.649 113.149 144.67 112.615 148.515C112.615 148.515 111.915 146.379 110.985 147.767C110.054 149.156 110.916 151.294 110.916 151.294C110.916 151.294 109.915 148.728 109.055 149.584C108.193 150.438 109.381 153.323 112.872 157.276C116.363 161.23 122.74 167.534 122.74 167.534C122.74 167.534 123.655 166.966 123.637 164.749Z" fill="#F4B09C"/>
<path fill-rule="evenodd" clip-rule="evenodd" d="M143.054 120.174C143.054 120.174 156.781 132.95 155.166 146.448C155.166 146.448 136.057 153.92 129.598 149.822C129.598 149.822 116.947 127.405 143.054 120.174Z" fill="#CED87C"/>
<path fill-rule="evenodd" clip-rule="evenodd" d="M73.8008 66.4323C73.8008 66.4323 65.9023 61.7325 66.6826 53.8127C67.259 47.9734 73.4708 44.1267 73.4708 44.1267C73.4708 44.1267 73.065 64.5089 73.8008 66.4323Z" fill="#EC7078"/>
<path fill-rule="evenodd" clip-rule="evenodd" d="M147.445 63.603C147.445 63.603 152.315 79.3211 156.447 82.3495C156.447 82.3495 134.987 99.9107 104.531 91.2371L134.141 63.5974L147.445 63.603Z" fill="#833A59"/>
<path fill-rule="evenodd" clip-rule="evenodd" d="M70.2231 62.1008C70.2231 62.1008 64.4963 77.5424 60.2031 80.3511C60.2031 80.3511 80.66 101.308 111.549 94.2351L83.5095 62.7899L70.2231 62.1008Z" fill="#833A59"/>
<path fill-rule="evenodd" clip-rule="evenodd" d="M147.441 62.2474C147.441 62.2474 147.596 74.7008 136.155 77.4526C124.714 80.2056 134.107 23.7074 139.796 22.4363C145.485 21.1652 148.498 56.4728 147.441 62.2474Z" fill="#833A59"/>
<path fill-rule="evenodd" clip-rule="evenodd" d="M78.3608 21.0159C78.3608 21.0159 80.9739 5.91326 104.708 0.903571C128.444 -4.10724 147.398 16.7466 149.837 33.1181C152.275 49.493 143.032 60.7891 137.703 68.0589C132.371 75.3276 68.9863 40.2764 78.3608 21.0159Z" fill="#833A59"/>
<path fill-rule="evenodd" clip-rule="evenodd" d="M78.3607 21.016C78.3607 21.016 80.9738 5.91332 104.708 0.903626C128.444 -4.10718 139.178 12.6713 136.178 27.8153C132.941 44.1533 135.194 53.2384 129.863 60.507C124.533 67.7768 68.9862 40.2765 78.3607 21.016Z" fill="#914860"/>
<path fill-rule="evenodd" clip-rule="evenodd" d="M138.475 33.3759C142.788 42.6939 143.281 66.0353 135.26 79.0228C127.235 92.0126 98.492 103.815 77.7653 90.9031C62.2191 81.2171 70.6873 71.8991 69.7821 54.3155C68.8779 36.7331 61.9271 26.2911 85.2323 16.2205C107.4 6.64039 130.56 16.2762 138.475 33.3759Z" fill="#EF8785"/>
<path fill-rule="evenodd" clip-rule="evenodd" d="M68.668 43.7854C69.0292 47.4013 69.1719 46.8862 69.367 51.3874C70.0726 67.5594 64.5119 73.9494 80.1015 82.4446C97.0189 91.6623 123.388 81.2393 131.545 69.1995C136.79 61.4603 136.655 56.8632 137.104 48.9612C137.104 48.9612 135.778 23.3062 118.096 16.8436C103.403 11.4749 62.2199 10.7948 68.668 43.7854Z" fill="#F4B09C"/>
<path fill-rule="evenodd" clip-rule="evenodd" d="M78.4541 33.7796C78.4664 33.7706 78.7172 33.4819 79.1687 33.1362C79.6169 32.7906 80.2858 32.4159 81.0093 32.2041C82.4675 31.748 83.968 31.961 83.9758 31.9543C85.4329 32.1015 86.4741 32.6623 86.4061 32.8396C86.337 33.0414 85.2333 32.814 83.9022 32.6824C83.8844 32.6857 82.4909 32.4995 81.22 32.9065C80.5857 33.0961 80.0093 33.4205 79.6213 33.7205C79.2323 34.0193 79.0149 34.2713 79.0071 34.2746C78.1175 35.2101 77.666 36.1958 77.4686 36.14C77.2613 36.1055 77.4274 34.8689 78.4541 33.7796Z" fill="#C26368"/>
<path fill-rule="evenodd" clip-rule="evenodd" d="M112.324 27.7911C112.343 27.7822 113.914 27.49 115.448 27.8413C116.991 28.139 118.308 28.9786 118.318 28.983C119.626 29.7691 120.32 30.8183 120.151 30.9421C119.995 31.0692 119.122 30.3244 117.921 29.6052C117.904 29.5941 116.678 28.8191 115.278 28.5538C113.885 28.2393 112.464 28.5069 112.454 28.5125C111.079 28.7467 109.982 29.1603 109.882 28.9708C109.783 28.808 110.796 28.0576 112.324 27.7911Z" fill="#C26368"/>
<path fill-rule="evenodd" clip-rule="evenodd" d="M98.507 45.8372C95.953 44.4791 95.866 49.074 93.1169 50.1233C89.5595 51.4813 90.8114 56.0283 95.7155 55.201C101.517 54.2242 100.33 46.8073 98.507 45.8372Z" fill="#F1968C"/>
<path fill-rule="evenodd" clip-rule="evenodd" d="M92.5891 64.5798C92.6081 64.5887 92.9927 64.9924 93.666 65.4317C94.3316 65.871 95.3383 66.2969 96.3862 66.2556C97.4453 66.2267 98.4832 65.8565 99.1877 65.474C99.9012 65.0916 100.323 64.7381 100.337 64.7348C102.034 63.4325 103.043 61.964 103.223 62.0722C103.408 62.1513 102.643 63.8896 100.8 65.3112C100.779 65.3202 100.319 65.706 99.5311 66.1252C98.7463 66.5455 97.6013 66.9581 96.3795 66.9871C95.1354 67.0283 93.9693 66.521 93.2357 66.0315C92.4888 65.5409 92.083 65.1105 92.0663 65.1061C90.3963 63.4994 89.7876 61.7243 89.9715 61.6563C90.1622 61.5582 91.0496 63.1069 92.5891 64.5798Z" fill="#EC7078"/>
<path fill-rule="evenodd" clip-rule="evenodd" d="M138.596 49.4529C138.596 49.4529 149.933 53.8292 149.211 60.565C148.676 65.53 140.115 68.5361 140.115 68.5361C140.115 68.5361 139.723 51.1309 138.596 49.4529Z" fill="#EC7078"/>
<path fill-rule="evenodd" clip-rule="evenodd" d="M112.861 58.6087C116.595 56.3943 129.157 57.3298 125.067 61.938C120.98 66.5475 106.026 62.6628 112.861 58.6087Z" fill="#EE8382"/>
<path fill-rule="evenodd" clip-rule="evenodd" d="M72.4876 61.1412C74.851 57.9623 89.0627 55.7658 85.5198 61.5091C81.9769 67.2502 68.5746 66.4028 72.4876 61.1412Z" fill="#EE8382"/>
<path fill-rule="evenodd" clip-rule="evenodd" d="M92.9711 50.9471C92.1205 50.9571 91.4104 52.8147 92.2911 52.818C93.174 52.8214 94.1439 50.9337 92.9711 50.9471Z" fill="#F3AEA1"/>
<path fill-rule="evenodd" clip-rule="evenodd" d="M139.595 56.5596C139.595 56.5596 142.095 54.1835 144.75 55.5739C147.402 56.9654 147.51 57.9879 146.004 57.3624C144.498 56.738 141.147 57.0301 140.454 58.2031C139.764 59.3761 143.337 58.551 145.529 60.0049C147.718 61.4566 143.441 60.3807 141.636 60.5279L139.831 60.6773L139.595 56.5596Z" fill="#EA6881"/>
<path fill-rule="evenodd" clip-rule="evenodd" d="M141.938 47.6358C141.938 47.6358 144.551 56.2536 141.996 60.1717C139.439 64.092 134.243 64.072 134.243 64.072C134.243 64.072 137.074 60.5084 138.39 55.5467C141.074 45.4347 136.694 40.0415 136.694 40.0415C136.694 40.0415 141.074 45.4347 141.938 47.6358Z" fill="#914860"/>
<path fill-rule="evenodd" clip-rule="evenodd" d="M114.046 33.55C115.631 33.6648 116.373 41.423 113.264 41.0316C112.043 40.8778 111.132 33.3392 114.046 33.55Z" fill="#AF4A5C"/>
<path fill-rule="evenodd" clip-rule="evenodd" d="M84.617 37.3869C86.2022 37.5018 86.9447 45.26 83.8355 44.8686C82.6148 44.7147 81.7028 37.1751 84.617 37.3869Z" fill="#AF4A5C"/>
<path fill-rule="evenodd" clip-rule="evenodd" d="M139.381 48.8966C139.381 48.8966 120.825 30.3029 121.826 11.3166C121.826 11.3166 143.06 12.6502 143.385 32.4303C143.711 52.2115 146.258 44.7533 139.381 48.8966Z" fill="#914860"/>
<path fill-rule="evenodd" clip-rule="evenodd" d="M127.763 19.5775C127.763 19.5775 88.0269 34.0781 66.4184 26.8618C66.4184 26.8618 84.2979 -11.1374 122.041 6.31016C145.688 17.2416 128.27 20.4015 127.763 19.5775Z" fill="#914860"/>
<path fill-rule="evenodd" clip-rule="evenodd" d="M124.009 20.5565C124.009 20.5565 87.344 28.628 71.3843 20.3647L68.3286 27.2142C68.3286 27.2142 88.4678 33.2196 124.009 20.5565Z" fill="#833A59"/>
</svg>
