<svg width="232" height="200" viewBox="0 0 232 200" fill="none" xmlns="http://www.w3.org/2000/svg">
<path fill-rule="evenodd" clip-rule="evenodd" d="M131.947 200C187.176 200 231.947 155.228 231.947 100C231.947 44.7715 187.176 0 131.947 0C76.7189 0 31.9474 44.7715 31.9474 100C31.9474 155.228 76.7189 200 131.947 200Z" fill="#93CFB9"/>
<mask id="mask0_5622_9664" style="mask-type:luminance" maskUnits="userSpaceOnUse" x="31" y="0" width="201" height="200">
<path fill-rule="evenodd" clip-rule="evenodd" d="M131.947 200C187.176 200 231.947 155.228 231.947 100C231.947 44.7715 187.176 0 131.947 0C76.7189 0 31.9474 44.7715 31.9474 100C31.9474 155.228 76.7189 200 131.947 200Z" fill="white"/>
</mask>
<g mask="url(#mask0_5622_9664)">
<path fill-rule="evenodd" clip-rule="evenodd" d="M184.208 182.532L174.196 152.761C174.196 152.761 170.227 144.338 169.172 143.646C168.119 142.954 156.267 143.235 156.267 143.235L156.294 146.817C156.294 146.817 153.403 173.48 156.294 204.926L184.208 182.532Z" fill="#E29E00"/>
<path fill-rule="evenodd" clip-rule="evenodd" d="M162.858 123.524C162.858 123.524 154.718 123.471 154.397 144.941C154.397 144.941 159.173 147.899 162.858 147.641L162.858 123.524Z" fill="#388994"/>
<path fill-rule="evenodd" clip-rule="evenodd" d="M264.54 153.589C255.257 122.365 218.046 49.3825 191.451 54.5793C167.904 59.1821 162.449 105.201 163.25 142.398L264.54 153.589Z" fill="#E29E00"/>
<path fill-rule="evenodd" clip-rule="evenodd" d="M235.43 20.5842C233.845 14.4419 230.698 15.4277 225.605 21.5871C223.171 24.529 222 25.5954 219.831 28.0635C207.037 26.1577 196.045 26.6857 186.659 28.6957C177.208 30.3753 166.835 34.0311 155.718 40.6199C152.772 39.1536 151.281 38.6083 147.91 36.8025C140.854 33.0228 137.566 33.2978 138.437 39.5803C140.701 55.9348 144.404 58.3765 144.772 65.0702C145.34 75.4665 155.517 108.232 155.746 108.084C160.47 105.07 166.055 104.223 166.055 104.223C163.155 106.449 162.192 109.404 162.192 109.404C169.242 108.761 174.358 109.603 184.019 110.906C186.044 111.177 194.701 112.731 202.637 111.193C210.938 109.581 218.524 104.847 220.375 103.785C228.82 98.9352 233.236 96.228 240.005 94.1644C240.005 94.1644 237.99 91.7934 234.459 90.826C234.459 90.826 239.95 89.504 245.471 90.5127C245.738 90.561 242.692 56.4002 239.263 46.5635C237.057 40.2308 239.555 36.5733 235.43 20.5842Z" fill="#FAB400"/>
<path fill-rule="evenodd" clip-rule="evenodd" d="M144.784 40.4805C140.263 37.424 140.998 41.1819 141.612 43.4994C143.598 50.9915 145.657 57.0009 145.657 57.0009C146.9 57.2433 152.794 48.558 152.863 47.1206C152.935 45.6381 147.617 42.3966 144.784 40.4805Z" fill="#E94F1D"/>
<path fill-rule="evenodd" clip-rule="evenodd" d="M229.683 23.9753C232.94 19.2555 233.698 23.1322 234.005 25.5874C235.004 33.5213 235.345 40.0721 235.345 40.0721C234.212 40.8007 224.964 34.8741 224.328 33.5301C223.673 32.1468 227.643 26.9327 229.683 23.9753Z" fill="#E94F1D"/>
<path fill-rule="evenodd" clip-rule="evenodd" d="M173.05 69.6552C172.804 68.3995 173.621 67.1817 174.876 66.9353C176.133 66.6874 177.351 67.5047 177.598 68.7603C177.845 70.016 177.028 71.2366 175.77 71.4832C174.516 71.7309 173.296 70.9109 173.05 69.6552Z" fill="#BB7817"/>
<path fill-rule="evenodd" clip-rule="evenodd" d="M209.062 62.4903C208.815 61.2345 209.634 60.0166 210.889 59.7702C212.145 59.5224 213.363 60.3396 213.61 61.5954C213.858 62.8511 213.039 64.0719 211.784 64.3183C210.529 64.5647 209.308 63.7461 209.062 62.4903Z" fill="#BB7817"/>
<path fill-rule="evenodd" clip-rule="evenodd" d="M188.888 97.0384C188.888 97.0384 201.288 111.845 211.779 92.1096L196.103 87.3404L188.888 97.0384Z" fill="#F2DA9A"/>
<path fill-rule="evenodd" clip-rule="evenodd" d="M213.698 81.2286C209.493 80.1981 205.039 82.6584 200.889 83.0867C200.155 83.1626 199.594 82.8232 199.26 82.3353C197.028 82.8085 194.785 83.0925 192.52 82.9993C192.241 83.496 191.736 83.8716 191.024 83.8831C185.602 83.9697 178.347 85.1646 177.214 91.4923C178.566 95.2895 183.818 97.4238 189.473 96.3121C193.983 95.4253 197.47 92.721 198.603 89.6221C200.826 92.0611 205.08 93.2427 209.589 92.3561C212.615 91.7617 215.182 90.3506 216.886 88.5514C217.757 85.4285 217.486 82.1571 213.698 81.2286Z" fill="#F7EDC9"/>
<path fill-rule="evenodd" clip-rule="evenodd" d="M204.18 79.3109C203.381 77.4898 196.498 78.9186 196.327 78.9555C196.155 78.9883 189.254 80.3172 189.191 82.3107C189.114 84.8081 197.941 87.2119 197.941 87.2119C197.941 87.2119 205.184 81.5913 204.18 79.3109Z" fill="#E24854"/>
<path fill-rule="evenodd" clip-rule="evenodd" d="M149.444 117.158L148.436 116.648C158.376 96.8419 182.293 92.9739 182.533 92.9365L182.705 94.0553C182.47 94.0923 159.119 97.8809 149.444 117.158Z" fill="#F2DA9A"/>
<path fill-rule="evenodd" clip-rule="evenodd" d="M147.859 94.0334L147.444 92.9773C165.721 85.685 180.279 89.8705 180.423 89.9128L180.108 91.002C179.968 90.9608 165.755 86.8932 147.859 94.0334Z" fill="#F2DA9A"/>
<path fill-rule="evenodd" clip-rule="evenodd" d="M209.932 85.7094L209.273 84.7533C209.524 84.5725 234.562 66.7063 255.96 78.3499L255.431 79.3834C234.653 68.0769 210.175 85.5306 209.932 85.7094Z" fill="#F2DA9A"/>
<path fill-rule="evenodd" clip-rule="evenodd" d="M240.362 93.5396C226.605 83.7225 209.49 90.0581 209.319 90.1213L208.912 89.0872C209.088 89.0182 226.762 82.4615 241.026 92.641L240.362 93.5396Z" fill="#F2DA9A"/>
<path fill-rule="evenodd" clip-rule="evenodd" d="M264.586 154.249C260.294 140.697 251.508 120.62 240.82 102.138C237.808 104.664 234.601 106.898 231.254 108.84C210.895 120.651 186.394 122.129 163.302 119.772C161.449 134.415 162.126 166.393 162.278 178.638L264.586 154.249Z" fill="#6BBDC8"/>
<path fill-rule="evenodd" clip-rule="evenodd" d="M265.247 154.203C260.316 140.645 252.261 123.041 242.766 106.649C239.631 109.275 236.293 111.596 232.809 113.614C211.619 125.887 186.118 127.424 162.086 124.98C160.484 137.594 156.224 187.374 164.329 203.161L265.247 154.203Z" fill="#51A6B8"/>
</g>
<path fill-rule="evenodd" clip-rule="evenodd" d="M52.5364 153.81L54.1647 155.584L67.0358 143.007L65.4075 141.233L52.5364 153.81Z" fill="#898F90"/>
<path fill-rule="evenodd" clip-rule="evenodd" d="M50.418 152.775L54.5093 156.971L70.2303 141.475L66.1382 137.28L50.418 152.775Z" fill="#898F90"/>
<path fill-rule="evenodd" clip-rule="evenodd" d="M61.5688 151.223L25.3024 187.157L19.6566 181.337L55.9231 145.403L61.5688 151.223Z" fill="#E9A600"/>
<path fill-rule="evenodd" clip-rule="evenodd" d="M61.5735 151.256L24.9247 187.21L22.0803 184.307L58.729 148.352L61.5735 151.256Z" fill="#F7CC0E"/>
<path fill-rule="evenodd" clip-rule="evenodd" d="M51.9725 113.456C52.67 123.399 56.7651 132.685 63.6836 139.973C80.0514 157.213 107.436 157.948 124.738 141.613C133.114 133.704 137.909 123.004 138.229 111.506C138.547 100.004 134.354 89.0628 126.429 80.7152C110.06 63.4734 82.6762 62.7357 65.3767 79.0691C56.9986 86.9793 52.2024 97.6805 51.8828 109.179C51.8428 110.607 51.873 112.034 51.9725 113.456L54.2847 113.294L51.9725 113.456ZM123.129 83.8303C129.319 90.3501 132.984 98.661 133.608 107.558L133.608 107.558C133.697 108.826 133.724 110.102 133.688 111.384C133.402 121.673 129.111 131.248 121.616 138.325C106.134 152.942 81.6299 152.285 66.9831 136.857C60.7776 130.321 57.1281 122.007 56.5037 113.138C56.4144 111.87 56.387 110.589 56.4229 109.302C56.7095 99.0112 61.0017 89.4345 68.4989 82.3571C83.9787 67.7415 108.482 68.4017 123.129 83.8303ZM129.054 111.255C129.086 110.124 129.062 108.999 128.984 107.882L131.296 107.72L128.984 107.882C128.435 100.06 125.217 92.7623 119.767 87.0221C106.88 73.4473 85.3038 72.8659 71.6813 85.7279C65.0787 91.9608 61.3092 100.371 61.0568 109.431C60.8045 118.489 64.1002 127.088 70.345 133.666C83.2317 147.239 104.809 147.818 118.434 134.954C125.034 128.722 128.802 120.313 129.054 111.255ZM68.5592 82.4399C61.0756 89.5054 56.8021 99.0405 56.5167 109.308C56.4809 110.585 56.5079 111.861 56.5969 113.132C57.2191 122.001 60.8672 130.273 67.0456 136.781C81.6533 152.167 106.111 152.824 121.556 138.242C129.037 131.178 133.31 121.644 133.595 111.378C133.879 101.108 130.144 91.3611 123.067 83.9069C108.458 68.5189 84.0013 67.8601 68.5592 82.4399Z" fill="white"/>
<path fill-rule="evenodd" clip-rule="evenodd" d="M92.149 119.884C92.1109 119.54 92.0918 119.216 92.0918 118.911V117.881C92.0918 115.973 92.4541 114.294 93.1785 112.844C93.903 111.394 95.1231 110.097 96.839 108.953L99.3555 107.236C100.347 106.587 101.1 105.767 101.615 104.775C102.129 103.783 102.387 102.733 102.387 101.627C102.387 100.788 102.244 99.9768 101.958 99.1946C101.672 98.4124 101.252 97.7161 100.7 97.1057C100.147 96.4952 99.4413 96.0087 98.5834 95.6462C97.7255 95.2838 96.7246 95.1025 95.5807 95.1025C94.3224 95.1025 93.2453 95.3124 92.3492 95.7321C91.4532 96.1518 90.7192 96.705 90.1472 97.3918C89.5753 98.0786 89.1463 98.8607 88.8604 99.7383C88.5744 100.616 88.4314 101.512 88.4314 102.428C88.4314 102.924 88.4695 103.439 88.5458 103.973C88.6221 104.508 88.7174 104.927 88.8318 105.233L83.2839 104.546C83.0551 103.745 82.9407 102.829 82.9407 101.799C82.9407 100.501 83.1886 99.1565 83.6843 97.7638C84.18 96.3712 84.9425 95.1025 85.972 93.9579C87.0015 92.8133 88.3075 91.8785 89.8899 91.1536C91.4723 90.4286 93.3692 90.0662 95.5807 90.0662C97.5635 90.0662 99.3365 90.3905 100.9 91.0391C102.463 91.6877 103.779 92.5462 104.846 93.6145C105.914 94.6829 106.724 95.9133 107.277 97.306C107.83 98.6986 108.106 100.12 108.106 101.57C108.106 103.859 107.553 105.814 106.448 107.436C105.342 109.058 103.95 110.422 102.272 111.528L99.6415 113.302C98.7645 113.913 98.1259 114.704 97.7255 115.677C97.3251 116.65 97.125 117.69 97.125 118.796V119.226C97.125 119.359 97.144 119.579 97.1822 119.884H92.149ZM90.8908 128.068C90.8908 127.038 91.253 126.151 91.9775 125.407C92.7019 124.663 93.5789 124.291 94.6084 124.291C95.6379 124.291 96.5244 124.663 97.268 125.407C98.0115 126.151 98.3833 127.038 98.3833 128.068C98.3833 129.098 98.0115 129.976 97.268 130.701C96.5244 131.426 95.6379 131.788 94.6084 131.788C93.5789 131.788 92.7019 131.426 91.9775 130.701C91.253 129.976 90.8908 129.098 90.8908 128.068Z" fill="white"/>
</svg>
