<svg width="196" height="200" viewBox="0 0 196 200" fill="none" xmlns="http://www.w3.org/2000/svg">
<path fill-rule="evenodd" clip-rule="evenodd" d="M177.824 199.369C161.591 136.957 127.111 53.0072 90.4692 54.2729C54.9119 55.5018 26.964 136.645 14.5034 199.369H177.824Z" fill="#E29E00"/>
<path fill-rule="evenodd" clip-rule="evenodd" d="M173.929 7.94896C172.934 -2.89481 167.376 -2.08038 157.143 6.97756C152.253 11.3044 149.994 12.7941 145.678 16.3894C124.687 9.67999 106.066 7.58913 89.7439 8.4465C73.4009 8.72341 54.9692 12.1011 34.4932 20.2513C29.9388 16.964 27.5826 15.6342 22.4059 11.6568C11.5692 3.3304 5.96977 2.90393 5.72587 13.7906C5.09172 42.1328 10.6527 47.28 9.45242 58.728C7.58545 76.5092 15.7924 134.824 16.2182 134.639C24.9795 130.811 34.5981 130.894 34.5981 130.894C29.1184 133.881 26.6971 138.628 26.6971 138.628C38.7223 139.453 47.0934 142.269 62.9811 147.106C66.31 148.117 80.4401 153.104 94.1992 152.653C108.591 152.177 122.628 146.214 126.028 144.915C141.543 138.989 149.698 135.598 161.639 133.941C161.639 133.941 158.896 129.373 153.222 126.773C153.222 126.773 162.811 126.025 171.817 129.234C172.254 129.391 176.409 70.6453 173.319 53.0373C171.329 41.7004 176.522 36.1801 173.929 7.94896Z" fill="#FAB400"/>
<path fill-rule="evenodd" clip-rule="evenodd" d="M16.6687 16.571C9.59495 10.1504 9.83847 16.7107 10.272 20.8033C11.6693 34.0268 13.604 44.7636 13.604 44.7636C15.7154 45.518 28.4612 32.4518 28.9824 30.0371C29.5184 27.5504 21.0994 20.5945 16.6687 16.571Z" fill="#E94F1D"/>
<path fill-rule="evenodd" clip-rule="evenodd" d="M165.371 9.93953C172.052 3.05989 172.27 9.61067 172.121 13.7156C171.647 26.983 170.455 37.8075 170.455 37.8075C168.378 38.7045 154.602 26.5631 153.907 24.1936C153.19 21.7535 161.187 14.25 165.371 9.93953Z" fill="#E94F1D"/>
<path fill-rule="evenodd" clip-rule="evenodd" d="M56.7545 75.8385C56.6823 73.7496 58.3161 71.999 60.4021 71.9267C62.4938 71.853 64.2446 73.4865 64.3169 75.5769C64.3891 77.6658 62.7553 79.4193 60.6635 79.493C58.5776 79.5653 56.8267 77.9274 56.7545 75.8385Z" fill="#BB7817"/>
<path fill-rule="evenodd" clip-rule="evenodd" d="M118.552 73.9463C118.479 71.8578 120.116 70.1075 122.203 70.0338C124.29 69.9615 126.042 71.5948 126.114 73.6833C126.186 75.7733 124.551 77.5265 122.464 77.6002C120.377 77.6724 118.624 76.0349 118.552 73.9463Z" fill="#BB7817"/>
<path fill-rule="evenodd" clip-rule="evenodd" d="M69.9946 106.184C69.9946 106.184 94.0386 152.725 120.441 103.809L94.0386 97.1609L69.9946 106.184Z" fill="#F2DA9A"/>
<path fill-rule="evenodd" clip-rule="evenodd" d="M79.4534 104.742C79.4534 104.742 94.7829 134.083 111.613 103.246L94.7829 99.0537L79.4534 104.742Z" fill="#E24854"/>
<path fill-rule="evenodd" clip-rule="evenodd" d="M123.038 89.1707C116.219 86.3185 108.028 89.232 100.906 88.8306C99.6435 88.7605 98.788 88.0424 98.3587 87.1389C94.4601 87.3271 90.594 87.2002 86.7972 86.4353C86.1909 87.1885 85.2366 87.6818 84.0299 87.5081C74.8536 86.1959 62.2757 86.2426 58.644 96.5142C59.8934 103.227 68.1818 108.207 78.0323 107.87C85.8885 107.6 92.5131 104.018 95.2685 99.1415C98.3587 103.818 105.221 106.938 113.074 106.667C118.344 106.486 123.062 104.818 126.429 102.268C128.75 97.2834 129.182 91.7411 123.038 89.1707Z" fill="#F7EDC9"/>
<path fill-rule="evenodd" clip-rule="evenodd" d="M107.768 83.5784C106.896 80.2632 94.7653 80.7804 94.4625 80.794C94.1596 80.8015 82.0246 81.1458 81.3778 84.5136C80.5692 88.7354 94.9829 95.2681 94.9829 95.2681C94.9829 95.2681 108.864 87.7311 107.768 83.5784Z" fill="#E24854"/>
<path fill-rule="evenodd" clip-rule="evenodd" d="M1.57188 131.23L0 130.106C22.2666 99.7051 63.8999 99.6816 64.3193 99.6846L64.3044 101.6C63.8955 101.597 23.2436 101.641 1.57188 131.23Z" fill="#F2DA9A"/>
<path fill-rule="evenodd" clip-rule="evenodd" d="M7.98326 92.1502L7.56689 90.2297C40.5363 82.8221 64.0859 94.0119 64.3192 94.1233L63.4909 95.8991C63.2621 95.7892 40.2661 84.8977 7.98326 92.1502Z" fill="#F2DA9A"/>
<path fill-rule="evenodd" clip-rule="evenodd" d="M116.248 94.6958L115.396 92.9437C115.866 92.7137 162.652 70.0327 195.48 94.9721L194.318 96.53C162.443 72.315 116.704 94.4672 116.248 94.6958Z" fill="#F2DA9A"/>
<path fill-rule="evenodd" clip-rule="evenodd" d="M165.726 116.719C145.055 96.3069 114.22 102.439 113.91 102.502L113.505 100.632C113.822 100.564 145.674 94.2049 167.104 115.373L165.726 116.719Z" fill="#F2DA9A"/>
<path fill-rule="evenodd" clip-rule="evenodd" d="M178.455 200C173.978 183.263 168.26 165.167 161.576 147.634C155.775 151.099 149.726 154.016 143.521 156.399C105.77 170.89 63.8225 166.728 25.3138 156.446C21.0125 171.085 17.3917 185.942 14.5034 200H178.455Z" fill="#6BBDC8"/>
</svg>
