<svg width="200" height="200" viewBox="0 0 200 200" fill="none" xmlns="http://www.w3.org/2000/svg">
<path fill-rule="evenodd" clip-rule="evenodd" d="M100.267 200C155.091 200 199.535 155.228 199.535 100C199.535 44.7715 155.091 0 100.267 0C45.4435 0 1 44.7715 1 100C1 155.228 45.4435 200 100.267 200Z" fill="#E7F3F8"/>
<mask id="mask0_5622_8911" style="mask-type:luminance" maskUnits="userSpaceOnUse" x="1" y="0" width="199" height="200">
<path fill-rule="evenodd" clip-rule="evenodd" d="M100.267 200C155.091 200 199.535 155.228 199.535 100C199.535 44.7715 155.091 0 100.267 0C45.4435 0 1 44.7715 1 100C1 155.228 45.4435 200 100.267 200Z" fill="white"/>
</mask>
<g mask="url(#mask0_5622_8911)">
<path fill-rule="evenodd" clip-rule="evenodd" d="M170.823 206.045C158.987 152.945 132.41 81.15 101.496 81.1417C71.4962 81.1342 45.5501 148.731 33.1983 201.252L170.823 206.045Z" fill="#E29E00"/>
<path fill-rule="evenodd" clip-rule="evenodd" d="M171.895 44.5349C171.377 35.3627 166.669 35.8862 157.779 43.2232C153.53 46.7279 151.583 47.9176 147.84 50.8224C130.35 44.5492 114.72 42.2397 100.94 42.4835C87.1605 42.2373 71.529 44.5443 54.0339 50.8152C50.2931 47.9098 48.3468 46.7195 44.102 43.2139C35.2161 35.8753 30.5102 35.3514 29.9833 44.5235C28.6123 68.402 33.1464 72.9051 31.797 82.5223C29.6989 97.46 34.8932 146.87 35.2574 146.726C42.7532 143.756 50.8561 144.108 50.8561 144.108C46.1504 146.465 43.9699 150.397 43.9699 150.397C54.0788 151.446 61.0497 154.066 74.295 158.61C77.0703 159.561 88.8301 164.18 100.438 164.203C112.579 164.225 124.584 159.609 127.487 158.614C140.736 154.073 147.709 151.453 157.82 150.406C157.82 150.406 155.643 146.474 150.939 144.115C150.939 144.115 159.041 143.766 166.535 146.736C166.899 146.881 172.135 97.4709 170.05 82.5338C168.708 72.9166 173.247 68.4144 171.895 44.5349Z" fill="#FAB400"/>
<path fill-rule="evenodd" clip-rule="evenodd" d="M80.4399 85.8748L77.9918 77.3791C77.0234 74.0309 75.2711 73.97 74.0755 77.2431L71.0338 85.5481L62.1513 85.2395C58.6493 85.1179 58.0443 86.7567 60.8105 88.9045L67.8139 94.3412L64.7721 102.649C63.5765 105.922 64.9582 106.998 67.8632 105.046L75.2321 100.107L82.238 105.546C84.9991 107.694 86.4542 106.717 85.491 103.369L83.0379 94.8701L90.4067 89.9326C93.3117 87.9818 92.8282 86.3052 89.3249 86.1835L80.4399 85.8748Z" fill="#FFDD56"/>
<path fill-rule="evenodd" clip-rule="evenodd" d="M125.885 85.1232L129.166 76.1251C130.463 72.5791 132.355 72.645 133.395 76.2723L136.043 85.4768L145.636 85.8108C149.419 85.9425 149.946 87.7592 146.803 89.8727L138.846 95.2224L141.494 104.43C142.534 108.057 140.964 109.117 137.982 106.788L130.417 100.897L122.457 106.248C119.319 108.363 117.826 107.197 119.117 103.651L122.404 94.65L114.839 88.7599C111.857 86.4332 112.505 84.6574 116.289 84.7891L125.885 85.1232Z" fill="#FFDD56"/>
<path fill-rule="evenodd" clip-rule="evenodd" d="M40.4126 47.1884C34.6415 41.5673 34.653 47.1058 34.8976 50.5692C35.6846 61.7595 36.9979 70.8689 36.9979 70.8689C38.7548 71.5669 49.8807 60.9244 50.3911 58.9037C50.9162 56.8228 44.0273 50.7109 40.4126 47.1884Z" fill="#E94F1D"/>
<path fill-rule="evenodd" clip-rule="evenodd" d="M165.92 45.9672C171.753 40.3628 171.743 45.8924 171.496 49.3491C170.705 60.5215 169.381 69.6131 169.381 69.6131C167.604 70.3085 156.355 59.6672 155.839 57.6489C155.307 55.5706 162.267 49.4787 165.92 45.9672Z" fill="#E94F1D"/>
<path fill-rule="evenodd" clip-rule="evenodd" d="M82.7086 124.311C82.7086 124.311 101.596 164.26 125.289 123.789L103.236 117.408L82.7086 124.311Z" fill="#F2DA9A"/>
<path fill-rule="evenodd" clip-rule="evenodd" d="M90.722 123.373C90.722 123.373 102.774 148.562 117.866 123.055L103.808 119.026L90.722 123.373Z" fill="#E24854"/>
<path fill-rule="evenodd" clip-rule="evenodd" d="M109.269 110.587C108.207 110.49 107.508 109.86 107.173 109.085C103.882 109.13 100.628 108.909 97.4506 108.153C96.9174 108.77 96.0986 109.158 95.087 108.976C87.3929 107.6 79.2278 109.573 75.8643 118.128C76.719 123.825 81.1209 125.965 89.4317 125.97C96.06 125.973 101.748 123.147 104.214 119.116C106.68 123.15 112.371 125.982 118.997 125.984C123.443 125.986 127.468 124.718 130.381 122.667C132.483 118.532 133.011 113.871 127.91 111.523C122.247 108.918 115.259 111.134 109.269 110.587Z" fill="#F7EDC9"/>
<path fill-rule="evenodd" clip-rule="evenodd" d="M113.73 108.247C113.199 105.902 104.668 105.968 104.455 105.97C104.242 105.968 95.7118 105.912 95.175 108.257C94.5036 111.197 104.465 116.129 104.465 116.129C104.465 116.129 114.398 111.185 113.73 108.247Z" fill="#E24854"/>
<path fill-rule="evenodd" clip-rule="evenodd" d="M24.3095 143.419L23.0181 142.425C42.6792 117.444 77.7637 118.647 78.117 118.661L78.0479 120.276C77.7034 120.261 43.4454 119.105 24.3095 143.419Z" fill="#F2DA9A"/>
<path fill-rule="evenodd" clip-rule="evenodd" d="M30.8649 110.656L30.5707 109.025C58.5727 103.745 78.0876 113.873 78.2808 113.974L77.5304 115.448C77.3408 115.348 58.2837 105.488 30.8649 110.656Z" fill="#F2DA9A"/>
<path fill-rule="evenodd" clip-rule="evenodd" d="M122.024 115.986L121.359 114.483C121.761 114.303 161.857 96.5494 188.785 118.545L187.76 119.825C161.614 98.468 122.415 115.807 122.024 115.986Z" fill="#F2DA9A"/>
<path fill-rule="evenodd" clip-rule="evenodd" d="M163.07 136.006C146.254 118.187 120.088 122.452 119.825 122.496L119.538 120.908C119.808 120.86 146.837 116.433 164.271 134.911L163.07 136.006Z" fill="#F2DA9A"/>
<path fill-rule="evenodd" clip-rule="evenodd" d="M171.34 206.596C168.062 192.351 163.777 176.924 158.662 161.944C153.672 164.695 148.488 166.977 143.189 168.805C110.948 179.916 75.7228 175.175 43.5754 165.375C39.5185 177.593 36.0288 190.014 33.1798 201.784L171.34 206.596Z" fill="#6BBDC8"/>
</g>
</svg>
