<svg width="206" height="200" viewBox="0 0 206 200" fill="none" xmlns="http://www.w3.org/2000/svg">
<path fill-rule="evenodd" clip-rule="evenodd" d="M107.19 197.386C161.696 197.386 205.882 153.199 205.882 98.6928C205.882 44.1863 161.696 0 107.19 0C52.683 0 8.4967 44.1863 8.4967 98.6928C8.4967 153.199 52.683 197.386 107.19 197.386Z" fill="#E7F3F8"/>
<mask id="mask0_5622_9706" style="mask-type:luminance" maskUnits="userSpaceOnUse" x="8" y="0" width="198" height="198">
<path fill-rule="evenodd" clip-rule="evenodd" d="M107.19 197.386C161.696 197.386 205.882 153.199 205.882 98.6928C205.882 44.1863 161.696 0 107.19 0C52.683 0 8.4967 44.1863 8.4967 98.6928C8.4967 153.199 52.683 197.386 107.19 197.386Z" fill="white"/>
</mask>
<g mask="url(#mask0_5622_9706)">
<path fill-rule="evenodd" clip-rule="evenodd" d="M123.206 196.965L113.325 167.582C113.325 167.582 109.408 159.269 108.367 158.587C107.327 157.904 95.6301 158.182 95.6301 158.182L95.657 161.717C95.657 161.717 92.8038 188.031 95.657 219.066L123.206 196.965Z" fill="#E29E00"/>
<path fill-rule="evenodd" clip-rule="evenodd" d="M102.135 138.728C102.135 138.728 94.1012 138.676 93.7848 159.865C93.7848 159.865 98.4984 162.784 102.135 162.53L102.135 138.728Z" fill="#388994"/>
<path fill-rule="evenodd" clip-rule="evenodd" d="M202.488 168.4C193.326 137.584 156.602 65.5555 130.354 70.6843C107.115 75.227 101.731 120.645 102.522 157.355L202.488 168.4Z" fill="#E29E00"/>
<path fill-rule="evenodd" clip-rule="evenodd" d="M173.758 37.1337C172.194 31.0716 169.088 32.0445 164.061 38.1235C161.66 41.0269 160.504 42.0794 158.363 44.5152C145.737 42.6343 134.888 43.1554 125.625 45.1391C116.297 46.7968 106.06 50.4047 95.0887 56.9074C92.1806 55.4603 90.7096 54.9221 87.3828 53.1399C80.4185 49.4096 77.1741 49.681 78.0329 55.8814C80.2675 72.0221 83.9222 74.4319 84.285 81.0381C84.8462 91.2985 94.8896 123.635 95.1158 123.49C99.7784 120.515 105.29 119.679 105.29 119.679C102.428 121.876 101.478 124.793 101.478 124.793C108.436 124.158 113.484 124.988 123.019 126.274C125.018 126.542 133.562 128.076 141.394 126.558C149.587 124.967 157.073 120.295 158.901 119.247C167.235 114.46 171.593 111.789 178.273 109.752C178.273 109.752 176.285 107.412 172.8 106.457C172.8 106.457 178.219 105.153 183.668 106.148C183.932 106.196 180.925 72.4815 177.541 62.7734C175.364 56.5235 177.83 52.9138 173.758 37.1337Z" fill="#FAB400"/>
<path fill-rule="evenodd" clip-rule="evenodd" d="M84.2976 56.7699C79.8353 53.7534 80.5608 57.4622 81.1672 59.7494C83.1271 67.1435 85.1588 73.0744 85.1588 73.0744C86.3853 73.3136 92.2028 64.7419 92.2712 63.3233C92.3417 61.8602 87.0929 58.661 84.2976 56.7699Z" fill="#E94F1D"/>
<path fill-rule="evenodd" clip-rule="evenodd" d="M168.086 40.4805C171.301 35.8224 172.049 39.6484 172.352 42.0715C173.338 49.9017 173.674 56.3669 173.674 56.3669C172.556 57.0859 163.429 51.2368 162.802 49.9104C162.155 48.5452 166.073 43.3992 168.086 40.4805Z" fill="#E94F1D"/>
<path fill-rule="evenodd" clip-rule="evenodd" d="M112.194 85.5634C111.951 84.3241 112.757 83.1222 113.996 82.8791C115.237 82.6344 116.438 83.441 116.683 84.6802C116.926 85.9195 116.12 87.1242 114.878 87.3675C113.64 87.612 112.437 86.8027 112.194 85.5634Z" fill="#BB7817"/>
<path fill-rule="evenodd" clip-rule="evenodd" d="M147.735 78.4918C147.492 77.2524 148.299 76.0504 149.538 75.8072C150.777 75.5627 151.98 76.3692 152.224 77.6086C152.468 78.8479 151.661 80.0527 150.422 80.2958C149.183 80.539 147.978 79.7311 147.735 78.4918Z" fill="#BB7817"/>
<path fill-rule="evenodd" clip-rule="evenodd" d="M127.825 112.588C127.825 112.588 140.063 127.201 150.416 107.724L134.945 103.017L127.825 112.588Z" fill="#F2DA9A"/>
<path fill-rule="evenodd" clip-rule="evenodd" d="M152.311 96.9854C148.161 95.9683 143.765 98.3965 139.669 98.8191C138.944 98.8941 138.391 98.5591 138.061 98.0776C135.859 98.5446 133.645 98.8249 131.41 98.7329C131.134 99.2231 130.636 99.5938 129.933 99.6052C124.582 99.6907 117.422 100.87 116.304 107.115C117.638 110.862 122.821 112.969 128.402 111.872C132.853 110.997 136.295 108.327 137.413 105.269C139.607 107.676 143.805 108.842 148.255 107.967C151.241 107.381 153.775 105.988 155.456 104.212C156.317 101.13 156.049 97.9018 152.311 96.9854Z" fill="#F7EDC9"/>
<path fill-rule="evenodd" clip-rule="evenodd" d="M142.917 95.0928C142.128 93.2955 135.335 94.7056 135.166 94.742C134.997 94.7744 128.186 96.0859 128.124 98.0534C128.048 100.518 136.76 102.89 136.76 102.89C136.76 102.89 143.908 97.3434 142.917 95.0928Z" fill="#E24854"/>
<path fill-rule="evenodd" clip-rule="evenodd" d="M88.8965 132.445L87.9011 131.942C97.712 112.394 121.316 108.577 121.553 108.54L121.722 109.644C121.491 109.681 98.4446 113.42 88.8965 132.445Z" fill="#F2DA9A"/>
<path fill-rule="evenodd" clip-rule="evenodd" d="M87.332 109.623L86.9227 108.58C104.961 101.383 119.328 105.514 119.471 105.556L119.16 106.631C119.021 106.59 104.994 102.576 87.332 109.623Z" fill="#F2DA9A"/>
<path fill-rule="evenodd" clip-rule="evenodd" d="M148.594 101.408L147.943 100.464C148.191 100.286 172.901 82.653 194.02 94.1443L193.498 95.1643C172.992 84.0057 148.833 101.231 148.594 101.408Z" fill="#F2DA9A"/>
<path fill-rule="evenodd" clip-rule="evenodd" d="M178.626 109.135C165.049 99.4467 148.158 105.699 147.989 105.762L147.587 104.741C147.761 104.673 165.204 98.2022 179.281 108.249L178.626 109.135Z" fill="#F2DA9A"/>
<path fill-rule="evenodd" clip-rule="evenodd" d="M202.534 169.052C198.298 155.677 189.626 135.862 179.078 117.621C176.106 120.114 172.94 122.32 169.637 124.236C149.545 135.893 125.364 137.351 102.573 135.025C100.744 149.476 101.412 181.037 101.563 193.122L202.534 169.052Z" fill="#6BBDC8"/>
<path fill-rule="evenodd" clip-rule="evenodd" d="M203.186 169.006C198.319 155.625 190.369 138.251 180.999 122.073C177.905 124.665 174.61 126.956 171.172 128.947C150.259 141.06 125.091 142.577 101.373 140.165C99.792 152.614 95.5874 201.744 103.587 217.324L203.186 169.006Z" fill="#51A6B8"/>
</g>
<path fill-rule="evenodd" clip-rule="evenodd" d="M84.9673 157.516C84.9673 180.98 65.9466 200 42.4842 200C19.0207 200 0 180.98 0 157.516C0 134.053 19.0207 115.033 42.4842 115.033C65.9466 115.033 84.9673 134.053 84.9673 157.516Z" fill="#88BF66"/>
<path fill-rule="evenodd" clip-rule="evenodd" d="M36.9838 177.778L19.7569 160.851C18.6988 159.812 18.6852 158.114 19.7257 157.057C20.7651 155.999 22.4665 155.989 23.5236 157.026L37.2038 170.466L64.8309 146.413C65.9496 145.438 67.6458 145.554 68.6195 146.674C69.5943 147.79 69.4785 149.484 68.3599 150.459L36.9838 177.778Z" fill="#F8F9FB"/>
</svg>
