<svg width="206" height="200" viewBox="0 0 206 200" fill="none" xmlns="http://www.w3.org/2000/svg">
<path fill-rule="evenodd" clip-rule="evenodd" d="M107.19 197.386C161.696 197.386 205.882 153.199 205.882 98.6928C205.882 44.1863 161.696 0 107.19 0C52.683 0 8.4967 44.1863 8.4967 98.6928C8.4967 153.199 52.683 197.386 107.19 197.386Z" fill="#E7F3F8"/>
<mask id="mask0_6724_60" style="mask-type:luminance" maskUnits="userSpaceOnUse" x="8" y="0" width="198" height="198">
<path fill-rule="evenodd" clip-rule="evenodd" d="M107.19 197.386C161.696 197.386 205.882 153.199 205.882 98.6928C205.882 44.1863 161.696 0 107.19 0C52.683 0 8.4967 44.1863 8.4967 98.6928C8.4967 153.199 52.683 197.386 107.19 197.386Z" fill="white"/>
</mask>
<g mask="url(#mask0_6724_60)">
<path fill-rule="evenodd" clip-rule="evenodd" d="M110.503 203.35L99.7374 171.337C99.7374 171.337 95.4697 162.28 94.3355 161.536C93.2028 160.792 80.4584 161.095 80.4584 161.095L80.4877 164.947C80.4877 164.947 77.379 193.616 80.4877 227.43L110.503 203.35Z" fill="#E29E00"/>
<path fill-rule="evenodd" clip-rule="evenodd" d="M88.6681 140.002C88.6681 140.002 79.9166 139.85 79.3202 162.93C79.3202 162.93 84.4208 166.167 88.3853 165.933L88.6681 140.002Z" fill="#388994"/>
<path fill-rule="evenodd" clip-rule="evenodd" d="M182.233 186.225L175.676 153.093C175.676 153.093 174.881 143.112 175.496 141.903C176.11 140.695 187.321 134.627 187.321 134.627L189.209 137.985C189.209 137.985 206.148 161.324 220.245 192.215L182.233 186.225Z" fill="#E29E00"/>
<path fill-rule="evenodd" clip-rule="evenodd" d="M170.643 119.752C170.643 119.752 178.211 115.355 189.977 135.22C189.977 135.22 187.1 140.532 183.524 142.259L170.643 119.752Z" fill="#388994"/>
<path fill-rule="evenodd" clip-rule="evenodd" d="M196.883 172.228C186.901 138.653 146.888 60.1767 118.291 65.7647C92.9715 70.714 87.106 120.198 87.9668 160.194L196.883 172.228Z" fill="#E29E00"/>
<path fill-rule="evenodd" clip-rule="evenodd" d="M165.58 29.2105C163.877 22.6057 160.493 23.6657 155.016 30.2889C152.4 33.4522 151.14 34.5989 148.808 37.2528C135.051 35.2035 123.231 35.7713 113.139 37.9326C102.976 39.7387 91.8218 43.6696 79.8685 50.7544C76.7 49.1778 75.0974 48.5914 71.4727 46.6497C63.885 42.5854 60.3501 42.8811 61.2858 49.6366C63.7205 67.2223 67.7023 69.8478 68.0976 77.0454C68.7091 88.2243 79.6515 123.456 79.898 123.298C84.978 120.056 90.9833 119.145 90.9833 119.145C87.8646 121.539 86.83 124.717 86.83 124.717C94.4108 124.025 99.911 124.93 110.3 126.331C112.477 126.623 121.786 128.294 130.319 126.64C139.245 124.907 147.402 119.817 149.393 118.675C158.474 113.46 163.222 110.549 170.5 108.33C170.5 108.33 168.334 105.78 164.537 104.74C164.537 104.74 170.441 103.319 176.378 104.403C176.665 104.455 173.389 67.7227 169.702 57.1456C167.33 50.3361 170.017 46.4033 165.58 29.2105Z" fill="#FAB400"/>
<path fill-rule="evenodd" clip-rule="evenodd" d="M68.1113 50.6047C63.2496 47.3182 64.04 51.359 64.7007 53.8509C66.836 61.907 69.0496 68.3689 69.0496 68.3689C70.386 68.6295 76.7243 59.2904 76.7988 57.7447C76.8756 56.1507 71.1569 52.6651 68.1113 50.6047Z" fill="#E94F1D"/>
<path fill-rule="evenodd" clip-rule="evenodd" d="M159.401 32.857C162.904 27.7819 163.718 31.9504 164.049 34.5905C165.123 43.1216 165.489 50.1656 165.489 50.1656C164.271 50.949 154.327 44.5763 153.644 43.1311C152.939 41.6437 157.207 36.037 159.401 32.857Z" fill="#E94F1D"/>
<path fill-rule="evenodd" clip-rule="evenodd" d="M98.5051 81.9758C98.2401 80.6256 99.1188 79.3161 100.469 79.0512C101.82 78.7846 103.129 79.6634 103.396 81.0136C103.661 82.3638 102.782 83.6763 101.429 83.9414C100.081 84.2078 98.77 83.326 98.5051 81.9758Z" fill="#BB7817"/>
<path fill-rule="evenodd" clip-rule="evenodd" d="M137.228 74.2711C136.963 72.9208 137.843 71.6112 139.193 71.3462C140.543 71.0798 141.853 71.9586 142.118 73.3089C142.385 74.6591 141.505 75.9718 140.155 76.2367C138.805 76.5016 137.493 75.6215 137.228 74.2711Z" fill="#BB7817"/>
<path fill-rule="evenodd" clip-rule="evenodd" d="M115.535 111.42C115.535 111.42 128.869 127.341 140.149 106.121L123.293 100.992L115.535 111.42Z" fill="#F2DA9A"/>
<path fill-rule="evenodd" clip-rule="evenodd" d="M142.214 94.4204C137.692 93.3123 132.902 95.9579 128.44 96.4183C127.65 96.5 127.047 96.1351 126.688 95.6104C124.288 96.1192 121.876 96.4246 119.441 96.3244C119.14 96.8584 118.598 97.2624 117.833 97.2747C112.002 97.3679 104.201 98.6527 102.983 105.457C104.436 109.54 110.083 111.835 116.164 110.639C121.014 109.686 124.763 106.778 125.982 103.446C128.372 106.068 132.946 107.339 137.794 106.386C141.048 105.746 143.808 104.229 145.641 102.294C146.578 98.9364 146.286 95.4188 142.214 94.4204Z" fill="#F7EDC9"/>
<path fill-rule="evenodd" clip-rule="evenodd" d="M131.978 92.3583C131.119 90.4002 123.718 91.9365 123.534 91.9762C123.349 92.0115 115.929 93.4404 115.861 95.584C115.778 98.2694 125.27 100.854 125.27 100.854C125.27 100.854 133.058 94.8105 131.978 92.3583Z" fill="#E24854"/>
<path fill-rule="evenodd" clip-rule="evenodd" d="M73.1219 133.054L72.0375 132.506C82.7267 111.209 108.444 107.05 108.702 107.009L108.886 108.212C108.634 108.252 83.5248 112.326 73.1219 133.054Z" fill="#F2DA9A"/>
<path fill-rule="evenodd" clip-rule="evenodd" d="M71.4174 108.189L70.9715 107.053C90.6242 99.2119 106.278 103.713 106.433 103.758L106.095 104.929C105.943 104.885 90.6608 100.511 71.4174 108.189Z" fill="#F2DA9A"/>
<path fill-rule="evenodd" clip-rule="evenodd" d="M138.163 99.2385L137.455 98.2104C137.725 98.016 164.647 78.8048 187.656 91.3249L187.088 92.4362C164.746 80.2786 138.425 99.0463 138.163 99.2385Z" fill="#F2DA9A"/>
<path fill-rule="evenodd" clip-rule="evenodd" d="M170.884 107.658C156.092 97.102 137.688 103.914 137.504 103.982L137.067 102.87C137.256 102.796 156.261 95.7461 171.598 106.692L170.884 107.658Z" fill="#F2DA9A"/>
<path fill-rule="evenodd" clip-rule="evenodd" d="M197.689 172.628C193.053 157.99 183.562 136.304 172.018 116.342C168.765 119.07 165.301 121.484 161.686 123.581C139.696 136.338 113.232 137.934 88.2901 135.389C86.2879 151.204 87.0192 185.745 87.1841 198.971L197.689 172.628Z" fill="#6BBDC8"/>
<path fill-rule="evenodd" clip-rule="evenodd" d="M198.393 172.49C193.09 157.911 183.714 136.626 173.505 119C170.134 121.823 160.251 129.33 156.505 131.5C133.72 144.696 113.847 141.628 88.0049 139C86.2825 152.564 81.1618 208.159 89.8774 225.134L198.393 172.49Z" fill="#51A6B8"/>
</g>
<path fill-rule="evenodd" clip-rule="evenodd" d="M68.0049 166C68.0049 184.778 52.7825 200 34.0053 200C15.2273 200 0.00491333 184.778 0.00491333 166C0.00491333 147.222 15.2273 132 34.0053 132C52.7825 132 68.0049 147.222 68.0049 166Z" fill="#D84367"/>
<path d="M32.3086 174.701L31.1995 158.54L30.9355 151.516H38.7517L38.4876 158.54L37.3786 174.701H32.3086ZM34.8436 187.534C33.5057 187.534 32.379 187.077 31.4636 186.161C30.5834 185.211 30.1433 184.049 30.1433 182.676C30.1433 181.267 30.5834 180.105 31.4636 179.19C32.379 178.239 33.5057 177.764 34.8436 177.764C36.1815 177.764 37.2906 178.239 38.1708 179.19C39.0862 180.105 39.5439 181.267 39.5439 182.676C39.5439 184.049 39.0862 185.211 38.1708 186.161C37.2906 187.077 36.1815 187.534 34.8436 187.534Z" fill="white"/>
</svg>
