<svg width="150" height="192" viewBox="0 0 150 192" fill="none" xmlns="http://www.w3.org/2000/svg">
<path d="M28.1461 126.599C32.3549 126.599 35.7669 123.192 35.7669 118.989C35.7669 114.785 32.3549 111.378 28.1461 111.378C23.9373 111.378 20.5254 114.785 20.5254 118.989C20.5254 123.192 23.9373 126.599 28.1461 126.599Z" fill="#149D99"/>
<path d="M38.8312 141.401L3.67847 139.025L0 133.863L43.1097 136.778L38.8312 141.401Z" fill="#149D99"/>
<path d="M2.07874 135.342C1.499 144.927 9.69947 153.271 20.4073 153.994C31.1152 154.718 40.2694 147.547 40.8636 137.965L2.07874 135.342Z" fill="#FECF09"/>
<path fill-rule="evenodd" clip-rule="evenodd" d="M2.74512 135.386L40.2052 137.919L40.2603 137.027C40.872 126.976 32.9585 118.216 22.6419 117.527C12.3254 116.838 3.41182 124.443 2.7944 134.497L2.74512 135.386ZM38.4602 136.014L4.70462 133.733C5.71337 125.103 13.5254 118.696 22.5404 119.307C31.5554 119.918 38.5182 127.329 38.4602 136.014Z" fill="#149D99"/>
<path d="M118.354 20.8025C118.869 15.2926 123.753 11.2434 129.263 11.7584L139.285 12.6953C144.795 13.2103 148.844 18.0944 148.329 23.6043L136.1 154.438C135.585 159.948 130.701 163.997 125.191 163.482L115.168 162.545C109.659 162.03 105.609 157.146 106.124 151.636L118.354 20.8025Z" fill="#F0F1AC"/>
<path d="M123.969 93.1945C130.153 92.6605 136.365 92.5386 142.564 92.8297C145.434 92.9629 145.428 88.5075 142.564 88.3744C136.364 88.086 130.15 88.2108 123.966 88.7478C121.128 88.9939 121.102 93.4492 123.966 93.2032L123.969 93.1945Z" fill="#149D99"/>
<path d="M123.97 101.08C129.58 100.657 135.21 100.56 140.831 100.791C143.701 100.907 143.695 96.4484 140.831 96.3355C135.21 96.105 129.58 96.2016 123.97 96.625C121.126 96.8393 121.103 101.298 123.97 101.08Z" fill="#149D99"/>
<path d="M33.8904 17.6738L44.6156 17.6588C45.8854 17.6562 47.1041 18.1578 48.0035 19.0529C48.9029 19.9481 49.4092 21.1635 49.411 22.4317L49.4657 61.6293C49.4694 64.269 47.3297 66.4119 44.6866 66.4156L33.9613 66.4306C31.3211 66.4295 29.18 64.2944 29.1747 61.6577L29.12 22.46C29.1163 19.8237 31.2507 17.6822 33.8904 17.6738Z" fill="#05807C"/>
<path d="M122.636 61.5352C122.638 62.8046 122.134 64.0225 121.236 64.9207C120.337 65.8188 119.119 66.3235 117.847 66.3235L107.122 66.338C104.485 66.3332 102.348 64.1982 102.345 61.5642L102.293 22.3665C102.291 21.0983 102.793 19.8813 103.69 18.9832C104.586 18.0852 105.803 17.5797 107.073 17.5782L117.798 17.5637C120.442 17.5605 122.588 19.6974 122.593 22.3375L122.636 61.5352Z" fill="#05807C"/>
<path d="M69.5464 21.6369L69.532 10.6824C69.532 7.89456 72.7785 5.14435 76.199 5.13856C79.6195 5.13277 82.8661 7.8743 82.8661 10.665L82.8806 21.6138H88.0287L88.0142 10.6592C88.0142 4.76222 82.7095 -0.00867303 76.1845 1.18386e-05C69.6595 0.00869671 64.378 4.79696 64.3867 10.6911L64.4012 21.6456L69.5464 21.6369Z" fill="#376E7C"/>
<path d="M85.353 20.0737L66.3664 20.0998C43.0607 20.1316 24.2017 43.2334 24.2423 71.6966L24.2625 86.2988V89.7351L24.3669 165.328C24.3872 179.56 34.182 191.093 46.2435 191.07L105.94 190.989C118.001 190.972 127.764 179.409 127.744 165.186L127.64 89.5932V86.1569L127.619 71.5547C127.579 43.0915 108.656 20.0419 85.353 20.0737Z" fill="#2FAF92"/>
<path d="M84.4979 20.1923L67.2244 20.2155C46.0261 20.2445 28.8686 41.2589 28.9034 67.1543L28.9208 80.4393V83.5659L29.0135 152.333C29.0309 165.282 37.9416 175.764 48.9132 175.75L103.218 175.678C114.189 175.663 123.071 165.154 123.054 152.205L122.961 83.4385V80.3148L122.944 67.0299C122.909 41.1345 105.693 20.1663 84.4979 20.1923Z" fill="#4FB699"/>
<path d="M63.7334 41.2288L88.0681 41.1948L88.0921 58.3995L63.7574 58.4335L63.7334 41.2288Z" fill="#376E7C"/>
<path d="M111.905 120.644C111.907 122.051 111.35 123.4 110.356 124.396C109.361 125.392 108.011 125.952 106.603 125.954L46.1476 126.035C43.2159 126.038 40.8362 123.668 40.8314 120.74L40.7705 75.5033C40.7673 72.5754 43.1405 70.1988 46.0723 70.194L106.528 70.1129C107.936 70.1106 109.287 70.6673 110.285 71.6603C111.282 72.6534 111.843 74.0015 111.844 75.4078L111.905 120.644Z" fill="#149D99"/>
<g style="mix-blend-mode:multiply" opacity="0.5">
<path d="M111.864 90.783L111.844 75.405C111.843 73.9987 111.282 72.6506 110.285 71.6575C109.287 70.6645 107.936 70.1078 106.528 70.1101L46.0723 70.1912C43.1405 70.196 40.7673 72.5726 40.7705 75.5005L40.7908 90.8785L111.864 90.783Z" fill="#149D99"/>
</g>
<path d="M43.8252 90.8755V97.5774C43.8252 98.6334 44.6824 99.4895 45.7398 99.4895C46.7972 99.4895 47.6544 98.6334 47.6544 97.5774V90.8755H43.8252Z" fill="#376E7C"/>
<rect x="8.9248" y="144.93" width="141.075" height="41.3024" rx="15.76" fill="#12837D"/>
<path d="M8.9248 159.816C8.9248 151.112 15.9808 144.056 24.6848 144.056H134.24C142.944 144.056 150 151.112 150 159.816V163.791C150 172.495 142.944 179.551 134.24 179.551H24.6848C15.9808 179.551 8.9248 172.495 8.9248 163.791V159.816Z" fill="#149D99"/>
</svg>
