<svg width="151" height="164" viewBox="0 0 151 164" fill="none" xmlns="http://www.w3.org/2000/svg">
<path fill-rule="evenodd" clip-rule="evenodd" d="M142.55 163.685H8.44907C4.06035 163.685 0.501726 160.127 0.501726 155.737V56.556C0.501726 52.1664 4.06035 48.6077 8.44907 48.6077H142.55C146.939 48.6077 150.498 52.1664 150.498 56.556V155.737C150.498 160.127 146.939 163.685 142.55 163.685Z" fill="#E1E1E1"/>
<path fill-rule="evenodd" clip-rule="evenodd" d="M144.03 41.6349H6.97026C3.39831 41.6349 0.502706 38.7393 0.502706 35.1673V15.5318C0.502706 11.9599 3.39831 9.06427 6.97026 9.06427H144.03C147.602 9.06427 150.498 11.9599 150.498 15.5318V35.1673C150.498 38.7393 147.602 41.6349 144.03 41.6349Z" fill="#50B699"/>
<path fill-rule="evenodd" clip-rule="evenodd" d="M142.55 158.525H8.44907C4.06035 158.525 0.501726 154.966 0.501726 150.577V47.696C0.501726 43.3063 4.06035 39.7477 8.44907 39.7477H142.55C146.939 39.7477 150.498 43.3063 150.498 47.696V150.577C150.498 154.966 146.939 158.525 142.55 158.525Z" fill="white"/>
<path d="M142.55 158.525H8.44907C4.06035 158.525 0.501726 154.966 0.501726 150.577V47.696C0.501726 43.3063 4.06035 39.7477 8.44907 39.7477H142.55C146.939 39.7477 150.498 43.3063 150.498 47.696V150.577C150.498 154.966 146.939 158.525 142.55 158.525" stroke="#F1F1F1"/>
<path fill-rule="evenodd" clip-rule="evenodd" d="M103.491 79.2819H92.7077C91.9638 79.2819 91.3612 78.6793 91.3612 77.9354V67.152C91.3612 66.4081 91.9638 65.8046 92.7077 65.8046H103.491C104.235 65.8046 104.838 66.4081 104.838 67.152V77.9354C104.838 78.6793 104.235 79.2819 103.491 79.2819Z" fill="#E1E1E1"/>
<path fill-rule="evenodd" clip-rule="evenodd" d="M126.113 79.2819H115.329C114.586 79.2819 113.983 78.6793 113.983 77.9354V67.152C113.983 66.4081 114.586 65.8046 115.329 65.8046H126.113C126.857 65.8046 127.459 66.4081 127.459 67.152V77.9354C127.459 78.6793 126.857 79.2819 126.113 79.2819Z" fill="#E1E1E1"/>
<path fill-rule="evenodd" clip-rule="evenodd" d="M35.6248 102.706H24.8414C24.0975 102.706 23.4949 102.104 23.4949 101.36V90.5762C23.4949 89.8323 24.0975 89.2289 24.8414 89.2289H35.6248C36.3687 89.2289 36.9713 89.8323 36.9713 90.5762V101.36C36.9713 102.104 36.3687 102.706 35.6248 102.706Z" fill="#E1E1E1"/>
<path fill-rule="evenodd" clip-rule="evenodd" d="M58.2466 102.706H47.4632C46.7193 102.706 46.1167 102.104 46.1167 101.36V90.5762C46.1167 89.8323 46.7193 89.2289 47.4632 89.2289H58.2466C58.9905 89.2289 59.593 89.8323 59.593 90.5762V101.36C59.593 102.104 58.9905 102.706 58.2466 102.706Z" fill="#50B699"/>
<path fill-rule="evenodd" clip-rule="evenodd" d="M80.8683 102.706H70.0849C69.341 102.706 68.7385 102.104 68.7385 101.36V90.5762C68.7385 89.8323 69.341 89.2289 70.0849 89.2289H80.8683C81.6122 89.2289 82.2148 89.8323 82.2148 90.5762V101.36C82.2148 102.104 81.6122 102.706 80.8683 102.706Z" fill="#50B699"/>
<path fill-rule="evenodd" clip-rule="evenodd" d="M103.491 102.706H92.7077C91.9638 102.706 91.3612 102.104 91.3612 101.36V90.5762C91.3612 89.8323 91.9638 89.2289 92.7077 89.2289H103.491C104.235 89.2289 104.838 89.8323 104.838 90.5762V101.36C104.838 102.104 104.235 102.706 103.491 102.706Z" fill="#50B699"/>
<path fill-rule="evenodd" clip-rule="evenodd" d="M126.113 102.706H115.329C114.586 102.706 113.983 102.104 113.983 101.36V90.5762C113.983 89.8323 114.586 89.2289 115.329 89.2289H126.113C126.857 89.2289 127.459 89.8323 127.459 90.5762V101.36C127.459 102.104 126.857 102.706 126.113 102.706Z" fill="#E1E1E1"/>
<path fill-rule="evenodd" clip-rule="evenodd" d="M35.6248 126.13H24.8414C24.0975 126.13 23.4949 125.528 23.4949 124.784V114.001C23.4949 113.257 24.0975 112.653 24.8414 112.653H35.6248C36.3687 112.653 36.9713 113.257 36.9713 114.001V124.784C36.9713 125.528 36.3687 126.13 35.6248 126.13Z" fill="#E1E1E1"/>
<path fill-rule="evenodd" clip-rule="evenodd" d="M58.2466 126.13H47.4632C46.7193 126.13 46.1167 125.528 46.1167 124.784V114.001C46.1167 113.257 46.7193 112.653 47.4632 112.653H58.2466C58.9905 112.653 59.593 113.257 59.593 114.001V124.784C59.593 125.528 58.9905 126.13 58.2466 126.13Z" fill="#E1E1E1"/>
<path fill-rule="evenodd" clip-rule="evenodd" d="M80.8683 126.13H70.0849C69.341 126.13 68.7385 125.528 68.7385 124.784V114.001C68.7385 113.257 69.341 112.653 70.0849 112.653H80.8683C81.6122 112.653 82.2148 113.257 82.2148 114.001V124.784C82.2148 125.528 81.6122 126.13 80.8683 126.13Z" fill="#E1E1E1"/>
<path fill-rule="evenodd" clip-rule="evenodd" d="M103.491 126.13H92.7077C91.9638 126.13 91.3612 125.528 91.3612 124.784V114.001C91.3612 113.257 91.9638 112.653 92.7077 112.653H103.491C104.235 112.653 104.838 113.257 104.838 114.001V124.784C104.838 125.528 104.235 126.13 103.491 126.13Z" fill="#E1E1E1"/>
<path fill-rule="evenodd" clip-rule="evenodd" d="M126.113 126.13H115.329C114.586 126.13 113.983 125.528 113.983 124.784V114.001C113.983 113.257 114.586 112.653 115.329 112.653H126.113C126.857 112.653 127.459 113.257 127.459 114.001V124.784C127.459 125.528 126.857 126.13 126.113 126.13Z" fill="#E1E1E1"/>
<path fill-rule="evenodd" clip-rule="evenodd" d="M32.004 21.0087H30.1945C29.3057 21.0087 28.5778 20.2816 28.5778 19.3929V1.61578C28.5778 0.727011 29.3048 0 30.1945 0H32.004C32.8928 0 33.6198 0.727011 33.6198 1.61578V19.3929C33.6198 20.2816 32.8928 21.0087 32.004 21.0087Z" fill="#E1E1E1"/>
<path fill-rule="evenodd" clip-rule="evenodd" d="M41.4055 21.0087H39.596C38.7072 21.0087 37.9793 20.2816 37.9793 19.3929V1.61578C37.9793 0.727011 38.7063 0 39.596 0H41.4055C42.2943 0 43.0213 0.727011 43.0213 1.61578V19.3929C43.0213 20.2816 42.2943 21.0087 41.4055 21.0087Z" fill="#E1E1E1"/>
<path fill-rule="evenodd" clip-rule="evenodd" d="M105.901 21.0087H104.091C103.203 21.0087 102.475 20.2816 102.475 19.3929V1.61578C102.475 0.727011 103.202 0 104.091 0H105.901C106.79 0 107.517 0.727011 107.517 1.61578V19.3929C107.517 20.2816 106.79 21.0087 105.901 21.0087Z" fill="#E1E1E1"/>
<path fill-rule="evenodd" clip-rule="evenodd" d="M115.302 21.0087H113.493C112.604 21.0087 111.876 20.2816 111.876 19.3929V1.61578C111.876 0.727011 112.603 0 113.493 0H115.302C116.191 0 116.918 0.727011 116.918 1.61578V19.3929C116.918 20.2816 116.191 21.0087 115.302 21.0087Z" fill="#E1E1E1"/>
<path fill-rule="evenodd" clip-rule="evenodd" d="M0.364535 49.3552H150.882V38.4163H0.364535V49.3552Z" fill="#42A387"/>
</svg>
