<svg width="477" height="391" viewBox="0 0 477 391" fill="none" xmlns="http://www.w3.org/2000/svg">
<path fill-rule="evenodd" clip-rule="evenodd" d="M436.184 177.419C436.184 265.419 364.85 336.757 276.854 336.757C188.858 336.757 117.521 265.419 117.521 177.419C117.521 89.4186 188.858 18.0808 276.854 18.0808C364.85 18.0808 436.184 89.4186 436.184 177.419Z" fill="#D9E2E8"/>
<path fill-rule="evenodd" clip-rule="evenodd" d="M35.373 235.052L4.52051 227.83L5.48044 222.913L35.3434 229.904L35.373 235.052ZM92.131 157.933L97.3788 135.607L101.701 136.446L96.7403 157.554L92.131 157.933Z" fill="#E1DBD3"/>
<path fill-rule="evenodd" clip-rule="evenodd" d="M34.1029 268.954L33.9004 233.894L41.5052 235.66L34.1029 268.954ZM91.7013 172.314L95.3528 156.901L107.042 155.948L108.481 167.696L91.7013 172.314Z" fill="#E1DBD3"/>
<path fill-rule="evenodd" clip-rule="evenodd" d="M41.4775 237.312L33.9298 235.538L33.9004 230.402L42.5494 232.434L41.4775 237.312ZM86.4906 175.027L90.3399 158.586L94.921 158.208L91.2969 173.688L86.4906 175.027Z" fill="#CDC8C3"/>
<path fill-rule="evenodd" clip-rule="evenodd" d="M122.109 282.514L129.162 247.445L120.037 245.735L110.741 168.609L131.762 162.728L164.982 267.139L122.109 282.514Z" fill="#D9E2E8"/>
<path fill-rule="evenodd" clip-rule="evenodd" d="M117.521 246.352L76.8408 238.657L91.7276 174.199L108.343 169.509L117.521 246.352Z" fill="#CDC8C3"/>
<path fill-rule="evenodd" clip-rule="evenodd" d="M79.1355 237.312L74.5811 236.514L89.8364 175.358L94.9212 174.029L79.1355 237.312Z" fill="#BBB7B5"/>
<path fill-rule="evenodd" clip-rule="evenodd" d="M71.7524 239.572L0 222.601L20.7385 115.266L97.1809 130.271L71.7524 239.572Z" fill="#FFFFFE"/>
<path fill-rule="evenodd" clip-rule="evenodd" d="M106.379 357.098L20.3398 337.244L35.2483 271.214L35.2888 278.091L77.5461 271.722L82.3483 295.439L122.041 281.649L106.379 357.098Z" fill="#D9E2E8"/>
<path fill-rule="evenodd" clip-rule="evenodd" d="M33.9416 277.994L33.9004 271.013L41.5098 237.312L71.2916 244.123L76.8408 271.528L33.9416 277.994Z" fill="#CDC8C3"/>
<path fill-rule="evenodd" clip-rule="evenodd" d="M72.3207 244.092L42.9404 237.529L44.0356 232.792L71.2376 238.868L72.3207 244.092Z" fill="#BBB7B5"/>
<path fill-rule="evenodd" clip-rule="evenodd" d="M81.4668 293.815L76.8408 270.116L119.999 263.368L117.687 244.092L126.561 245.764L119.703 280.036L81.4668 293.815Z" fill="#CDC8C3"/>
<path fill-rule="evenodd" clip-rule="evenodd" d="M77.7269 271.214L72.3203 243.973L76.7085 244.997L78.5211 237.312L119.667 244.934L122.041 264.399L77.7269 271.214Z" fill="#BBB7B5"/>
<path fill-rule="evenodd" clip-rule="evenodd" d="M75.1503 244.092L71.0581 243.275L70.0605 238.971L72.2137 239.402L72.7893 237.312L76.8406 237.955L75.1503 244.092Z" fill="#ACA7A8"/>
<path fill-rule="evenodd" clip-rule="evenodd" d="M71.7119 237.312L69.4349 236.86L42.9404 231.602L43.2188 230.532L72.3207 235.117L71.7119 237.312Z" fill="#EAEAE7"/>
<path fill-rule="evenodd" clip-rule="evenodd" d="M27.1201 157.535L101.956 151.428L115.261 260.078L27.7887 273.474L27.1201 157.535Z" fill="#ED9D2D"/>
<path fill-rule="evenodd" clip-rule="evenodd" d="M51.9805 180.337L122.904 160.468L155.941 264.458L74.2066 293.815L51.9805 180.337Z" fill="#FFFFFE"/>
<path fill-rule="evenodd" clip-rule="evenodd" d="M358.438 126.642L154.497 149.167L131.081 82.7133L368.383 56.5027L358.438 126.642Z" fill="#00475B"/>
<path fill-rule="evenodd" clip-rule="evenodd" d="M372.904 241.933L166.819 264.433L153.682 146.806L359.767 124.306L372.904 241.933Z" fill="#00475B"/>
<path fill-rule="evenodd" clip-rule="evenodd" d="M142.381 89.4458L361.603 65.5432L354.494 121.253L160.665 142.387L142.381 89.4458Z" fill="#FFFFFE"/>
<path fill-rule="evenodd" clip-rule="evenodd" d="M164.981 152.026L350.355 133.347L361.603 235.96L176.808 259.913L164.981 152.026Z" fill="#005465"/>
<path fill-rule="evenodd" clip-rule="evenodd" d="M171.762 161.185L345.79 142.387L350.303 182.367L176.529 203.41L171.762 161.185Z" fill="#00475B"/>
<path fill-rule="evenodd" clip-rule="evenodd" d="M244.082 207.979L287.61 203.41L291.542 237.264L248.014 241.832L244.082 207.979Z" fill="#00475B"/>
<path fill-rule="evenodd" clip-rule="evenodd" d="M248.603 209.701L283.84 205.67L287.023 235.541L251.786 239.572L248.603 209.701Z" fill="#005465"/>
<path fill-rule="evenodd" clip-rule="evenodd" d="M131.081 83.6241L134.127 75.628L360.053 49.7224L368.383 56.4149L131.081 83.6241Z" fill="#005465"/>
<path fill-rule="evenodd" clip-rule="evenodd" d="M117.506 239.572L124.301 240.481L99.8236 352.578L21.5273 334.471L20.3398 329.997L117.506 239.572Z" fill="#E2625D"/>
<path fill-rule="evenodd" clip-rule="evenodd" d="M22.6006 330.741L23.6699 333.092L99.9066 350.318L124.302 242.163L121.84 239.572L22.6006 330.741Z" fill="#FFFFFE"/>
<path fill-rule="evenodd" clip-rule="evenodd" d="M42.9279 223.751L20.3398 329.588L96.1857 345.797L122.041 236.79L42.9279 223.751Z" fill="#E2625D"/>
<path fill-rule="evenodd" clip-rule="evenodd" d="M82.7047 342.809L85.8806 348.058L80.673 347.27L79.1006 342.487L82.4289 341.277L82.7047 342.809Z" fill="#00475B"/>
<path fill-rule="evenodd" clip-rule="evenodd" d="M147.797 391C142.353 391 128.821 382.118 128.821 382.118L169.357 309.636C169.357 309.636 188.403 317.039 187.554 323.235C186.706 329.431 180.054 345.243 175.666 348.022C174.939 348.482 173.892 348.659 172.636 348.659C170.56 348.659 167.917 348.177 165.216 347.695C162.515 347.212 159.757 346.73 157.451 346.73C155.031 346.73 153.11 347.262 152.28 348.883C149.389 354.526 164.931 359.427 165.561 363.517C166.191 367.606 153.018 388.14 149.304 390.632C148.926 390.886 148.414 391 147.797 391ZM148.591 354.326L133.219 381.064C133.219 381.064 142.084 387.707 146.866 387.707C147.381 387.707 147.85 387.63 148.255 387.458C152.409 385.699 162.057 367.691 161.869 364.656C161.682 361.619 148.591 354.326 148.591 354.326ZM170.364 313.334L154.794 342.322C154.794 342.322 165.065 345.036 171.043 345.036C172.349 345.036 173.45 344.907 174.195 344.592C178.35 342.83 183.83 326.699 183.642 323.662C183.455 320.626 170.364 313.334 170.364 313.334Z" fill="#E1DBD3"/>
<path fill-rule="evenodd" clip-rule="evenodd" d="M183.642 321.403C183.829 324.439 178.35 340.571 174.194 342.331C170.04 344.092 154.793 340.062 154.793 340.062L170.364 311.074C170.364 311.074 183.454 318.366 183.642 321.403ZM161.869 362.395C162.056 365.432 152.409 383.439 148.254 385.198C144.1 386.959 133.218 378.804 133.218 378.804L148.59 352.066C148.59 352.066 161.681 359.359 161.869 362.395ZM169.357 307.376L128.821 379.858C128.821 379.858 145.59 390.865 149.304 388.372C153.018 385.88 166.191 365.346 165.561 361.257C164.93 357.168 149.389 352.266 152.279 346.623C155.17 340.98 171.278 348.541 175.666 345.762C180.053 342.983 186.706 327.171 187.554 320.975C188.403 314.779 169.357 307.376 169.357 307.376Z" fill="#7F3626"/>
<path fill-rule="evenodd" clip-rule="evenodd" d="M128.821 380.433C128.821 380.433 167.077 316.518 169.138 316.424C171.198 316.33 172.35 317.057 171.455 318.925C170.561 320.792 131.787 381.959 131.787 381.959L128.821 380.433Z" fill="#6B3128"/>
<path fill-rule="evenodd" clip-rule="evenodd" d="M169.623 309.636C169.623 309.636 132.833 378.62 133.346 379.932C133.86 381.244 135.65 382.488 136.514 381.727C137.377 380.965 174.021 311.056 174.021 311.056L169.623 309.636Z" fill="#96392A"/>
<path fill-rule="evenodd" clip-rule="evenodd" d="M128.821 106.225H160.462V126.211L135.179 126.566L128.821 106.225Z" fill="#ED9D2D"/>
<path fill-rule="evenodd" clip-rule="evenodd" d="M131.081 109.232L157.042 108.485L158.201 125.52L136.597 126.566L131.081 109.232Z" fill="#F1AE2A"/>
<path fill-rule="evenodd" clip-rule="evenodd" d="M140.121 127.773L169.648 117.526L176.281 138.348L152.804 146.907L140.121 127.773Z" fill="#E2625D"/>
<path fill-rule="evenodd" clip-rule="evenodd" d="M142.381 128.473L165.721 119.786L171.761 134.775L152.462 142.387L142.381 128.473Z" fill="#E4706F"/>
<path fill-rule="evenodd" clip-rule="evenodd" d="M45.8014 226.011L115.261 238.243L91.4167 339.017L24.8604 324.501L45.8014 226.011Z" fill="#E4706F"/>
<path fill-rule="evenodd" clip-rule="evenodd" d="M49.8301 253.133L97.1807 262.276L92.6373 287.035L45.2002 275.182L49.8301 253.133Z" fill="#FFFFFE"/>
<path fill-rule="evenodd" clip-rule="evenodd" d="M106.054 232.792L79.1006 343.184L81.7242 343.537L110.741 234.139L106.054 232.792Z" fill="#00475B"/>
<path fill-rule="evenodd" clip-rule="evenodd" d="M164.981 92.9982L345.783 72.3235L342.715 116.472L176.764 137.867L164.981 92.9982Z" fill="#F8F0EA"/>
<mask id="mask0_5622_8428" style="mask-type:alpha" maskUnits="userSpaceOnUse" x="276" y="81" width="61" height="36">
<path d="M279.76 116.824L276.311 88.7448L336.105 81.9304V112.39L279.76 116.824Z" fill="white"/>
</mask>
<g mask="url(#mask0_5622_8428)">
<path fill-rule="evenodd" clip-rule="evenodd" d="M276.311 116.824H336.105V81.9304H276.311V116.824Z" fill="#E1DBD3"/>
</g>
<path fill-rule="evenodd" clip-rule="evenodd" d="M171.983 108.485L169.502 101.624L268.943 90.4045V95.8744L171.983 108.485Z" fill="#E1DBD3"/>
<path fill-rule="evenodd" clip-rule="evenodd" d="M174.021 163.659L180.14 162.728L180.802 168.711L174.981 169.509L174.021 163.659Z" fill="#005465"/>
<path fill-rule="evenodd" clip-rule="evenodd" d="M183.062 163.659L189.18 162.728L189.842 168.711L184.021 169.509L183.062 163.659Z" fill="#005465"/>
<path fill-rule="evenodd" clip-rule="evenodd" d="M192.102 163.658L198.22 162.728L198.882 168.711L193.06 169.509L192.102 163.658Z" fill="#005465"/>
<path fill-rule="evenodd" clip-rule="evenodd" d="M201.142 161.399L207.26 160.468L207.922 166.45L202.101 167.248L201.142 161.399Z" fill="#005465"/>
<path fill-rule="evenodd" clip-rule="evenodd" d="M207.922 161.398L214.04 160.468L214.702 166.451L208.881 167.248L207.922 161.398Z" fill="#005465"/>
<path fill-rule="evenodd" clip-rule="evenodd" d="M216.962 159.139L223.081 158.208L223.742 164.19L217.92 164.988L216.962 159.139Z" fill="#005465"/>
<path fill-rule="evenodd" clip-rule="evenodd" d="M226.002 159.139L232.121 158.208L232.782 164.191L226.96 164.988L226.002 159.139Z" fill="#005465"/>
<path fill-rule="evenodd" clip-rule="evenodd" d="M235.042 156.878L241.16 155.948L241.822 161.931L236 162.728L235.042 156.878Z" fill="#005465"/>
<path fill-rule="evenodd" clip-rule="evenodd" d="M244.082 156.695L250.385 155.948L250.862 162.108L244.869 162.728L244.082 156.695Z" fill="#005465"/>
<path fill-rule="evenodd" clip-rule="evenodd" d="M250.862 154.435L257.164 153.688L257.642 159.847L251.649 160.468L250.862 154.435Z" fill="#005465"/>
<path fill-rule="evenodd" clip-rule="evenodd" d="M262.162 154.436L268.464 153.688L268.942 159.848L262.949 160.468L262.162 154.436Z" fill="#005465"/>
<path fill-rule="evenodd" clip-rule="evenodd" d="M268.942 152.175L275.245 151.428L275.722 157.587L269.729 158.208L268.942 152.175Z" fill="#005465"/>
<path fill-rule="evenodd" clip-rule="evenodd" d="M275.723 152.176L282.025 151.428L282.503 157.587L276.51 158.208L275.723 152.176Z" fill="#005465"/>
<path fill-rule="evenodd" clip-rule="evenodd" d="M287.022 152.175L293.325 151.428L293.803 157.587L287.809 158.208L287.022 152.175Z" fill="#005465"/>
<path fill-rule="evenodd" clip-rule="evenodd" d="M293.803 149.915L300.105 149.167L300.583 155.327L294.589 155.948L293.803 149.915Z" fill="#005465"/>
<path fill-rule="evenodd" clip-rule="evenodd" d="M302.843 149.915L309.145 149.167L309.623 155.327L303.63 155.948L302.843 149.915Z" fill="#005465"/>
<path fill-rule="evenodd" clip-rule="evenodd" d="M311.883 149.915L318.185 149.167L318.663 155.327L312.669 155.948L311.883 149.915Z" fill="#005465"/>
<path fill-rule="evenodd" clip-rule="evenodd" d="M320.923 149.915L327.226 149.167L327.703 155.327L321.71 155.948L320.923 149.915Z" fill="#005465"/>
<path fill-rule="evenodd" clip-rule="evenodd" d="M329.963 147.655L336.266 146.907L336.743 153.067L330.749 153.688L329.963 147.655Z" fill="#005465"/>
<path fill-rule="evenodd" clip-rule="evenodd" d="M336.743 147.655L343.046 146.907L343.523 153.067L337.53 153.688L336.743 147.655Z" fill="#005465"/>
<path fill-rule="evenodd" clip-rule="evenodd" d="M176.281 174.959L182.4 174.029L183.061 180.011L177.24 180.809L176.281 174.959Z" fill="#005465"/>
<path fill-rule="evenodd" clip-rule="evenodd" d="M183.062 172.699L189.18 171.769L189.842 177.752L184.021 178.549L183.062 172.699Z" fill="#005465"/>
<path fill-rule="evenodd" clip-rule="evenodd" d="M194.361 172.699L200.479 171.769L201.141 177.751L195.32 178.549L194.361 172.699Z" fill="#005465"/>
<path fill-rule="evenodd" clip-rule="evenodd" d="M201.142 170.439L207.26 169.509L207.922 175.491L202.1 176.289L201.142 170.439Z" fill="#005465"/>
<path fill-rule="evenodd" clip-rule="evenodd" d="M210.182 170.439L216.3 169.509L216.962 175.491L211.141 176.289L210.182 170.439Z" fill="#005465"/>
<path fill-rule="evenodd" clip-rule="evenodd" d="M219.222 168.179L225.34 167.249L226.002 173.231L220.18 174.029L219.222 168.179Z" fill="#005465"/>
<path fill-rule="evenodd" clip-rule="evenodd" d="M226.002 165.919L232.121 164.988L232.782 170.971L226.961 171.769L226.002 165.919Z" fill="#005465"/>
<path fill-rule="evenodd" clip-rule="evenodd" d="M235.042 165.92L241.161 164.988L241.822 170.971L236 171.769L235.042 165.92Z" fill="#005465"/>
<path fill-rule="evenodd" clip-rule="evenodd" d="M244.082 165.736L250.384 164.988L250.862 171.147L244.869 171.769L244.082 165.736Z" fill="#005465"/>
<path fill-rule="evenodd" clip-rule="evenodd" d="M253.122 163.476L259.425 162.728L259.902 168.887L253.908 169.509L253.122 163.476Z" fill="#005465"/>
<path fill-rule="evenodd" clip-rule="evenodd" d="M262.162 163.476L268.464 162.728L268.942 168.887L262.948 169.509L262.162 163.476Z" fill="#005465"/>
<path fill-rule="evenodd" clip-rule="evenodd" d="M271.202 163.475L277.505 162.728L277.982 168.887L271.988 169.509L271.202 163.475Z" fill="#005465"/>
<path fill-rule="evenodd" clip-rule="evenodd" d="M277.982 163.476L284.285 162.728L284.762 168.888L278.769 169.509L277.982 163.476Z" fill="#005465"/>
<path fill-rule="evenodd" clip-rule="evenodd" d="M289.282 163.476L295.585 162.728L296.062 168.888L290.069 169.509L289.282 163.476Z" fill="#005465"/>
<path fill-rule="evenodd" clip-rule="evenodd" d="M296.062 161.223L301.487 160.468L302.843 175.663L297.683 176.289L296.062 161.223Z" fill="#005465"/>
<path fill-rule="evenodd" clip-rule="evenodd" d="M302.843 161.215L309.145 160.468L309.623 166.627L303.63 167.248L302.843 161.215Z" fill="#005465"/>
<path fill-rule="evenodd" clip-rule="evenodd" d="M314.143 158.955L320.445 158.208L320.923 164.368L314.929 164.988L314.143 158.955Z" fill="#005465"/>
<path fill-rule="evenodd" clip-rule="evenodd" d="M320.923 156.695L327.226 155.948L327.703 162.107L321.709 162.728L320.923 156.695Z" fill="#005465"/>
<path fill-rule="evenodd" clip-rule="evenodd" d="M329.963 156.696L336.266 155.948L336.743 162.108L330.748 162.728L329.963 156.696Z" fill="#005465"/>
<path fill-rule="evenodd" clip-rule="evenodd" d="M339.003 154.436L345.306 153.688L345.783 159.847L339.789 160.468L339.003 154.436Z" fill="#005465"/>
<path fill-rule="evenodd" clip-rule="evenodd" d="M178.542 184L184.661 183.069L185.322 189.052L179.5 189.85L178.542 184Z" fill="#005465"/>
<path fill-rule="evenodd" clip-rule="evenodd" d="M185.321 181.74L191.439 180.809L192.101 186.792L186.28 187.589L185.321 181.74Z" fill="#005465"/>
<path fill-rule="evenodd" clip-rule="evenodd" d="M194.361 179.48L200.48 178.549L201.141 184.532L195.32 185.329L194.361 179.48Z" fill="#005465"/>
<path fill-rule="evenodd" clip-rule="evenodd" d="M203.402 179.479L209.521 178.549L210.182 184.532L204.361 185.329L203.402 179.479Z" fill="#005465"/>
<path fill-rule="evenodd" clip-rule="evenodd" d="M210.182 177.22L216.301 176.289L216.962 182.271L211.14 183.069L210.182 177.22Z" fill="#005465"/>
<path fill-rule="evenodd" clip-rule="evenodd" d="M221.482 177.219L227.601 176.289L228.262 182.271L222.441 183.069L221.482 177.219Z" fill="#005465"/>
<path fill-rule="evenodd" clip-rule="evenodd" d="M228.262 177.219L234.38 176.289L235.042 182.271L229.22 183.069L228.262 177.219Z" fill="#005465"/>
<path fill-rule="evenodd" clip-rule="evenodd" d="M237.302 177.219L243.42 176.289L244.082 182.272L238.261 183.069L237.302 177.219Z" fill="#005465"/>
<path fill-rule="evenodd" clip-rule="evenodd" d="M246.342 174.776L252.644 174.029L253.122 180.188L247.128 180.809L246.342 174.776Z" fill="#005465"/>
<path fill-rule="evenodd" clip-rule="evenodd" d="M255.383 174.776L261.685 174.029L262.163 180.188L256.169 180.809L255.383 174.776Z" fill="#005465"/>
<path fill-rule="evenodd" clip-rule="evenodd" d="M262.162 172.516L268.465 171.769L268.942 177.928L262.949 178.549L262.162 172.516Z" fill="#005465"/>
<path fill-rule="evenodd" clip-rule="evenodd" d="M273.463 172.516L279.766 171.769L280.243 177.928L274.249 178.549L273.463 172.516Z" fill="#005465"/>
<path fill-rule="evenodd" clip-rule="evenodd" d="M280.242 172.516L286.545 171.769L287.022 177.928L281.028 178.549L280.242 172.516Z" fill="#005465"/>
<path fill-rule="evenodd" clip-rule="evenodd" d="M289.282 171.152L303.464 169.509L305.102 175.025L290.06 176.289L289.282 171.152Z" fill="#005465"/>
<path fill-rule="evenodd" clip-rule="evenodd" d="M305.103 167.996L311.405 167.249L311.883 173.408L305.889 174.029L305.103 167.996Z" fill="#005465"/>
<path fill-rule="evenodd" clip-rule="evenodd" d="M316.403 167.996L322.705 167.249L323.183 173.408L317.19 174.029L316.403 167.996Z" fill="#005465"/>
<path fill-rule="evenodd" clip-rule="evenodd" d="M323.183 165.736L329.485 164.988L329.963 171.147L323.968 171.769L323.183 165.736Z" fill="#005465"/>
<path fill-rule="evenodd" clip-rule="evenodd" d="M329.963 165.736L336.266 164.988L336.743 171.147L330.75 171.769L329.963 165.736Z" fill="#005465"/>
<path fill-rule="evenodd" clip-rule="evenodd" d="M341.263 163.476L347.565 162.728L348.043 168.887L342.048 169.509L341.263 163.476Z" fill="#005465"/>
<path fill-rule="evenodd" clip-rule="evenodd" d="M178.542 190.78L184.661 189.85L185.322 195.833L179.501 196.63L178.542 190.78Z" fill="#005465"/>
<path fill-rule="evenodd" clip-rule="evenodd" d="M187.582 190.781L193.7 189.85L194.362 195.832L188.541 196.63L187.582 190.781Z" fill="#005465"/>
<path fill-rule="evenodd" clip-rule="evenodd" d="M194.361 188.52L200.48 187.589L201.141 193.572L195.32 194.37L194.361 188.52Z" fill="#005465"/>
<path fill-rule="evenodd" clip-rule="evenodd" d="M205.662 188.52L211.781 187.589L212.442 193.572L206.621 194.37L205.662 188.52Z" fill="#005465"/>
<path fill-rule="evenodd" clip-rule="evenodd" d="M212.442 188.521L218.56 187.589L219.222 193.572L213.401 194.37L212.442 188.521Z" fill="#005465"/>
<path fill-rule="evenodd" clip-rule="evenodd" d="M221.482 188.52L227.601 187.589L228.262 193.572L222.441 194.37L221.482 188.52Z" fill="#005465"/>
<path fill-rule="evenodd" clip-rule="evenodd" d="M230.522 184.192L288.787 178.549L289.283 184.325L231.34 189.85L230.522 184.192Z" fill="#005465"/>
<path fill-rule="evenodd" clip-rule="evenodd" d="M289.282 179.296L295.585 178.549L296.062 184.708L290.069 185.329L289.282 179.296Z" fill="#005465"/>
<path fill-rule="evenodd" clip-rule="evenodd" d="M298.322 177.037L304.625 176.289L305.102 182.448L299.109 183.069L298.322 177.037Z" fill="#005465"/>
<path fill-rule="evenodd" clip-rule="evenodd" d="M307.363 177.036L313.666 176.289L314.143 182.448L308.149 183.069L307.363 177.036Z" fill="#005465"/>
<path fill-rule="evenodd" clip-rule="evenodd" d="M316.403 177.036L322.706 176.289L323.183 182.448L317.19 183.069L316.403 177.036Z" fill="#005465"/>
<path fill-rule="evenodd" clip-rule="evenodd" d="M325.443 177.753L340.782 176.289L341.263 181.716L326.238 183.069L325.443 177.753Z" fill="#005465"/>
<path fill-rule="evenodd" clip-rule="evenodd" d="M343.523 174.776L349.826 174.029L350.304 180.188L344.31 180.809L343.523 174.776Z" fill="#005465"/>
<path d="M407.934 354.838C432.273 354.838 452.004 335.106 452.004 310.766C452.004 286.425 432.273 266.694 407.934 266.694C383.594 266.694 363.863 286.425 363.863 310.766C363.863 335.106 383.594 354.838 407.934 354.838Z" fill="#005465"/>
<path d="M430.534 241.832C454.874 241.832 474.605 222.1 474.605 197.76C474.605 173.42 454.874 153.688 430.534 153.688C406.195 153.688 386.464 173.42 386.464 197.76C386.464 222.1 406.195 241.832 430.534 241.832Z" fill="#005465"/>
<path d="M294.933 370.659C319.272 370.659 339.003 350.927 339.003 326.587C339.003 302.246 319.272 282.514 294.933 282.514C270.593 282.514 250.862 302.246 250.862 326.587C250.862 350.927 270.593 370.659 294.933 370.659Z" fill="#005465"/>
<path fill-rule="evenodd" clip-rule="evenodd" d="M436.409 187.464V183.881C436.409 182.141 437.572 181.73 438.385 181.73H443.419V174.06L436.491 174.029C428.811 174.029 427.061 179.753 427.061 183.418V187.464H422.624V196.431H427.102V218.823H436.059V196.431H442.709L443.038 192.91L443.532 187.464H436.409Z" fill="white"/>
<path fill-rule="evenodd" clip-rule="evenodd" d="M307.363 314.157C307.363 315.404 306.351 316.416 305.103 316.416C303.855 316.416 302.843 315.404 302.843 314.157C302.843 312.909 303.855 311.896 305.103 311.896C306.351 311.896 307.363 312.909 307.363 314.157Z" fill="white"/>
<path fill-rule="evenodd" clip-rule="evenodd" d="M312.083 335.264C312.083 339.944 308.29 343.737 303.61 343.737H286.256C281.576 343.737 277.784 339.944 277.784 335.264V317.909C277.784 313.229 281.576 309.436 286.256 309.436H303.61C308.29 309.436 312.083 313.229 312.083 317.909V335.264ZM313.478 309.776C311.131 306.932 307.579 305.115 303.61 305.115H286.256C279.202 305.115 273.463 310.855 273.463 317.909V335.264C273.463 342.318 279.202 348.058 286.256 348.058H303.61C310.664 348.058 316.403 342.318 316.403 335.264V317.909C316.403 314.822 315.305 311.987 313.478 309.776Z" fill="white"/>
<path fill-rule="evenodd" clip-rule="evenodd" d="M302.827 329.109C302.182 332.254 299.4 334.621 296.064 334.621C292.25 334.621 289.157 331.53 289.157 327.718C289.157 323.903 292.25 320.811 296.064 320.811C299.876 320.811 302.967 323.903 302.967 327.718C302.967 328.194 302.918 328.66 302.827 329.109ZM296.064 316.416C296.033 316.416 296.006 316.418 295.976 316.418V316.42C289.786 316.468 284.763 321.514 284.763 327.718C284.763 333.919 289.786 338.965 295.976 339.012V339.015C296.006 339.015 296.033 339.017 296.064 339.017C302.293 339.017 307.363 333.948 307.363 327.718C307.363 321.486 302.293 316.416 296.064 316.416Z" fill="white"/>
<path fill-rule="evenodd" clip-rule="evenodd" d="M408.594 331.803V326.162C406.714 325.981 405.068 325.538 403.658 324.833C402.248 324.128 401.055 323.278 400.078 322.283C399.102 321.289 398.343 320.195 397.8 319.002C397.258 317.808 396.914 316.615 396.77 315.422L401.922 313.794C401.995 314.662 402.185 315.512 402.492 316.344C402.799 317.175 403.224 317.935 403.767 318.622C404.309 319.309 404.978 319.897 405.773 320.385C406.569 320.873 407.509 321.207 408.594 321.388V310.052L407.238 309.78C404.454 309.202 402.257 308.081 400.648 306.417C399.039 304.754 398.234 302.584 398.234 299.908C398.234 298.606 398.487 297.377 398.993 296.22C399.5 295.062 400.214 294.023 401.136 293.101C402.058 292.179 403.152 291.41 404.417 290.795C405.683 290.181 407.075 289.783 408.594 289.602V283.906H412.825V289.656C414.488 289.873 415.916 290.289 417.11 290.904C418.303 291.519 419.297 292.242 420.093 293.074C420.888 293.905 421.512 294.8 421.964 295.759C422.416 296.717 422.751 297.63 422.968 298.498L418.086 300.288C418.014 299.782 417.851 299.239 417.598 298.661C417.345 298.082 417.001 297.521 416.567 296.979C416.133 296.437 415.609 295.939 414.994 295.487C414.38 295.035 413.656 294.701 412.825 294.484V305.604L413.638 305.766C416.676 306.381 419.044 307.602 420.744 309.428C422.443 311.254 423.293 313.396 423.293 315.855C423.293 317.049 423.067 318.224 422.615 319.381C422.163 320.538 421.503 321.587 420.635 322.527C419.767 323.468 418.683 324.254 417.381 324.887C416.079 325.52 414.56 325.945 412.825 326.162V331.803H408.594ZM417.978 316.127C417.978 314.97 417.562 313.912 416.73 312.953C415.898 311.995 414.597 311.317 412.825 310.919V321.388C414.597 321.063 415.898 320.421 416.73 319.463C417.562 318.504 417.978 317.392 417.978 316.127ZM403.604 299.691C403.604 300.848 403.974 301.87 404.716 302.756C405.457 303.642 406.75 304.266 408.594 304.627V294.321C407.003 294.61 405.773 295.243 404.906 296.22C404.038 297.196 403.604 298.353 403.604 299.691Z" fill="white"/>
</svg>
