<svg width="150" height="161" viewBox="0 0 150 161" fill="none" xmlns="http://www.w3.org/2000/svg">
<path fill-rule="evenodd" clip-rule="evenodd" d="M57.8623 91.879L60.2477 94.3184L150 8.83355L145.085 3.80557L57.8623 91.879Z" fill="#78696B"/>
<path fill-rule="evenodd" clip-rule="evenodd" d="M126.916 0L48.6953 96.1796L51.306 98.3747L132.298 4.52257L126.916 0Z" fill="#78696B"/>
<path fill-rule="evenodd" clip-rule="evenodd" d="M0 79.5701V96.9414C0 125.363 8.19519 149.751 32.7677 160.199H104.41C128.983 149.751 137.179 125.363 137.179 96.9414V79.5701H0Z" fill="#50B699"/>
<path fill-rule="evenodd" clip-rule="evenodd" d="M0 94.0996H137.179V89.7878H0V94.0996Z" fill="#00807B"/>
<path fill-rule="evenodd" clip-rule="evenodd" d="M136.6 109.349C136.865 106.618 137.034 103.83 137.115 100.996H0.0634766C0.14541 103.83 0.313001 106.618 0.578353 109.349H136.6Z" fill="#00807B"/>
<path fill-rule="evenodd" clip-rule="evenodd" d="M17.9893 79.5701C17.9893 79.5701 43.1391 49.7165 68.5886 49.7165C94.0382 49.7165 119.189 79.5701 119.189 79.5701H17.9893Z" fill="#F3EFEF"/>
<path fill-rule="evenodd" clip-rule="evenodd" d="M5.33984 130.957C10.2456 143.958 18.8961 154.301 32.7679 160.199H104.41C118.283 154.301 126.934 143.958 131.839 130.957H5.33984Z" fill="#00807B"/>
</svg>
