<svg xmlns="http://www.w3.org/2000/svg" viewBox="0 0 160 160" fill="none" role="img" aria-label="Worldpackers icon">
  <g transform="translate(29.3280 0)">
    <svg width="101.333" height="160" viewBox="0 0 101.333 160" overflow="visible">
      <g id="icon">
<path fill-rule="evenodd" clip-rule="evenodd" d="M93.2726 94.0429C93.2311 94.1948 93.0375 94.319 92.9822 94.4708C92.1803 96.61 91.5996 98.6526 90.5488 100.612C86.2073 108.672 80.0131 115.214 71.9523 119.603C68.2607 121.618 63.463 123.316 58.8588 124.102C58.9279 122.971 58.8311 121.991 58.8588 120.749C58.9141 120.445 59.2874 120.459 59.1491 119.962C59.4257 119.879 59.5916 119.686 59.799 119.534C59.6884 118.609 60.6424 118.761 60.4488 117.754C61.472 117.078 62.025 115.573 63.2417 115.325C64.3755 114.234 65.0945 112.744 66.0347 111.474C67.2514 111.212 68.1224 110.674 68.2469 109.183C68.2469 108.907 68.5372 108.907 68.6064 108.686V107.9C68.7723 107.596 68.9244 107.265 69.2562 107.113C69.3115 106.078 69.8093 105.484 70.1826 104.753C70.39 103.304 69.6433 100.875 70.8324 100.392C70.9707 100.185 70.8047 99.95 70.9015 99.8257C71.1919 99.7429 71.261 99.4255 71.5514 99.3289C71.9662 97.9763 73.4594 97.3139 74.3443 96.334C74.524 96.127 74.7591 95.7681 74.7729 95.3403C74.9526 95.2989 75.0356 95.1609 75.1324 95.0505C75.3121 94.0844 75.2845 93.2562 74.7729 92.6904C74.8973 91.7105 74.4411 90.5374 75.1324 90.1923C74.9941 89.5299 75.5472 89.5575 75.4227 88.9088C75.6716 88.7294 75.879 88.5086 76.0726 88.2601V87.6943C76.2247 87.5287 76.4874 87.4873 76.7224 87.4045V86.9076C77.317 86.7696 77.2755 85.9829 77.7179 85.693V83.8299C77.6903 83.4849 77.2478 83.54 77.3584 83.0432C76.598 82.2841 75.962 81.4008 74.5655 81.2628C74.4964 81.1248 74.3858 81.0144 74.2752 80.904C73.9433 81.0696 73.6806 80.7246 73.4179 80.6832C72.1321 80.4899 70.9983 81.0282 70.3485 81.6078C68.4681 81.2904 65.6613 81.9391 64.4031 81.18C64.4446 80.3519 64.4723 79.5376 63.9054 79.3168C62.108 79.0408 60.8083 77.6468 59.7575 76.3909C59.1768 76.4737 58.9279 76.2115 58.6099 76.032C56.9093 75.8112 56.0105 76.3909 54.5311 76.3909C53.8813 75.7422 53.024 75.273 52.2359 74.7485H51.3096C50.2173 74.4035 48.8485 73.8376 47.3 74.0999C47.0926 74.1413 46.9958 74.3207 46.8022 74.3897C46.2077 74.5967 45.3643 74.3897 44.59 74.4587C44.2443 74.5001 43.8987 74.7071 43.5945 74.7485C42.7787 74.8589 41.9215 74.5967 41.161 74.7485C40.9951 74.7761 40.7739 75.0522 40.5112 75.1074C40.3868 75.135 40.29 75.0108 40.2209 75.0384C40.0549 75.1074 39.9581 75.3282 39.7922 75.3972C39.6401 75.4524 39.4466 75.3558 39.2945 75.3972C39.1839 75.4248 39.1009 75.6732 38.8659 75.756C38.7691 75.7974 38.5893 75.7008 38.5064 75.756C38.382 75.8389 38.2437 76.0597 38.0778 76.1839C37.6353 76.5289 37.3726 76.4737 37.2897 77.0396H36.861C36.5707 77.6882 35.6029 77.633 35.354 78.3231C34.718 78.2403 34.6074 78.6681 34.3585 78.9718C33.4736 78.9028 33.1418 79.3858 32.2154 79.2616C31.9112 79.1788 31.8421 78.8751 31.3582 78.9718C30.9296 78.4749 30.6807 77.7848 30.2797 77.2604C30.5839 76.2667 29.8926 75.8664 29.7128 75.2592C29.4501 74.4311 29.7128 73.7548 28.9247 73.4788C27.3347 73.2028 26.9476 74.5001 25.4128 74.0447C25.316 73.4788 25.5234 73.2028 25.7723 72.9682C25.5926 71.4914 26.0627 70.6909 26.6987 70.0422C26.6572 69.6834 26.3668 69.5592 26.2701 69.2556C25.7032 69.1866 25.316 69.297 25.1225 69.6144C24.445 69.4212 23.9472 69.9456 23.5463 70.2631C22.3157 70.3459 21.5414 70.8841 20.5459 71.1878C20.2279 71.1602 20.1173 70.8979 19.8961 70.7599V69.6834C19.426 69.2004 19.3569 67.6546 19.8961 67.1854C19.8132 65.7776 20.4353 65.4878 20.5459 64.3285C20.8778 63.942 21.1267 63.4727 21.5414 63.1829C22.0115 63.2795 22.1636 63.0311 22.3296 62.8241C22.7444 63.0449 22.9656 62.6033 23.3251 62.5342C24.2238 62.3686 25.2746 62.7137 26.1871 62.5342C26.4222 62.4928 26.6572 62.2306 26.9061 62.1754C27.8324 61.9822 28.5652 62.2996 29.2704 62.6033C29.5192 63.8178 28.8279 64.7701 29.5607 65.5982V66.164C29.6575 66.2054 29.7405 66.2744 29.782 66.3849H30.8604C30.8604 65.681 31.1231 65.2117 31.5794 64.9633C31.5379 63.9282 32.2016 63.0863 32.5749 62.2444C32.644 61.8442 32.2984 61.8442 32.2154 61.5958C32.1463 59.7188 33.3768 59.1391 34.6488 58.6009C34.8009 58.3524 35.1466 58.2834 35.2157 57.9522C35.8102 58.0764 35.8517 57.6347 36.1421 57.4553C36.0453 56.8343 36.2665 56.2132 36.1421 55.6059C36.0729 55.2471 35.7688 55.0677 35.7826 54.7503C35.7964 54.212 36.391 53.3149 37.2067 53.4667C37.9672 52.8457 38.0501 51.714 38.7829 51.1757C38.852 51.1205 39.0594 51.1757 39.2115 51.1067C39.654 50.9134 39.8199 50.458 40.4974 50.5408C40.7601 50.2096 41.1057 49.9474 41.3546 49.6161C41.0919 48.0566 42.5299 47.3803 44.0784 47.6149C44.0784 48.3878 44.8942 48.374 44.8665 49.1883C46.7054 49.5333 46.4012 47.1457 47.9498 46.98C48.1572 46.773 48.3922 46.6074 48.5167 46.3314C49.0836 46.428 49.1665 46.0278 49.443 45.8345C49.3739 45.2963 48.7932 45.2963 48.5858 44.9098C48.1433 45.0616 47.3414 44.8546 47.0096 45.1307C46.1524 44.62 44.7282 44.3578 43.8572 44.9098C43.1935 45.3377 41.8385 45.7655 41.3546 46.2624H39.8475C39.5987 46.635 39.1562 46.6626 38.7691 46.9111C38.5064 47.0767 38.4373 47.3803 38.2022 47.5597C38.1331 47.6149 37.9395 47.5183 37.8427 47.5597C37.2482 47.7944 36.9578 48.6362 36.626 49.1331C36.0868 49.0503 36.0038 49.5885 35.6305 49.8508C33.5427 49.7404 33.2385 51.4103 31.9803 52.1418C31.5517 52.0314 30.8466 52.0314 30.4041 52.1418C30.017 51.6725 29.6022 51.2309 29.1183 50.8582C28.2472 51.2723 27.8048 52.1142 27.8324 53.4253C26.8784 53.5495 27.5283 51.9209 27.3347 51.4931C26.3254 51.1757 26.2701 52.3764 26.3392 53.3425C25.399 53.4391 25.9797 52.1832 25.7723 51.4103C25.6202 50.8444 25.1225 50.8583 24.9151 50.4856H22.6199C22.1083 50.6926 21.7212 51.3827 20.9054 51.0515C20.8363 50.3062 21.4723 50.2924 21.6935 49.837C22.7029 50.1268 23.5739 49.7265 23.9887 49.1883C24.8874 49.3401 26.0488 49.2297 27.0582 49.2573C27.3347 49.2573 27.3347 48.9675 27.5559 48.8985H28.7035C29.5746 49.5195 31.9665 49.3677 32.7823 48.8294C32.8376 48.512 33.0588 48.2084 32.9205 47.9048C32.3398 47.8082 31.925 48.4154 30.9849 48.1946C31.1646 47.4907 32.1186 47.5735 32.409 46.98H33.5566C34.3585 45.9449 35.8932 46.5522 37.2067 46.3314C37.5662 46.2762 37.7183 46.1105 38.216 45.9725C38.3958 45.9311 38.4787 45.7103 38.5755 45.6827C39.2392 45.5447 39.889 45.8207 40.2209 45.3239C41.2025 45.4481 41.7279 45.1169 42.1565 44.6752H42.7234C43.1659 44.4544 43.2627 43.8885 44.0784 44.0266C44.2582 43.8057 44.507 43.6401 44.6453 43.3779H47.5765C48.4337 42.9915 49.1527 42.4808 50.3003 42.3842C50.3832 41.9149 50.7842 41.7631 50.7289 41.1697C50.3279 41.0454 50.2726 40.9212 50.0099 40.7418C49.8855 40.6452 49.6781 40.797 49.5813 40.7418C49.3462 40.6038 49.1942 40.2174 48.8623 40.0931C48.4337 39.9413 47.9498 40.2312 47.4382 40.0931C47.1755 40.0241 47.0787 39.6791 46.7192 39.4445C46.6501 39.4031 46.498 39.4445 46.3597 39.3754C46.18 39.2926 46.0832 39.1132 46.0003 39.0856C45.3643 38.9338 44.7421 39.0166 44.0646 39.2926C43.4977 39.0028 43.2073 38.4369 42.7096 38.0781C41.3684 37.9263 40.6909 38.4507 40.1379 39.0718C39.0733 39.2512 38.9903 38.4508 39.0594 37.4985C40.1655 36.5186 43.152 38.0781 43.7051 36.422C45.8897 36.1735 49.5951 35.7595 52.3604 35.9251C53.8813 36.0079 53.8675 37.0982 54.5726 38.0643C54.5726 38.23 54.4482 38.2714 54.5035 38.4922C54.7247 38.9752 55.2363 39.196 55.2224 39.9137C56.1212 40.59 56.5774 41.7079 57.4347 42.4118V42.7706C57.9462 43.5021 59.2321 44.62 59.9372 43.3365H60.9466C62.1633 41.5975 58.9003 41.3767 59.163 40.0517C59.2597 39.5135 59.9787 39.6239 60.1723 39.058C60.2276 38.6164 59.6607 38.7958 59.8128 38.2713C59.4395 37.8297 58.8588 37.6089 58.8864 36.767C62.4122 37.1258 65.689 38.3542 68.551 39.6239C68.634 40.383 68.4266 40.9902 68.551 41.5561C68.6617 42.0805 69.2424 42.3152 69.2009 42.8396C69.5189 43.4055 70.2655 43.5435 70.708 43.9852C72.7957 43.8885 73.8742 44.413 75.5748 44.6338C75.9758 45.1582 76.5565 45.4895 76.3629 46.2762C76.2385 46.8006 75.4504 47.0076 75.2845 47.4907C74.4134 47.4079 74.4273 48.2084 74.0678 48.6362C74.0263 49.1055 74.5102 49.0503 74.3581 49.6299C75.243 50.6788 76.2662 51.5759 77.2893 52.4868V52.8457C77.5105 53.0389 77.6211 53.3287 77.9392 53.4115C77.953 54.2534 78.6581 54.4052 78.9347 54.9849C79.6398 54.9711 79.861 55.4541 80.3588 55.6335C81.5202 55.5783 83.0549 55.8958 83.442 55.0677C84.7002 54.8745 85.1427 53.867 86.0829 53.3563C86.6912 53.9636 87.2166 54.6536 87.6591 55.4265C87.3411 56.158 86.3732 56.2408 85.3639 56.2822C85.1012 55.7577 84.1057 55.9648 83.3591 55.9234C83.0272 56.1166 82.9719 56.365 82.4327 56.2132C81.534 57.0137 80.2067 57.3725 80.2205 59.0701C79.9301 59.1529 79.9163 59.5255 79.5707 59.5669C79.5845 60.2294 79.1973 60.4778 78.9208 60.8505C78.8102 61.8442 78.2295 62.341 77.9253 63.1415C77.6903 64.287 78.3401 64.3561 78.5752 65.1427C78.6305 65.3222 78.8932 65.3635 78.9347 65.4326C79.1006 65.7638 79.0729 66.2744 79.225 66.5091C79.3218 66.6747 79.4877 66.6609 79.5845 66.8679C79.7089 67.9444 79.3218 68.5103 78.9347 69.0762C78.9623 70.0009 78.589 70.5391 78.2848 71.1464C78.1051 72.5679 78.8932 73.0233 78.9347 74.2241C79.1282 74.4587 79.2665 74.7485 79.5845 74.8727C79.7642 75.6732 80.3726 76.0321 80.8703 76.5151C80.9671 77.1776 81.4372 77.4674 81.8658 77.7987C81.7829 78.4197 82.2391 78.5163 82.5157 78.7923V79.441C82.6401 79.7998 82.9581 79.9517 83.1655 80.2277C83.3867 81.6906 84.1334 82.643 85.2395 83.2226H89.4565C89.9543 83.3882 90.2031 83.8161 90.8115 83.8713C91.6272 84.5476 92.1388 85.555 92.8854 86.3003C92.7887 86.9214 93.0237 87.2112 93.2449 87.5148C92.8578 89.8197 93.9086 92.0556 93.314 94.0154L93.2726 94.0429ZM23.5877 115.753C22.8549 115.201 22.1498 114.497 21.3755 113.889C19.9099 112.744 18.5688 111.212 17.3659 109.749C16.7299 108.976 15.9694 108.327 15.4302 107.61C12.9553 104.284 10.9228 100.709 9.41573 96.748C8.89033 95.3679 8.2958 93.9049 7.83953 92.5386C5.83471 85.7483 5.73792 75.3144 7.83953 68.3999C8.54467 68.6621 8.77972 69.4074 9.41573 69.7524C9.18068 70.4287 10.1347 70.3735 10.0656 71.105C10.6186 71.7122 11.2961 72.2091 11.78 72.8853H12.2778C12.1395 73.7134 13.0244 73.5202 13.0659 74.1689H13.9231C14.0614 73.9895 13.9646 73.5892 13.9923 73.3132C13.9646 73.051 13.5913 73.1476 13.4254 73.0233C13.0521 72.0434 12.3884 71.3396 11.7109 70.6633C11.6694 70.4287 11.7662 70.3321 11.78 70.1664C10.9643 69.4902 11.1164 68.2757 10.4251 67.4476V65.1566H10.5633C10.8398 65.7914 11.0611 66.4677 11.6418 66.7989C11.4067 68.1791 11.946 68.7725 12.3608 69.5178C12.4161 69.7248 12.8032 69.6006 12.9276 69.7386C13.2042 70.7461 14.0337 71.2016 13.9231 72.5955C14.2273 73.3822 15.2781 73.4374 15.6376 74.1689H16.2874C16.799 74.8176 17.8083 74.9556 18.2923 75.4524C19.1357 75.4386 20.062 75.6042 20.9331 75.4524C21.5138 75.3558 21.8456 75.0108 22.2881 75.1626C22.5508 75.2592 22.4817 75.5076 22.7858 75.7285C23.0762 75.9493 23.4357 75.8664 23.5048 76.3771C24.1961 76.3771 24.5694 76.8325 25.2884 76.7359C25.6479 76.6945 26.0074 76.2391 26.7263 76.4461C27.5006 76.6669 27.5421 77.702 28.4408 77.8677C29.0353 78.889 29.3672 80.1725 30.2244 80.9454C30.736 80.8488 30.9987 81.3318 31.372 81.5941C32.4366 81.5941 32.8514 82.2565 33.4459 82.7396C33.5012 83.0156 33.363 83.0846 33.3768 83.3054C33.4459 83.6091 33.6119 83.8299 33.7363 84.0921C33.6533 86.2451 33.7778 88.1911 34.3861 89.6679V91.3102C34.9392 92.1107 35.1327 93.3943 36.0315 94.0291V94.457C36.8472 94.9814 37.1238 96.0441 38.2437 96.2374C38.4926 96.7618 39.0318 96.9689 39.5295 97.2449C39.7646 98.487 40.6909 99.0391 41.3961 99.8119C42.2395 100.116 43.0553 99.9223 43.8987 100.102C44.59 100.24 45.1707 100.875 45.9726 100.75C46.581 101.275 47.0372 101.965 47.6871 102.462V102.959C48.3646 103.911 49.1112 104.504 49.3324 105.954C49.443 106.699 49.1942 107.555 49.3324 108.383C49.3601 108.562 49.5675 108.714 49.6228 108.948C49.7334 109.418 49.6228 109.846 49.9823 110.094C49.9131 111.557 50.0929 112.799 50.6321 113.669C50.8672 114.331 50.4247 114.869 50.3417 115.449C50.2864 115.918 50.5353 116.277 50.6321 116.871C50.7151 117.436 50.5491 118.071 50.6321 118.513C50.6736 118.72 50.8948 118.761 50.9916 119.01C51.0469 119.148 50.9363 119.3 50.9916 119.438C51.199 119.934 51.7106 120.335 51.5585 120.942C52.2498 121.342 52.1945 122.488 52.9134 122.874C52.9134 123.799 53.6462 124.006 53.8398 124.737C40.5665 125.372 31.1784 121.425 23.5739 115.739L23.5877 115.753ZM32.6025 39.8309C33.4321 39.4169 34.2064 39.0718 35.2434 38.8372C35.3125 39.1408 34.8424 39.4721 35.0221 40.1207C35.1466 40.4244 35.4369 40.5624 35.4508 40.9764C35.6305 41.1558 36.0315 41.1144 36.1697 41.3353C35.8656 42.26 35.7826 43.4193 34.953 43.8333C33.6948 42.95 33.5842 45.1445 32.5196 44.9098C32.326 43.6953 32.9205 42.3704 32.3813 41.6941H30.9572C30.9434 41.2663 30.7774 40.9764 30.3074 40.9764C30.9848 40.4658 31.8283 40.2174 32.6025 39.8309ZM101.195 76.7359C101.195 76.7359 101.084 76.6807 101.14 76.5427C100.559 69.2832 98.8169 63.3347 96.2729 58.1868C92.7886 51.1619 88.5578 45.9726 82.889 41.0454C80.9256 39.3479 78.4922 37.6365 76.1694 36.3253C75.3121 35.8423 74.4687 35.304 73.6668 34.9728C73.252 34.7934 72.8234 34.7658 72.4501 34.5449C72.2289 34.4207 72.0491 34.2137 71.8417 34.0481C71.4822 33.8825 71.1089 33.7169 70.7494 33.5512C70.0028 33.3304 69.2424 33.22 68.5925 32.8336C68.551 32.7784 68.5372 32.7094 68.4958 32.6404C67.6938 32.3367 66.8919 32.0607 66.0761 31.7985C64.8456 31.6605 63.6427 31.1636 62.3845 30.7772C61.5549 30.584 60.7115 30.4045 59.8543 30.2389C58.5684 30.0457 57.2688 29.8939 55.9276 29.673C54.9459 29.5626 53.9642 29.4936 52.9687 29.4522C52.8996 29.4798 52.8305 29.5213 52.7752 29.5351C52.554 29.5765 52.2774 29.4798 52.0286 29.4246C51.5723 29.4246 51.1022 29.3832 50.6459 29.3832C48.9453 29.3832 47.2585 29.466 45.5993 29.6316C43.8848 29.8387 42.2948 30.1285 40.9813 30.3769C39.253 30.7082 37.898 30.9842 36.4048 31.4534C28.1366 34.0067 21.5553 38.0367 15.9832 43.1018C15.7067 43.3641 15.444 43.6125 15.1675 43.8747C14.7804 44.2336 14.4209 44.62 14.0614 45.0065C13.7296 45.3515 13.3977 45.6827 13.0797 46.0416C10.9643 48.4292 9.11156 51.0791 7.28648 53.8808C7.05144 54.2396 6.81639 54.6261 6.59517 55.0125C6.44308 55.2885 6.27716 55.5507 6.12507 55.8268C6.12507 55.8406 6.09742 55.8682 6.09742 55.882C4.00964 59.7188 2.4196 63.873 1.38262 68.2342C1.25819 68.9657 1.14758 69.6834 0.995489 70.3735C0.967836 70.4977 0.898714 70.6357 0.843408 70.7737C0.677492 71.6984 0.525395 72.6369 0.414784 73.5892C0.373305 74.1551 0.331831 74.7209 0.290352 75.3006C0.290352 75.3834 0.248866 75.4248 0.207387 75.4662C0.0829497 76.943 0 78.4335 0 79.9517C0 81.4836 0.0829497 82.988 0.207387 84.4786C0.23504 84.5338 0.276523 84.5751 0.276523 84.6579C0.318002 85.5826 0.414787 86.4384 0.525398 87.2802C0.539224 87.4045 0.553052 87.5424 0.580704 87.6805C0.89871 89.7921 1.39647 91.7243 1.89421 93.6703C2.15691 94.6226 2.46109 95.5749 2.7791 96.4996C4.8254 102.006 7.48004 106.92 10.7984 111.171C10.7984 111.171 10.8122 111.198 10.826 111.212C11.6971 112.316 12.5958 113.379 13.5498 114.4C13.619 114.483 13.7019 114.552 13.771 114.635C16.7022 117.74 20.0206 120.445 23.7537 122.75C23.7675 122.805 23.809 122.847 23.8366 122.888C25.5373 123.951 27.2932 124.917 29.1183 125.772C29.1183 125.772 29.1183 125.772 29.1183 125.759C32.243 127.015 35.4231 128.229 38.9212 129.112C38.9212 129.14 38.9212 129.168 38.9212 129.195C39.8475 129.416 40.7739 129.609 41.7141 129.775C43.788 129.982 46.0694 130.41 48.4752 130.534C49.0006 130.562 49.526 130.575 50.0652 130.575C50.3279 130.575 50.6045 130.575 50.8672 130.575C54.1716 130.575 57.407 130.23 60.5456 129.609C61.0433 129.513 61.5411 129.402 62.025 129.292C62.2601 129.237 62.5089 129.181 62.744 129.126C69.7125 127.36 75.8375 124.282 80.9948 120.528C81.0915 120.459 81.1745 120.376 81.2713 120.307C82.3083 119.52 83.3038 118.582 84.3546 117.685C85.4607 116.76 86.5668 115.739 87.507 114.69C89.4288 112.509 91.3645 110.26 92.9407 107.831C97.2269 101.247 100.448 93.2562 101.167 83.333C101.14 83.2502 101.167 83.2226 101.223 83.2088C101.292 82.1461 101.333 81.0834 101.333 79.9931C101.333 78.9028 101.292 77.8124 101.223 76.7359H101.195Z" fill="var(--fill-0, #158CBA)"/>
<path fill-rule="evenodd" clip-rule="evenodd" d="M58.2366 32.8474C58.3334 31.8399 59.3289 31.5087 59.8543 30.9014C59.9511 30.791 59.9234 30.5978 60.0064 30.5012C60.3382 30.0595 60.7807 29.7973 61.1816 29.4385C61.389 28.9692 61.5826 28.3481 61.9421 28.0307C62.1633 27.8375 62.509 27.8651 62.744 27.7133C63.5459 27.2026 63.8363 26.2779 64.5967 25.7121C64.5967 25.5741 64.5967 25.4361 64.5967 25.298C64.8871 25.0358 65.4955 24.7322 65.8411 24.3043C66.0209 24.0973 66.1038 23.6143 66.5739 23.7109C66.9887 23.7937 67.0164 24.4285 67.1131 25.022C67.1546 25.298 67.4035 25.5327 67.445 25.7121C67.5556 26.1537 67.2929 26.6368 67.6939 26.8162C67.6939 27.1336 67.68 27.4511 67.6662 27.7685C67.6662 28.0445 67.3482 27.9755 67.362 28.2378C67.3344 29.7283 67.1823 30.5564 67.2514 31.9227C67.5279 32.2126 67.5556 32.7094 67.8598 32.9578C67.6247 34.0619 68.2331 34.4208 68.399 35.1661C69.1318 35.4145 69.8508 35.6629 70.5559 35.9389C69.8369 34.2414 70.5559 31.2603 70.2656 28.9278C70.2379 28.6794 70.072 28.4724 70.072 28.2378C70.072 27.6305 70.4591 26.8024 70.1273 26.2641C70.708 24.5251 71.3302 22.0961 70.8877 19.9431C70.8324 19.6947 70.6665 19.5428 70.625 19.322C70.3209 17.9695 71.6205 17.376 72.2012 16.7688C73.7774 16.5203 73.9848 17.5003 75.326 17.4588C75.8376 17.8315 75.962 18.8804 76.7778 19.0736C77.5797 19.253 78.4369 18.7424 78.3816 18.1627C78.3401 17.7763 77.7318 17.5968 77.4829 17.2518C77.0405 17.169 76.7501 16.9344 76.3491 16.8102C76.0588 16.6998 75.9067 16.2857 75.727 16.1753C75.5887 16.0925 75.4504 16.2029 75.2983 16.0925C74.8836 15.7888 73.4456 14.6157 73.418 14.1327C73.4041 13.622 74.2337 13.0286 74.3305 12.4489C74.372 12.2005 74.1922 11.8969 74.2199 11.5518C74.2614 10.9998 74.7591 10.4477 74.7729 9.99227C74.7729 9.77144 74.5655 9.4678 74.5102 9.16417C74.4273 8.70872 74.5517 8.19807 74.4826 7.86683C74.372 7.36998 73.8604 6.94214 73.8742 6.48669C73.9157 5.52059 75.1324 5.47916 75.6855 5.64478C76.2938 5.32735 77.0405 4.7615 77.234 3.97482C77.3032 3.68499 77.1926 3.32615 77.2617 3.02252C77.3723 2.47046 77.8009 2.00122 77.5935 1.39396C77.2479 0.800497 76.5012 0.565871 76.0588 0.0552175C75.2983 0.0414161 74.5241 0.0138014 73.7636 0C73.5147 0.455447 72.7681 1.10413 72.6437 1.73899C72.4363 2.7465 73.3488 4.37509 71.7726 4.30608C71.1228 4.27848 70.7218 3.46419 70.0858 3.31238C69.7125 3.22957 69.2839 3.35375 68.8691 3.28475C68.6755 3.24334 68.4681 3.03633 68.2331 2.99493C68.0119 2.95353 67.7768 3.03632 67.5832 2.98111C67.3344 2.91211 67.1408 2.67751 66.8781 2.62231C65.5369 2.33248 64.4032 2.74651 63.8501 3.21576C63.6289 3.40898 63.6289 3.75399 63.3939 4.01622C63.0482 4.41646 62.5504 4.76151 62.2186 5.14795C61.9283 5.47918 61.7762 5.90703 61.472 6.22446C61.4305 7.03874 61.0849 7.63222 61.0434 8.39129C61.0157 9.02616 61.2369 9.71622 61.0434 10.3649C60.9466 10.7099 60.6009 10.7651 60.3797 11.0964C60.2829 11.2344 60.3797 11.4414 60.2967 11.6346C60.117 11.9935 59.716 12.0763 59.6331 12.3661C59.398 13.1666 59.7437 13.8015 59.5639 14.8228C59.8267 15.2644 60.2829 15.5404 60.2414 16.2719C61.2784 17.169 62.2186 18.1627 64.2649 18.1489C65.0807 18.8528 64.1958 19.253 63.9884 19.9845C63.9192 20.2191 64.0437 20.4951 63.9746 20.6607C63.8225 21.0334 63.1035 21.5855 62.9376 21.7925C62.9376 22.0271 62.9376 22.2479 62.9238 22.4687C62.7578 22.7172 62.4813 22.869 62.2601 23.0622C62.2601 23.2416 62.2601 23.4211 62.2463 23.6143C61.3061 24.815 60.5595 26.209 59.2736 27.0784C59.0524 27.6995 58.5823 28.0859 58.2919 28.6932C58.0292 29.2314 57.8357 29.8939 57.4485 30.446C57.1443 30.8738 56.218 32.0331 55.499 32.53C56.3977 32.599 57.2964 32.6818 58.1813 32.7922L58.2366 32.8474Z" fill="var(--fill-0, #158CBA)"/>
<path fill-rule="evenodd" clip-rule="evenodd" d="M36.8195 128.381C36.6398 129.388 35.6996 129.623 35.1742 130.189C35.0774 130.299 35.0774 130.479 34.9944 130.589C34.6626 131.003 34.234 131.224 33.833 131.541C33.598 131.997 33.3767 132.59 33.0172 132.894C32.796 133.073 32.4919 133.004 32.2706 133.142C31.4964 133.584 31.1507 134.481 30.4179 134.978C30.4041 135.116 30.3902 135.254 30.3626 135.392C30.0722 135.627 29.5054 135.875 29.1459 136.262C28.9661 136.455 28.8555 136.924 28.4269 136.786C28.0536 136.662 28.0951 136.013 28.0674 135.42C28.0674 135.144 27.8462 134.868 27.8324 134.688C27.7771 134.233 28.0674 133.763 27.7079 133.556C27.7494 133.239 27.7909 132.922 27.8185 132.604C27.8324 132.328 28.1227 132.439 28.1365 132.162C28.3025 130.658 28.5237 129.844 28.5928 128.464C28.3716 128.146 28.3992 127.636 28.1365 127.36C28.4546 126.269 27.943 125.855 27.86 125.082C27.224 124.765 26.6018 124.434 25.9935 124.089C26.4774 125.883 25.551 128.809 25.5787 131.183C25.5787 131.445 25.7031 131.666 25.6893 131.9C25.634 132.508 25.2054 133.308 25.4404 133.888C24.7491 135.585 23.961 137.973 24.1407 140.195C24.1684 140.443 24.2928 140.623 24.3205 140.844C24.4587 142.238 23.242 142.707 22.6475 143.259C21.2095 143.355 21.1128 142.348 19.896 142.251C19.4812 141.823 19.4536 140.761 18.7346 140.485C18.0295 140.223 17.2137 140.65 17.1999 141.244C17.1999 141.644 17.7253 141.879 17.9189 142.251C18.306 142.389 18.5549 142.638 18.9005 142.803C19.1494 142.941 19.2462 143.369 19.3983 143.507C19.5089 143.604 19.6472 143.507 19.7716 143.631C20.1173 143.977 21.2925 145.301 21.2648 145.798C21.2372 146.309 20.4214 146.833 20.2832 147.399C20.2279 147.648 20.3523 147.965 20.297 148.31C20.2141 148.862 19.7025 149.373 19.6472 149.828C19.6195 150.063 19.7854 150.38 19.7993 150.684C19.8269 151.153 19.661 151.664 19.7025 151.995C19.7578 152.506 20.1726 152.989 20.1173 153.444C19.9928 154.424 18.8867 154.341 18.4028 154.107C17.8221 154.369 17.0893 154.866 16.8404 155.639C16.7436 155.929 16.8128 156.301 16.716 156.591C16.5639 157.143 16.1353 157.571 16.2597 158.206C16.5224 158.841 17.1584 159.158 17.5179 159.71C18.2092 159.807 18.8867 159.903 19.578 160C19.8546 159.558 20.5874 158.979 20.7533 158.358C21.0298 157.364 20.38 155.625 21.7764 155.846C22.3571 155.942 22.6337 156.798 23.2005 157.019C23.5185 157.143 23.9333 157.046 24.2928 157.171C24.4587 157.226 24.6247 157.461 24.8321 157.53C25.0256 157.599 25.2468 157.53 25.4128 157.612C25.634 157.709 25.7861 157.957 26.0073 158.04C27.1825 158.454 28.2472 158.164 28.7864 157.737C29.0076 157.557 29.0353 157.212 29.2703 156.964C29.616 156.591 30.0999 156.301 30.4455 155.942C30.7359 155.639 30.9156 155.225 31.2198 154.935C31.3304 154.107 31.7038 153.555 31.8144 152.782C31.8973 152.133 31.759 151.429 31.9941 150.781C32.1185 150.449 32.4227 150.422 32.6578 150.104C32.7546 149.966 32.6854 149.746 32.796 149.566C32.9896 149.221 33.3629 149.18 33.4597 148.89C33.7501 148.103 33.5012 147.427 33.7639 146.419C33.5703 145.936 33.1832 145.619 33.2938 144.887C32.4365 143.88 31.6899 142.79 29.851 142.596C29.1874 141.796 30.0169 141.492 30.2658 140.775C30.3488 140.54 30.2658 140.264 30.3488 140.085C30.5285 139.726 31.2198 139.243 31.3857 139.049C31.4134 138.815 31.4411 138.594 31.4687 138.359C31.6484 138.125 31.9111 138.001 32.1185 137.821C32.1462 137.642 32.16 137.462 32.1877 137.269C33.1555 136.151 33.9575 134.812 35.188 134.067C35.4369 133.474 35.907 133.115 36.225 132.535C36.5153 132.011 36.7504 131.376 37.1513 130.851C37.4555 130.451 38.4095 129.375 39.1008 128.947C38.2989 128.795 37.497 128.616 36.7089 128.409L36.8195 128.381Z" fill="var(--fill-0, #158CBA)"/>
</g>
    </svg>
  </g>
</svg>
