<svg xmlns="http://www.w3.org/2000/svg" viewBox="0 0 805 160" fill="none" role="img" aria-label="Worldpackers logo">
  <g transform="translate(0.6440 2.0000)">
    <svg width="98.6258" height="156" viewBox="0 0 98.6258 156" overflow="visible">
      <g id="icon">
<path fill-rule="evenodd" clip-rule="evenodd" d="M90.7804 91.6919C90.7401 91.8399 90.5517 91.961 90.4978 92.109C89.7173 94.1948 89.1521 96.1863 88.1294 98.0971C83.9039 105.956 77.8752 112.334 70.0299 116.613C66.4369 118.578 61.7673 120.233 57.2861 121C57.3534 119.896 57.2592 118.941 57.2861 117.73C57.34 117.434 57.7033 117.447 57.5687 116.963C57.8379 116.882 57.9994 116.694 58.2012 116.546C58.0936 115.644 59.0221 115.792 58.8337 114.81C59.8295 114.151 60.3678 112.684 61.552 112.442C62.6555 111.379 63.3552 109.925 64.2703 108.687C65.4545 108.432 66.3023 107.907 66.4234 106.454C66.4234 106.184 66.706 106.184 66.7733 105.969V105.202C66.9348 104.906 67.0828 104.583 67.4058 104.435C67.4596 103.426 67.944 102.847 68.3074 102.134C68.5092 100.721 67.7826 98.3528 68.9399 97.8818C69.0744 97.68 68.9129 97.4512 69.0071 97.3301C69.2897 97.2494 69.357 96.9398 69.6396 96.8457C70.0433 95.5269 71.4967 94.881 72.3579 93.9256C72.5328 93.7238 72.7616 93.3739 72.7751 92.9568C72.95 92.9164 73.0308 92.7819 73.125 92.6742C73.2999 91.7323 73.273 90.9248 72.7751 90.3731C72.8962 89.4177 72.4521 88.2739 73.125 87.9375C72.9904 87.2916 73.5287 87.3185 73.4075 86.6861C73.6498 86.5112 73.8516 86.2958 74.04 86.0536V85.5019C74.188 85.3404 74.4437 85.3001 74.6725 85.2193V84.7349C75.2511 84.6003 75.2108 83.8333 75.6414 83.5507V81.7341C75.6145 81.3977 75.1839 81.4515 75.2915 80.9671C74.5514 80.227 73.9324 79.3658 72.5732 79.2312C72.5059 79.0967 72.3983 78.989 72.2906 78.8814C71.9676 79.0429 71.712 78.7065 71.4563 78.6661C70.2048 78.4777 69.1013 79.0025 68.4688 79.5676C66.6387 79.2581 63.9069 79.8906 62.6824 79.1505C62.7227 78.3431 62.7497 77.5492 62.1979 77.3339C60.4485 77.0647 59.1836 75.7057 58.1608 74.4811C57.5956 74.5619 57.3534 74.3062 57.0439 74.1312C55.3887 73.9159 54.514 74.4811 53.0741 74.4811C52.4416 73.8487 51.6073 73.3912 50.8403 72.8798H49.9387C48.8756 72.5434 47.5433 71.9917 46.0362 72.2474C45.8343 72.2877 45.7401 72.4627 45.5517 72.53C44.9731 72.7318 44.1522 72.53 43.3986 72.5972C43.0622 72.6376 42.7257 72.8394 42.4297 72.8798C41.6357 72.9875 40.8014 72.7318 40.0613 72.8798C39.8998 72.9067 39.6845 73.1759 39.4288 73.2297C39.3077 73.2566 39.2135 73.1355 39.1462 73.1624C38.9847 73.2297 38.8905 73.445 38.729 73.5123C38.581 73.5661 38.3926 73.4719 38.2446 73.5123C38.1369 73.5392 38.0562 73.7814 37.8274 73.8621C37.7332 73.9025 37.5583 73.8083 37.4775 73.8621C37.3564 73.9429 37.2219 74.1582 37.0604 74.2793C36.6298 74.6157 36.3741 74.5619 36.2933 75.1136H35.8762C35.5936 75.746 34.6516 75.6922 34.4094 76.365C33.7903 76.2843 33.6827 76.7014 33.4405 76.9975C32.5792 76.9302 32.2563 77.4012 31.3546 77.2801C31.0586 77.1993 30.9913 76.9033 30.5203 76.9975C30.1031 76.513 29.8609 75.8402 29.4707 75.3289C29.7667 74.36 29.0939 73.9698 28.9189 73.3777C28.6633 72.5703 28.9189 71.911 28.1519 71.6418C26.6043 71.3727 26.2276 72.6376 24.7338 72.1936C24.6396 71.6418 24.8415 71.3727 25.0837 71.144C24.9088 69.7041 25.3663 68.9236 25.9853 68.2912C25.9449 67.9413 25.6624 67.8202 25.5682 67.5242C25.0164 67.4569 24.6396 67.5645 24.4512 67.874C23.7918 67.6856 23.3074 68.197 22.9171 68.5065C21.7195 68.5872 20.9659 69.112 19.997 69.4081C19.6875 69.3812 19.5798 69.1255 19.3645 68.9909V67.9413C18.907 67.4704 18.8397 65.9632 19.3645 65.5057C19.2838 64.1332 19.8893 63.8506 19.997 62.7202C20.32 62.3435 20.5622 61.8859 20.9659 61.6033C21.4234 61.6975 21.5715 61.4554 21.7329 61.2535C22.1366 61.4688 22.352 61.0382 22.7018 60.9709C23.5765 60.8094 24.5993 61.1458 25.4874 60.9709C25.7162 60.9305 25.945 60.6749 26.1872 60.6211C27.0888 60.4327 27.802 60.7422 28.4883 61.0382C28.7305 62.2224 28.0577 63.1508 28.7709 63.9582V64.5099C28.8651 64.5503 28.9459 64.6176 28.9862 64.7252H30.0359C30.0359 64.039 30.2916 63.5814 30.7356 63.3392C30.6953 62.33 31.3412 61.5092 31.7045 60.6883C31.7718 60.2981 31.4354 60.2981 31.3546 60.0559C31.2874 58.2258 32.485 57.6606 33.723 57.1359C33.8711 56.8936 34.2075 56.8264 34.2748 56.5034C34.8534 56.6245 34.8938 56.1939 35.1764 56.0189C35.0822 55.4134 35.2975 54.8079 35.1764 54.2158C35.1091 53.8659 34.8131 53.691 34.8265 53.3815C34.84 52.8567 35.4186 51.982 36.2126 52.1301C36.9527 51.5245 37.0335 50.4211 37.7467 49.8963C37.814 49.8425 38.0158 49.8963 38.1638 49.829C38.5945 49.6406 38.756 49.1966 39.4153 49.2773C39.671 48.9544 40.0074 48.6987 40.2497 48.3757C39.994 46.8551 41.3935 46.1958 42.9007 46.4245C42.9007 47.1781 43.6947 47.1647 43.6677 47.9586C45.4575 48.295 45.1615 45.967 46.6686 45.8055C46.8705 45.6037 47.0993 45.4422 47.2204 45.1731C47.7721 45.2673 47.8528 44.8771 48.122 44.6887C48.0547 44.1639 47.4895 44.1639 47.2876 43.7871C46.857 43.9351 46.0765 43.7333 45.7535 44.0024C44.9192 43.5045 43.5332 43.2488 42.6854 43.7871C42.0394 44.2042 40.7207 44.6214 40.2497 45.1058H38.7829C38.5406 45.4692 38.11 45.4961 37.7332 45.7383C37.4775 45.8998 37.4103 46.1958 37.1815 46.3707C37.1142 46.4246 36.9258 46.3304 36.8316 46.3707C36.253 46.5995 35.9704 47.4203 35.6474 47.9047C35.1226 47.824 35.0418 48.3488 34.6785 48.6045C32.6465 48.4968 32.3505 50.125 31.1259 50.8382C30.7087 50.7306 30.0224 50.7306 29.5918 50.8382C29.215 50.3807 28.8113 49.9501 28.3403 49.5868C27.4925 49.9905 27.0619 50.8113 27.0888 52.0897C26.1603 52.2108 26.7927 50.6229 26.6043 50.2058C25.622 49.8963 25.5682 51.067 25.6354 52.009C24.7204 52.1032 25.2856 50.8786 25.0837 50.125C24.9357 49.5733 24.4512 49.5868 24.2494 49.2235H22.0155C21.5176 49.4253 21.1408 50.0982 20.3469 49.7752C20.2796 49.0486 20.8986 49.0351 21.1139 48.591C22.0963 48.8736 22.9441 48.4834 23.3478 47.9586C24.2225 48.1066 25.3529 47.9989 26.3352 48.0258C26.6043 48.0258 26.6043 47.7433 26.8197 47.676H27.9366C28.7844 48.2815 31.1124 48.1335 31.9064 47.6087C31.9602 47.2992 32.1755 47.0032 32.0409 46.7071C31.4757 46.6129 31.072 47.205 30.157 46.9897C30.3319 46.3034 31.2604 46.3842 31.543 45.8055H32.66C33.4405 44.7963 34.9342 45.3884 36.2126 45.1731C36.5625 45.1193 36.7105 44.9578 37.1949 44.8232C37.3699 44.7828 37.4506 44.5676 37.5448 44.5406C38.1908 44.4061 38.8232 44.6752 39.1462 44.1908C40.1017 44.3119 40.613 43.989 41.0302 43.5584H41.5819C42.0125 43.343 42.1067 42.7913 42.9007 42.9259C43.0756 42.7106 43.3179 42.5491 43.4524 42.2934H46.3053C47.1396 41.9167 47.8394 41.4188 48.9563 41.3246C49.037 40.8671 49.4273 40.719 49.3735 40.1404C48.9832 40.0193 48.9294 39.8982 48.6737 39.7233C48.5526 39.6291 48.3507 39.7771 48.2565 39.7233C48.0278 39.5887 47.8798 39.2119 47.5568 39.0908C47.1396 38.9428 46.6686 39.2254 46.1707 39.0908C45.915 39.0235 45.8208 38.6871 45.471 38.4584C45.4037 38.418 45.2556 38.4583 45.1211 38.3911C44.9461 38.3103 44.8519 38.1354 44.7712 38.1085C44.1522 37.9605 43.5466 38.0412 42.8872 38.3103C42.3355 38.0277 42.0529 37.476 41.5684 37.1262C40.2631 36.9781 39.6037 37.4895 39.0655 38.095C38.0293 38.2699 37.9485 37.4895 38.0158 36.561C39.0924 35.6056 41.9991 37.1262 42.5373 35.5114C44.6635 35.2692 48.27 34.8655 50.9614 35.027C52.4417 35.1077 52.4282 36.1708 53.1145 37.1127C53.1145 37.2742 52.9934 37.3146 53.0472 37.5299C53.2625 38.0008 53.7604 38.2161 53.747 38.9159C54.6217 39.5752 55.0658 40.6652 55.9001 41.3515V41.7014C56.398 42.4146 57.6495 43.5045 58.3358 42.2531H59.3181C60.5023 40.5576 57.3265 40.3423 57.5822 39.0504C57.6764 38.5257 58.3762 38.6333 58.5645 38.0816C58.6184 37.651 58.0667 37.8259 58.2147 37.3146C57.8513 36.884 57.2862 36.6687 57.3131 35.8478C60.7446 36.1977 63.9339 37.3953 66.7194 38.6333C66.8002 39.3734 66.5983 39.9655 66.7194 40.5172C66.8271 41.0285 67.3923 41.2573 67.3519 41.7686C67.6614 42.3203 68.3881 42.4549 68.8187 42.8855C70.8507 42.7913 71.9004 43.3026 73.5556 43.5179C73.9458 44.0293 74.511 44.3522 74.3226 45.1193C74.2015 45.6306 73.4345 45.8325 73.273 46.3034C72.4252 46.2227 72.4386 47.0032 72.0888 47.4203C72.0484 47.8778 72.5194 47.824 72.3714 48.3892C73.2326 49.4119 74.2284 50.2865 75.2242 51.1746V51.5245C75.4395 51.7129 75.5472 51.9955 75.8567 52.0762C75.8702 52.8971 76.5565 53.0451 76.8256 53.6102C77.5119 53.5968 77.7272 54.0678 78.2117 54.2427C79.3421 54.1889 80.8358 54.4984 81.2126 53.691C82.4371 53.5026 82.8678 52.5203 83.7828 52.0224C84.3749 52.6145 84.8863 53.2873 85.3169 54.0409C85.0074 54.754 84.0654 54.8348 83.0831 54.8751C82.8274 54.3638 81.8585 54.5657 81.1318 54.5253C80.8089 54.7137 80.755 54.9559 80.2302 54.8079C79.3555 55.5883 78.0636 55.9382 78.0771 57.5934C77.7945 57.6741 77.781 58.0374 77.4446 58.0778C77.4581 58.7237 77.0813 58.9659 76.8121 59.3292C76.7045 60.2981 76.1393 60.7825 75.8432 61.563C75.6145 62.6799 76.247 62.7472 76.4757 63.5142C76.5295 63.6891 76.7852 63.7295 76.8256 63.7967C76.9871 64.1197 76.9602 64.6176 77.1082 64.8463C77.2024 65.0078 77.3639 64.9944 77.4581 65.1962C77.5792 66.2458 77.2024 66.7975 76.8256 67.3493C76.8525 68.2508 76.4892 68.7756 76.1931 69.3677C76.0182 70.7537 76.7852 71.1978 76.8256 72.3685C77.014 72.5972 77.1486 72.8798 77.4581 73.0009C77.633 73.7814 78.2251 74.1313 78.7096 74.6022C78.8038 75.2481 79.2613 75.5308 79.6785 75.8537C79.5977 76.4592 80.0418 76.5534 80.311 76.8225V77.455C80.4321 77.8048 80.7416 77.9529 80.9434 78.222C81.1587 79.6484 81.8854 80.5769 82.962 81.1421H87.0663C87.5508 81.3035 87.793 81.7207 88.3851 81.7745C89.1791 82.4339 89.677 83.4162 90.4036 84.1428C90.3094 84.7483 90.5382 85.0309 90.7535 85.327C90.3767 87.5742 91.3995 89.7542 90.8208 91.665L90.7804 91.6919ZM22.9575 112.859C22.2443 112.321 21.558 111.634 20.8044 111.042C19.378 109.925 18.0726 108.432 16.9019 107.005C16.2829 106.252 15.5427 105.619 15.0179 104.919C12.6091 101.676 10.631 98.1913 9.16415 94.3293C8.65279 92.9837 8.07414 91.5573 7.63007 90.2251C5.67881 83.6046 5.58461 73.4315 7.63007 66.6899C8.31637 66.9455 8.54514 67.6722 9.16415 68.0086C8.93539 68.668 9.86392 68.6142 9.79663 69.3273C10.3349 69.9194 10.9943 70.4038 11.4653 71.0632H11.9497C11.8152 71.8706 12.6764 71.6822 12.7168 72.3147H13.5511C13.6857 72.1397 13.5915 71.7495 13.6184 71.4804C13.5915 71.2247 13.2282 71.3189 13.0667 71.1978C12.7033 70.2424 12.0574 69.5561 11.398 68.8967C11.3576 68.668 11.4518 68.5738 11.4653 68.4123C10.6713 67.7529 10.8194 66.5688 10.1465 65.7614V63.5276H10.2811C10.5502 64.1466 10.7655 64.806 11.3307 65.129C11.102 66.4746 11.6268 67.0532 12.0305 67.7799C12.0843 67.9817 12.4611 67.8606 12.5822 67.9951C12.8514 68.9774 13.6588 69.4215 13.5511 70.7806C13.8472 71.5476 14.8699 71.6015 15.2198 72.3147H15.8523C16.3502 72.9471 17.3325 73.0817 17.8035 73.5661C18.6244 73.5526 19.526 73.7141 20.3738 73.5661C20.939 73.4719 21.262 73.1355 21.6926 73.2835C21.9483 73.3777 21.881 73.6199 22.177 73.8352C22.4596 74.0505 22.8095 73.9698 22.8768 74.4677C23.5496 74.4677 23.913 74.9117 24.6127 74.8175C24.9626 74.7772 25.3125 74.3331 26.0122 74.535C26.7658 74.7503 26.8062 75.7595 27.6809 75.921C28.2595 76.9167 28.5825 78.1682 29.4168 78.9218C29.9147 78.8276 30.1704 79.2985 30.5338 79.5542C31.5699 79.5542 31.9737 80.2001 32.5523 80.6711C32.6061 80.9402 32.4716 81.0075 32.485 81.2228C32.5523 81.5188 32.7138 81.7341 32.8349 81.9898C32.7542 84.089 32.8753 85.9863 33.4674 87.4262V89.0275C34.0057 89.808 34.194 91.0594 35.0687 91.6784V92.0955C35.8627 92.6069 36.1318 93.643 37.2219 93.8314C37.4641 94.3428 37.9889 94.5446 38.4734 94.8138C38.7021 96.0248 39.6037 96.5631 40.29 97.3166C41.1109 97.6127 41.9049 97.4243 42.7257 97.5992C43.3986 97.7338 43.9638 98.3528 44.7443 98.2317C45.3364 98.743 45.7805 99.4158 46.4129 99.9003V100.385C47.0723 101.313 47.799 101.892 48.0143 103.305C48.122 104.031 47.8798 104.866 48.0143 105.673C48.0412 105.848 48.2431 105.996 48.2969 106.225C48.4046 106.682 48.2969 107.099 48.6468 107.342C48.5795 108.768 48.7545 109.979 49.2793 110.827C49.508 111.473 49.0774 111.998 48.9967 112.563C48.9428 113.02 49.1851 113.37 49.2793 113.949C49.36 114.5 49.1985 115.119 49.2793 115.55C49.3196 115.752 49.535 115.792 49.6291 116.034C49.683 116.169 49.5753 116.317 49.6291 116.452C49.831 116.936 50.3289 117.326 50.1809 117.918C50.8537 118.309 50.7999 119.425 51.4997 119.802C51.4997 120.704 52.2129 120.906 52.4013 121.619C39.4826 122.238 30.3454 118.389 22.9441 112.845L22.9575 112.859ZM31.7314 38.8351C32.5388 38.4315 33.2924 38.095 34.3017 37.8663C34.369 38.1623 33.9115 38.4853 34.0864 39.1177C34.2075 39.4138 34.4901 39.5483 34.5036 39.952C34.6785 40.1269 35.0688 40.0866 35.2033 40.3019C34.9073 41.2035 34.8265 42.3338 34.0191 42.7375C32.7945 41.8763 32.6869 44.0158 31.6507 43.7871C31.4623 42.6029 32.0409 41.3111 31.5161 40.6518H30.1301C30.1166 40.2346 29.9551 39.952 29.4976 39.952C30.157 39.4541 30.9778 39.2119 31.7314 38.8351ZM98.4913 74.8175C98.4913 74.8175 98.3836 74.7637 98.4374 74.6292C97.8722 67.5511 96.1767 61.7514 93.7006 56.7321C90.3094 49.8828 86.1916 44.8232 80.6743 40.0193C78.7634 38.3642 76.395 36.6956 74.1342 35.4172C73.2999 34.9462 72.479 34.4214 71.6985 34.0985C71.2948 33.9235 70.8776 33.8966 70.5143 33.6813C70.299 33.5602 70.1241 33.3584 69.9222 33.1969C69.5723 33.0354 69.209 32.8739 68.8591 32.7125C68.1324 32.4972 67.3923 32.3895 66.7598 32.0127C66.7194 31.9589 66.706 31.8917 66.6656 31.8244C65.8851 31.5283 65.1046 31.2592 64.3107 31.0035C63.113 30.8689 61.9422 30.3845 60.7177 30.0077C59.9103 29.8194 59.0894 29.6444 58.255 29.4829C57.0036 29.2945 55.7386 29.1465 54.4333 28.9312C53.4778 28.8236 52.5224 28.7563 51.5535 28.7159C51.4862 28.7428 51.4189 28.7832 51.3651 28.7967C51.1498 28.8371 50.8806 28.7428 50.6384 28.689C50.1943 28.689 49.7368 28.6486 49.2927 28.6486C47.6375 28.6486 45.9958 28.7294 44.381 28.8908C42.7123 29.0927 41.1647 29.3753 39.8863 29.6175C38.2042 29.9405 36.8854 30.2096 35.4321 30.6671C27.3848 33.1565 20.9793 37.0858 15.5562 42.0243C15.2871 42.28 15.0314 42.5222 14.7622 42.7779C14.3854 43.1277 14.0356 43.5045 13.6857 43.8813C13.3627 44.2177 13.0398 44.5407 12.7303 44.8905C10.6713 47.2185 8.86811 49.8021 7.0918 52.5337C6.86303 52.8836 6.63426 53.2604 6.41895 53.6372C6.27092 53.9063 6.10945 54.162 5.96142 54.4311C5.96142 54.4446 5.9345 54.4715 5.9345 54.4849C3.9025 58.2258 2.35495 62.2762 1.34568 66.5284C1.22457 67.2416 1.11692 67.9413 0.96889 68.6142C0.941976 68.7353 0.874701 68.8698 0.820873 69.0044C0.65939 69.9059 0.511357 70.821 0.403702 71.7495C0.363331 72.3012 0.322965 72.8529 0.282594 73.4181C0.282594 73.4988 0.242217 73.5392 0.201846 73.5796C0.0807334 75.0194 0 76.4727 0 77.9529C0 79.4466 0.0807334 80.9133 0.201846 82.3666C0.22876 82.4204 0.269134 82.4608 0.269134 82.5415C0.309505 83.4431 0.403704 84.2774 0.51136 85.0982C0.524817 85.2193 0.538275 85.3539 0.565189 85.4884C0.874698 87.5473 1.35915 89.4312 1.8436 91.3286C2.09928 92.2571 2.39534 93.1855 2.70485 94.0871C4.69647 99.4562 7.28018 104.247 10.5098 108.391C10.5098 108.391 10.5233 108.418 10.5368 108.432C11.3846 109.508 12.2593 110.544 13.1878 111.54C13.2551 111.621 13.3358 111.688 13.4031 111.769C16.256 114.796 19.4856 117.434 23.119 119.681C23.1325 119.735 23.1728 119.775 23.1997 119.816C24.8549 120.852 26.564 121.794 28.3403 122.628C28.3403 122.628 28.3403 122.628 28.3403 122.615C31.3815 123.839 34.4767 125.023 37.8813 125.885C37.8813 125.911 37.8813 125.938 37.8813 125.965C38.7829 126.181 39.6845 126.369 40.5995 126.53C42.6181 126.732 44.8385 127.149 47.18 127.271C47.6913 127.297 48.2027 127.311 48.7275 127.311C48.9832 127.311 49.2524 127.311 49.508 127.311C52.7242 127.311 55.8732 126.975 58.9279 126.369C59.4123 126.275 59.8968 126.167 60.3678 126.06C60.5965 126.006 60.8388 125.952 61.0675 125.898C67.8498 124.176 73.8112 121.175 78.8307 117.515C78.9249 117.447 79.0056 117.367 79.0998 117.299C80.1091 116.532 81.078 115.617 82.1007 114.743C83.1773 113.841 84.2538 112.845 85.1689 111.823C87.0394 109.697 88.9234 107.503 90.4575 105.135C94.6291 98.7161 97.7646 90.9248 98.4643 81.2497C98.4374 81.169 98.4643 81.142 98.5182 81.1286C98.5855 80.0924 98.6258 79.0563 98.6258 77.9933C98.6258 76.9302 98.5855 75.8671 98.5182 74.8175H98.4913Z" fill="var(--fill-0, #158CBA)"/>
<path fill-rule="evenodd" clip-rule="evenodd" d="M56.6806 32.0262C56.7748 31.0439 57.7437 30.721 58.2551 30.1289C58.3493 30.0212 58.3224 29.8328 58.4031 29.7386C58.7261 29.308 59.1567 29.0524 59.5469 28.7025C59.7488 28.245 59.9372 27.6394 60.2871 27.3299C60.5024 27.1415 60.8388 27.1685 61.0676 27.0205C61.8481 26.5226 62.1307 25.621 62.8708 25.0693C62.8708 24.9347 62.8708 24.8002 62.8708 24.6656C63.1534 24.4099 63.7455 24.1139 64.0819 23.6967C64.2569 23.4949 64.3376 23.0239 64.7951 23.1181C65.1989 23.1989 65.2258 23.8178 65.32 24.3965C65.3603 24.6656 65.6025 24.8943 65.6429 25.0693C65.7506 25.4999 65.4949 25.9709 65.8852 26.1458C65.8852 26.4553 65.8717 26.7648 65.8582 27.0743C65.8582 27.3434 65.5487 27.2761 65.5622 27.5318C65.5353 28.9851 65.3872 29.7925 65.4545 31.1247C65.7237 31.4072 65.7506 31.8917 66.0466 32.1339C65.8179 33.2104 66.41 33.5603 66.5714 34.2869C67.2847 34.5291 67.9844 34.7713 68.6707 35.0405C67.971 33.3853 68.6707 30.4788 68.3881 28.2046C68.3612 27.9624 68.1997 27.7606 68.1997 27.5318C68.1997 26.9397 68.5765 26.1323 68.2536 25.6075C68.8188 23.912 69.4243 21.5437 68.9937 19.4445C68.9399 19.2023 68.7784 19.0543 68.738 18.839C68.442 17.5202 69.7069 16.9416 70.2721 16.3496C71.8062 16.1073 72.0081 17.0627 73.3134 17.0224C73.8113 17.3857 73.9324 18.4084 74.7263 18.5968C75.5068 18.7717 76.3412 18.2738 76.2874 17.7086C76.247 17.3318 75.6549 17.1569 75.4127 16.8205C74.982 16.7398 74.6994 16.511 74.3092 16.3899C74.0266 16.2823 73.8786 15.8786 73.7036 15.7709C73.5691 15.6902 73.4345 15.7978 73.2865 15.6902C72.8828 15.3941 71.4832 14.2504 71.4563 13.7794C71.4429 13.2815 72.2503 12.7029 72.3445 12.1377C72.3849 11.8955 72.2099 11.5994 72.2368 11.263C72.2772 10.7248 72.7616 10.1865 72.7751 9.74246C72.7751 9.52716 72.5732 9.23111 72.5194 8.93507C72.4387 8.49101 72.5598 7.99312 72.4925 7.67016C72.3849 7.18573 71.8869 6.76858 71.9004 6.32452C71.9408 5.38258 73.125 5.34218 73.6633 5.50366C74.2554 5.19416 74.982 4.64246 75.1704 3.87545C75.2377 3.59286 75.1301 3.24299 75.1973 2.94695C75.305 2.4087 75.7222 1.95119 75.5203 1.35911C75.1839 0.780484 74.4572 0.551724 74.0266 0.0538371C73.2865 0.0403807 72.5329 0.0134564 71.7927 0C71.5505 0.444061 70.8238 1.07652 70.7027 1.69552C70.5009 2.67784 71.389 4.26571 69.8549 4.19843C69.2225 4.17152 68.8322 3.37759 68.2132 3.22957C67.8499 3.14883 67.4327 3.26991 67.029 3.20263C66.8406 3.16226 66.6387 2.96043 66.41 2.92006C66.1947 2.87969 65.9659 2.96041 65.7775 2.90659C65.5353 2.8393 65.3469 2.61057 65.0912 2.55675C63.7859 2.27416 62.6824 2.67785 62.1441 3.13536C61.9288 3.32375 61.9288 3.66014 61.7 3.91582C61.3636 4.30605 60.8792 4.64247 60.5562 5.01925C60.2736 5.3422 60.1256 5.75935 59.8295 6.06885C59.7892 6.86278 59.4527 7.44141 59.4124 8.18151C59.3855 8.80051 59.6008 9.47332 59.4124 10.1058C59.3182 10.4422 58.9817 10.496 58.7664 10.819C58.6722 10.9535 58.7664 11.1554 58.6857 11.3438C58.5107 11.6936 58.1205 11.7744 58.0398 12.057C57.811 12.8374 58.1474 13.4564 57.9725 14.4522C58.2282 14.8828 58.6722 15.1519 58.6319 15.8651C59.6411 16.7398 60.5562 17.7087 62.5478 17.6952C63.3418 18.3815 62.4805 18.7717 62.2787 19.4849C62.2114 19.7136 62.3325 19.9828 62.2652 20.1442C62.1172 20.5076 61.4174 21.0458 61.256 21.2477C61.256 21.4764 61.256 21.6917 61.2425 21.907C61.081 22.1492 60.8119 22.2973 60.5966 22.4857C60.5966 22.6606 60.5966 22.8355 60.5831 23.0239C59.668 24.1946 58.9414 25.5537 57.6899 26.4015C57.4746 27.007 57.017 27.3838 56.7344 27.9759C56.4788 28.5007 56.2904 29.1466 55.9136 29.6848C55.6175 30.102 54.7159 31.2323 54.0161 31.7167C54.8908 31.784 55.7655 31.8648 56.6268 31.9724L56.6806 32.0262Z" fill="var(--fill-0, #158CBA)"/>
<path fill-rule="evenodd" clip-rule="evenodd" d="M35.8357 125.171C35.6608 126.154 34.7457 126.382 34.2343 126.934C34.1401 127.042 34.1401 127.217 34.0594 127.324C33.7364 127.728 33.3193 127.943 32.929 128.253C32.7003 128.697 32.4849 129.276 32.1351 129.572C31.9198 129.747 31.6237 129.679 31.4084 129.814C30.6548 130.244 30.3184 131.119 29.6052 131.604C29.5917 131.738 29.5783 131.873 29.5513 132.007C29.2687 132.236 28.717 132.478 28.3671 132.855C28.1922 133.043 28.0845 133.501 27.6674 133.366C27.304 133.245 27.3444 132.613 27.3175 132.034C27.3175 131.765 27.1022 131.496 27.0887 131.321C27.0349 130.877 27.3175 130.419 26.9676 130.218C27.008 129.908 27.0484 129.599 27.0753 129.289C27.0887 129.02 27.3713 129.128 27.3848 128.858C27.5463 127.392 27.7616 126.598 27.8289 125.252C27.6135 124.943 27.6405 124.445 27.3848 124.176C27.6943 123.113 27.1964 122.709 27.1156 121.955C26.4966 121.646 25.8911 121.323 25.2989 120.986C25.7699 122.736 24.8683 125.589 24.8952 127.903C24.8952 128.159 25.0163 128.374 25.0029 128.603C24.9491 129.195 24.5319 129.975 24.7607 130.54C24.0878 132.196 23.3208 134.524 23.4957 136.69C23.5226 136.932 23.6438 137.107 23.6707 137.323C23.8052 138.682 22.621 139.139 22.0424 139.677C20.6429 139.772 20.5486 138.789 19.3644 138.695C18.9607 138.278 18.9338 137.242 18.2341 136.973C17.5478 136.717 16.7538 137.134 16.7403 137.713C16.7403 138.103 17.2517 138.332 17.4401 138.695C17.8169 138.83 18.0591 139.072 18.3955 139.233C18.6378 139.368 18.732 139.785 18.88 139.92C18.9876 140.014 19.1222 139.92 19.2433 140.041C19.5798 140.377 20.7236 141.669 20.6967 142.153C20.6698 142.651 19.8758 143.163 19.7412 143.714C19.6874 143.957 19.8085 144.266 19.7547 144.602C19.674 145.141 19.176 145.639 19.1222 146.083C19.0953 146.311 19.2568 146.621 19.2702 146.917C19.2972 147.374 19.1357 147.872 19.176 148.195C19.2299 148.693 19.6336 149.164 19.5798 149.608C19.4586 150.564 18.3821 150.483 17.9111 150.254C17.3459 150.51 16.6327 150.994 16.3905 151.748C16.2963 152.03 16.3636 152.394 16.2694 152.676C16.1213 153.215 15.7042 153.632 15.8253 154.251C16.081 154.87 16.7 155.179 17.0498 155.717C17.7227 155.812 18.3821 155.906 19.0549 156C19.3241 155.569 20.0373 155.004 20.1988 154.399C20.4679 153.43 19.8354 151.734 21.1946 151.95C21.7598 152.044 22.0289 152.878 22.5806 153.093C22.8901 153.215 23.2939 153.12 23.6437 153.241C23.8052 153.295 23.9667 153.524 24.1686 153.591C24.357 153.659 24.5723 153.591 24.7338 153.672C24.9491 153.766 25.0971 154.008 25.3124 154.089C26.4562 154.493 27.4924 154.21 28.0173 153.793C28.2326 153.618 28.2595 153.282 28.4882 153.04C28.8247 152.676 29.2957 152.394 29.6321 152.044C29.9147 151.748 30.0896 151.344 30.3857 151.061C30.4933 150.254 30.8567 149.716 30.9643 148.962C31.0451 148.33 30.9105 147.644 31.1392 147.011C31.2604 146.688 31.5564 146.661 31.7852 146.352C31.8794 146.217 31.8121 146.002 31.9198 145.827C32.1081 145.491 32.4715 145.45 32.5657 145.168C32.8483 144.401 32.6061 143.741 32.8617 142.759C32.6733 142.288 32.2965 141.978 32.4042 141.265C31.5699 140.283 30.8432 139.22 29.0534 139.031C28.4075 138.251 29.2149 137.955 29.4571 137.255C29.5379 137.026 29.4571 136.757 29.5379 136.582C29.7128 136.233 30.3857 135.762 30.5472 135.573C30.5741 135.344 30.601 135.129 30.6279 134.9C30.8028 134.672 31.0585 134.55 31.2604 134.376C31.2873 134.201 31.3007 134.026 31.3276 133.837C32.2696 132.747 33.0501 131.442 34.2478 130.715C34.49 130.137 34.9476 129.787 35.2571 129.222C35.5397 128.71 35.7684 128.091 36.1587 127.58C36.4547 127.19 37.3833 126.14 38.0561 125.723C37.2756 125.575 36.4951 125.4 35.7281 125.198L35.8357 125.171Z" fill="var(--fill-0, #158CBA)"/>
</g>
    </svg>
  </g>
  <g transform="translate(128.6390 38.6720)">
    <svg width="677.053" height="104" viewBox="0 0 677.053 104" overflow="visible">
      <g id="Vector">
<path d="M95.6696 53.2469C95.6696 48.4011 96.4689 44.0654 98.0391 40.2681C99.6093 36.4708 101.722 33.2687 104.377 30.69C107.032 28.1112 110.087 26.1275 113.542 24.7673C117.025 23.407 120.593 22.6987 124.305 22.6987C128.016 22.6987 131.585 23.3787 135.011 24.7673C138.437 26.1275 141.492 28.1112 144.118 30.69C146.773 33.2687 148.886 36.4708 150.456 40.2681C152.026 44.0654 152.826 48.4011 152.826 53.2469C152.826 58.0926 152.026 62.4283 150.456 66.2256C148.886 70.0229 146.773 73.225 144.118 75.8038C141.463 78.3825 138.437 80.3662 135.011 81.7264C131.585 83.0866 128.016 83.7951 124.305 83.7951C120.593 83.7951 116.996 83.1149 113.542 81.7264C110.059 80.3662 107.004 78.3825 104.377 75.8038C101.722 73.225 99.6093 70.0229 98.0391 66.2256C96.4689 62.4283 95.6696 58.0926 95.6696 53.2469ZM113.542 53.2469C113.542 58.3477 114.427 62.3716 116.197 65.3471C117.967 68.3226 120.679 69.8245 124.305 69.8245C127.93 69.8245 130.529 68.3509 132.356 65.3471C134.183 62.3716 135.068 58.3477 135.068 53.2469C135.068 48.1461 134.154 44.122 132.356 41.1465C130.529 38.1711 127.845 36.6692 124.305 36.6692C120.764 36.6692 117.967 38.1711 116.197 41.1465C114.427 44.122 113.542 48.1461 113.542 53.2469Z" fill="var(--fill-0, #158CBA)"/>
<path d="M0 5.75267H17.8721L23.2108 41.6001C23.6962 45.5957 24.2098 49.6197 24.7522 53.6436C25.2947 57.6676 25.8087 61.7483 26.294 65.8006H26.7795C27.5789 61.72 28.3495 57.6676 29.0918 53.6436C29.8341 49.6197 30.6051 45.5957 31.4045 41.6001L39.684 5.75267H54.4724L62.7519 41.6001C63.5513 45.5107 64.3219 49.5064 65.0642 53.5304C65.8065 57.5543 66.5775 61.6633 67.3769 65.8006H67.8624C68.4048 61.6633 68.9471 57.5826 69.461 53.587C69.9749 49.5914 70.5175 45.5957 71.0599 41.6001L76.3987 5.75267H93.1001L79.3676 82.3783H57.4703L49.9046 47.5794C49.2765 44.6039 48.7056 41.6001 48.1917 38.5962C47.6778 35.5924 47.221 32.6736 46.8214 29.8399H46.3359C45.8505 32.6736 45.3651 35.5924 44.8513 38.5962C44.3374 41.6001 43.7664 44.6039 43.1383 47.5794L35.9152 82.3783H14.3605L0.0285774 5.75267H0Z" fill="var(--fill-0, #158CBA)"/>
<path d="M161.648 24.0872H175.865L177.036 34.3172H177.521C179.662 30.3216 182.203 27.3744 185.23 25.5041C188.227 23.6338 191.225 22.6703 194.223 22.6703C195.879 22.6703 197.249 22.7837 198.305 22.9537C199.361 23.1521 200.332 23.4354 201.217 23.8322L198.362 38.7662C197.249 38.4545 196.221 38.2278 195.279 38.0577C194.337 37.8877 193.223 37.8311 191.967 37.8311C189.769 37.8311 187.456 38.6245 185.03 40.1831C182.631 41.7417 180.633 44.5188 179.063 48.5144V82.3498H161.648V24.0588V24.0872Z" fill="var(--fill-0, #158CBA)"/>
<path d="M205.557 0H222.972V65.0071C222.972 66.8207 223.315 68.0675 223.971 68.776C224.628 69.4844 225.342 69.8245 226.055 69.8245H227.055C227.34 69.8245 227.711 69.7395 228.168 69.5978L230.309 82.4066C229.367 82.8033 228.168 83.1433 226.684 83.3983C225.228 83.6817 223.514 83.8235 221.545 83.8235C218.547 83.8235 216.006 83.3417 213.979 82.4066C211.923 81.4714 210.296 80.1678 209.068 78.4676C207.841 76.7956 206.956 74.7553 206.413 72.3466C205.871 69.9662 205.585 67.2741 205.585 64.2986V0H205.557Z" fill="var(--fill-0, #158CBA)"/>
<path d="M233.164 53.2469C233.164 48.4578 233.85 44.207 235.248 40.4381C236.619 36.6692 238.446 33.4954 240.701 30.86C242.957 28.2246 245.555 26.2125 248.524 24.7956C251.493 23.3787 254.491 22.6703 257.574 22.6703C260.886 22.6703 263.627 23.2088 265.739 24.3139C267.88 25.4191 269.965 26.8926 272.02 28.7913L271.307 19.8649V0H288.722V82.3782H274.504L273.333 76.6256H272.848C270.792 78.6659 268.394 80.3662 265.625 81.7264C262.856 83.0866 260.058 83.7951 257.232 83.7951C253.606 83.7951 250.294 83.0866 247.353 81.6697C244.384 80.2529 241.872 78.2408 239.788 75.6054C237.704 72.97 236.076 69.7962 234.934 66.0273C233.792 62.2583 233.221 58.0076 233.221 53.2185L233.164 53.2469ZM251.036 53.0201C251.036 58.8294 251.95 63.0518 253.806 65.7155C255.661 68.3793 258.288 69.7112 261.685 69.7112C263.57 69.7112 265.282 69.3144 266.824 68.5493C268.366 67.7558 269.851 66.3956 271.278 64.4403V40.5798C269.708 39.163 268.08 38.1994 266.424 37.6327C264.769 37.0943 263.141 36.8109 261.571 36.8109C258.802 36.8109 256.375 38.1144 254.234 40.7499C252.092 43.3853 251.036 47.4659 251.036 53.0201Z" fill="var(--fill-0, #158CBA)"/>
<path d="M318.299 86.9689V104H300.884V24.0872H315.102L316.272 29.8398H316.757C319.041 27.7994 321.639 26.0992 324.523 24.739C327.406 23.3788 330.375 22.6703 333.459 22.6703C336.999 22.6703 340.197 23.3787 343.052 24.7956C345.907 26.2125 348.305 28.1962 350.274 30.8032C352.244 33.382 353.757 36.4992 354.842 40.1548C355.899 43.8104 356.441 47.8626 356.441 52.3117C356.441 57.3275 355.756 61.7766 354.357 65.6589C352.987 69.5412 351.131 72.8283 348.79 75.5204C346.449 78.2125 343.822 80.2812 340.853 81.6981C337.884 83.115 334.829 83.8235 331.689 83.8235C329.148 83.8235 326.721 83.285 324.352 82.2365C321.982 81.188 319.783 79.6578 317.728 77.7025L318.328 86.9973L318.299 86.9689ZM318.299 65.9422C319.869 67.3591 321.468 68.3226 323.038 68.8893C324.609 69.4278 326.15 69.7112 327.663 69.7112C330.661 69.7112 333.23 68.351 335.372 65.6589C337.513 62.9668 338.569 58.5744 338.569 52.5668C338.569 42.0818 335.172 36.8109 328.377 36.8109C324.98 36.8109 321.639 38.5679 318.299 42.1101V65.9705V65.9422Z" fill="var(--fill-0, #158CBA)"/>
<path d="M362.094 66.1689C362.094 60.048 364.692 55.2872 369.917 51.83C375.113 48.3728 383.535 46.0774 395.126 44.8872C394.955 42.3084 394.184 40.2398 392.756 38.7095C391.329 37.1793 389.045 36.4142 385.876 36.4142C383.335 36.4142 380.823 36.8959 378.31 37.8311C375.798 38.7662 373.114 40.0697 370.259 41.7133L364.093 30.3216C367.89 28.0545 371.858 26.2125 375.998 24.7956C380.137 23.3787 384.534 22.6703 389.188 22.6703C396.753 22.6703 402.549 24.7957 406.546 29.0747C410.543 33.3537 412.513 39.9848 412.513 48.9962V82.3782H398.295L396.981 76.3989H396.639C394.098 78.5809 391.443 80.3662 388.645 81.7548C385.847 83.115 382.792 83.8235 379.481 83.8235C376.797 83.8235 374.399 83.37 372.258 82.4632C370.117 81.5564 368.318 80.3095 366.805 78.6942C365.292 77.079 364.15 75.2371 363.322 73.1117C362.494 70.9864 362.065 68.691 362.065 66.1689H362.094ZM378.681 64.8654C378.681 66.7357 379.281 68.1243 380.509 69.0311C381.736 69.9379 383.364 70.3912 385.419 70.3912C387.475 70.3912 389.216 69.9662 390.615 69.0877C392.042 68.2376 393.527 67.019 395.126 65.4321V55.2022C388.902 56.0523 384.591 57.3275 382.222 58.9711C379.852 60.6147 378.681 62.57 378.681 64.837V64.8654Z" fill="var(--fill-0, #158CBA)"/>
<path d="M420.821 53.2469C420.821 48.4011 421.649 44.0654 423.304 40.2681C424.96 36.4708 427.187 33.2687 429.985 30.69C432.783 28.1112 436.038 26.1275 439.749 24.7673C443.46 23.407 447.314 22.6987 451.34 22.6987C454.966 22.6987 458.249 23.2937 461.161 24.5122C464.073 25.7308 466.528 27.346 468.498 29.3864L460.561 40.0698C457.792 37.8028 455.08 36.6692 452.396 36.6692C448.142 36.6692 444.773 38.1711 442.318 41.1465C439.863 44.122 438.636 48.1461 438.636 53.2469C438.636 58.3477 439.892 62.3716 442.375 65.3471C444.859 68.3226 448 69.8245 451.797 69.8245C453.938 69.8245 455.851 69.3994 457.592 68.5209C459.334 67.6708 460.904 66.679 462.331 65.5739L469.326 76.5122C466.471 79.0343 463.331 80.848 459.848 82.0382C456.365 83.2 453.024 83.7951 449.77 83.7951C445.658 83.7951 441.861 83.1149 438.35 81.7264C434.838 80.3662 431.783 78.3825 429.185 75.8038C426.587 73.225 424.532 70.0229 423.019 66.2256C421.506 62.4283 420.763 58.0926 420.763 53.2469H420.821Z" fill="var(--fill-0, #158CBA)"/>
<path d="M476.349 0H493.279V47.2393H493.765L512.35 24.0872H531.307L510.695 48.061L532.849 82.3782H514.035L500.759 59.7079L493.308 68.0392V82.3782H476.378V0H476.349Z" fill="var(--fill-0, #158CBA)"/>
<path d="M531.307 53.2469C531.307 48.5428 532.107 44.2921 533.677 40.4948C535.247 36.6976 537.331 33.4954 539.901 30.86C542.47 28.2246 545.411 26.2125 548.722 24.7956C552.034 23.3787 555.46 22.6703 559.029 22.6703C563.197 22.6703 566.852 23.3787 569.992 24.7956C573.104 26.2125 575.702 28.1679 577.815 30.6616C579.899 33.1837 581.469 36.1308 582.497 39.5314C583.525 42.9319 584.038 46.6441 584.038 50.6398C584.038 52.1983 583.953 53.6436 583.81 54.9188C583.639 56.2223 583.496 57.2142 583.325 57.9226H548.152C548.951 62.4 550.692 65.6305 553.433 67.6142C556.145 69.5978 559.486 70.618 563.426 70.618C567.622 70.618 571.848 69.3145 576.101 66.7357L581.897 77.1923C578.899 79.2326 575.559 80.8479 571.876 82.0098C568.193 83.1716 564.596 83.7667 561.056 83.7667C556.859 83.7667 552.977 83.0867 549.322 81.6981C545.696 80.3379 542.527 78.3259 539.844 75.7188C537.16 73.0834 535.076 69.9095 533.563 66.1406C532.05 62.3716 531.307 58.0643 531.307 53.2185V53.2469ZM569.193 47.2393C569.193 43.8671 568.45 41.1182 566.937 39.0212C565.424 36.9242 562.912 35.8474 559.371 35.8474C556.602 35.8474 554.176 36.7825 552.091 38.5962C550.007 40.4381 548.637 43.3286 548.009 47.2393H569.193Z" fill="var(--fill-0, #158CBA)"/>
<path d="M592.86 24.0872H607.078L608.248 34.3172H608.734C610.875 30.3216 613.416 27.3744 616.442 25.5041C619.44 23.6338 622.437 22.6703 625.435 22.6703C627.091 22.6703 628.462 22.7837 629.518 22.9537C630.574 23.1521 631.545 23.4354 632.43 23.8322L629.575 38.7662C628.462 38.4545 627.434 38.2278 626.491 38.0577C625.549 37.8877 624.436 37.8311 623.18 37.8311C620.982 37.8311 618.669 38.6245 616.242 40.1831C613.844 41.7417 611.846 44.5188 610.276 48.5144V82.3498H592.86V24.0588V24.0872Z" fill="var(--fill-0, #158CBA)"/>
<path d="M638.225 64.8654C640.909 66.9057 643.479 68.436 645.934 69.4561C648.389 70.4763 650.873 70.9864 653.385 70.9864C655.898 70.9864 657.896 70.5613 659.067 69.6828C660.266 68.8327 660.837 67.6142 660.837 66.0273C660.837 65.0921 660.494 64.242 659.838 63.5052C659.152 62.7684 658.267 62.0882 657.125 61.4365C655.983 60.813 654.698 60.2463 653.271 59.7363C651.843 59.2262 650.387 58.6594 648.903 58.036C647.076 57.3275 645.277 56.5057 643.45 55.5706C641.623 54.6354 639.967 53.4736 638.482 52.1134C636.969 50.7532 635.77 49.1379 634.799 47.2959C633.857 45.4539 633.372 43.3286 633.372 40.8915C633.372 38.2278 633.915 35.7624 634.971 33.4954C636.027 31.2283 637.569 29.3014 639.539 27.7428C641.509 26.1842 643.878 24.9374 646.648 24.0305C649.417 23.1237 652.5 22.6703 655.869 22.6703C660.38 22.6703 664.32 23.4354 667.717 24.9657C671.115 26.4959 674.084 28.1962 676.596 30.0665L668.774 40.4098C666.632 38.8512 664.548 37.6327 662.492 36.7542C660.437 35.9041 658.382 35.4507 656.326 35.4507C651.901 35.4507 649.702 36.9809 649.702 40.0414C649.702 40.9766 650.017 41.7984 650.645 42.4502C651.273 43.1303 652.129 43.7253 653.185 44.2637C654.242 44.8022 655.469 45.3406 656.868 45.8506C658.239 46.3607 659.695 46.8991 661.179 47.4376C663.064 48.146 664.948 48.9395 666.803 49.8463C668.659 50.7531 670.344 51.8583 671.885 53.1901C673.427 54.522 674.655 56.1373 675.625 58.0643C676.568 59.9912 677.053 62.2867 677.053 64.9504C677.053 67.6142 676.539 70.0795 675.511 72.3466C674.483 74.6136 672.942 76.5972 670.886 78.2692C668.831 79.9411 666.318 81.273 663.32 82.2648C660.323 83.2566 656.84 83.7384 652.9 83.7384C648.96 83.7384 645.077 83.0016 640.995 81.4997C636.941 79.9978 633.4 78.0425 630.403 75.6338L638.225 64.8087V64.8654Z" fill="var(--fill-0, #158CBA)"/>
</g>
    </svg>
  </g>
</svg>
